<svg width="37" height="38" viewBox="0 0 37 38" fill="none" xmlns="http://www.w3.org/2000/svg">
<path d="M15.3659 14.1302V24.5256C15.3776 25.2858 15.6796 26.0108 16.2068 26.5441C16.7339 27.0774 17.444 27.3763 18.1837 27.3763C18.9234 27.3763 19.6334 27.0774 20.1606 26.5441C20.6878 26.0108 20.9898 25.2858 21.0015 24.5256L21.0106 10.9C21.0183 10.2502 20.9004 9.60541 20.6638 9.00287C20.4272 8.40033 20.0765 7.85205 19.6322 7.38981C19.1879 6.92758 18.6587 6.56059 18.0754 6.31011C17.492 6.05964 16.8661 5.93066 16.2339 5.93066C15.6017 5.93066 14.9758 6.05964 14.3925 6.31011C13.8091 6.56059 13.2799 6.92758 12.8356 7.38981C12.3913 7.85205 12.0407 8.40033 11.8041 9.00287C11.5675 9.60541 11.4496 10.2502 11.4572 10.9V24.6174C11.4444 25.5321 11.6085 26.4403 11.9402 27.2892C12.2719 28.1382 12.7644 28.9108 13.3892 29.5624C14.0141 30.2139 14.7586 30.7313 15.5797 31.0844C16.4008 31.4375 17.282 31.6194 18.1721 31.6194C19.0622 31.6194 19.9434 31.4375 20.7644 31.0844C21.5855 30.7313 22.3301 30.2139 22.9549 29.5624C23.5797 28.9108 24.0723 28.1382 24.404 27.2892C24.7356 26.4403 24.8998 25.5321 24.8869 24.6174V11.7989" stroke="#8E8E8E" stroke-width="1.5" stroke-miterlimit="10" stroke-linecap="round"/>
</svg>
