<svg width="20" height="20" viewBox="0 0 20 20" fill="none" xmlns="http://www.w3.org/2000/svg">
<path d="M13.6131 5.74955C11.8395 7.0883 10.2793 8.68851 8.98587 10.4955C8.7563 10.1938 8.52003 9.90334 8.27705 9.624C7.88131 9.16803 7.45792 8.73682 7.00926 8.33281C6.95953 8.28797 6.90143 8.25339 6.8383 8.23106C6.77517 8.20873 6.70825 8.19909 6.64139 8.20269C6.57452 8.20629 6.50903 8.22306 6.44866 8.25203C6.38829 8.28101 6.33424 8.32162 6.2896 8.37154C6.24497 8.42146 6.21063 8.4797 6.18857 8.54292C6.1665 8.60614 6.15713 8.6731 6.16101 8.73995C6.16488 8.8068 6.18192 8.87223 6.21115 8.93248C6.24037 8.99272 6.28121 9.04661 6.33131 9.09103C6.74913 9.46724 7.14343 9.86878 7.51197 10.2934C7.89409 10.7334 8.25286 11.1932 8.58679 11.6709C8.66412 11.7811 8.78207 11.8562 8.91472 11.8796C9.04737 11.9029 9.18387 11.8727 9.29422 11.7954C9.3077 11.786 9.43059 11.6547 9.43067 11.6545C10.0648 10.6832 10.7855 9.77125 11.5839 8.92975C12.3893 8.0673 13.2699 7.27827 14.2152 6.57201C14.3241 6.49213 14.3969 6.37225 14.4175 6.23874C14.4381 6.10522 14.4049 5.96899 14.3251 5.85998C14.2453 5.75097 14.1255 5.6781 13.992 5.65739C13.8585 5.63668 13.7222 5.66983 13.6131 5.74955Z" fill="#9E9E9E"/>
<path d="M17.3228 15.041C17.5984 14.3484 17.2604 13.5636 16.5679 13.288C15.8754 13.0124 15.0905 13.3504 14.8149 14.0429C14.5393 14.7355 14.8773 15.5203 15.5698 15.7959C16.2624 16.0715 17.0472 15.7335 17.3228 15.041Z" fill="#9E9E9E"/>
<path d="M18.7872 11.3643C19.0636 10.6698 18.7246 9.88281 18.0301 9.60649C17.3356 9.33016 16.5486 9.66914 16.2723 10.3636C15.996 11.0581 16.335 11.8451 17.0294 12.1214C17.7239 12.3978 18.5109 12.0588 18.7872 11.3643Z" fill="#9E9E9E"/>
<path d="M18.239 7.38149C18.4866 6.75937 18.183 6.05433 17.5609 5.80674C16.9388 5.55914 16.2337 5.86276 15.9861 6.48488C15.7386 7.107 16.0422 7.81204 16.6643 8.05963C17.2864 8.30723 17.9915 8.00361 18.239 7.38149Z" fill="#9E9E9E"/>
<path d="M15.7968 3.99379C15.9894 3.50955 15.7531 2.96081 15.2688 2.76814C14.7846 2.57547 14.2359 2.81183 14.0432 3.29607C13.8505 3.7803 14.0869 4.32904 14.5711 4.52171C15.0554 4.71438 15.6041 4.47802 15.7968 3.99379Z" fill="#9E9E9E"/>
<path d="M12.0069 1.97432C12.1299 1.66501 11.9789 1.31454 11.6696 1.19152C11.3603 1.0685 11.0098 1.21951 10.8868 1.52882C10.7638 1.83813 10.9148 2.1886 11.2241 2.31162C11.5334 2.43464 11.8839 2.28363 12.0069 1.97432Z" fill="#9E9E9E"/>
<path d="M13.9758 16.2262L9.94926 15.7078C9.9043 15.702 9.85861 15.7082 9.81677 15.7256C9.77494 15.7431 9.73844 15.7713 9.71095 15.8073C9.68345 15.8433 9.66593 15.886 9.66014 15.931C9.65435 15.9759 9.6605 16.0216 9.67797 16.0634L10.1107 17.0999C10.0764 17.1001 10.0422 17.1013 10.0079 17.1011C8.15436 17.0982 6.36089 16.4432 4.94167 15.251C3.52245 14.0587 2.56795 12.4051 2.24536 10.5798C1.92277 8.75454 2.25266 6.87395 3.17725 5.26744C4.10184 3.66094 5.56217 2.43095 7.30246 1.79291C7.34659 1.77765 7.38574 1.75071 7.41577 1.71496C7.4458 1.67921 7.46558 1.63599 7.473 1.5899C7.47839 1.54998 7.47395 1.50935 7.46005 1.47154C7.44616 1.43373 7.42324 1.39989 7.39329 1.37295C7.36333 1.34602 7.32725 1.32682 7.28819 1.31701C7.24912 1.3072 7.20824 1.30709 7.16912 1.31668C5.23579 1.79418 3.51884 2.90715 2.29366 4.47709C1.06848 6.04702 0.406058 7.98295 0.412646 9.97436C0.424485 11.202 0.682127 12.4148 1.17037 13.5413C1.66924 14.6742 2.39696 15.6918 3.30784 16.53C4.21872 17.3683 5.29308 18.0092 6.46346 18.4125C7.6265 18.8073 8.85726 18.9634 10.082 18.8714C10.3278 18.8528 10.5717 18.8234 10.8136 18.7831L11.2423 19.8097C11.2597 19.8516 11.2879 19.8881 11.3239 19.9156C11.36 19.9431 11.4026 19.9606 11.4476 19.9664C11.4925 19.9722 11.5382 19.966 11.5801 19.9486C11.6219 19.9311 11.6584 19.9029 11.6859 19.8669L14.1482 16.639C14.1756 16.603 14.1932 16.5603 14.199 16.5154C14.2048 16.4704 14.1986 16.4247 14.1811 16.3829C14.1637 16.341 14.1355 16.3045 14.0995 16.277C14.0634 16.2495 14.0208 16.232 13.9758 16.2262Z" fill="#9E9E9E"/>
</svg>
