<svg width="19" height="19" viewBox="0 0 19 19" fill="none" xmlns="http://www.w3.org/2000/svg">
<path fill-rule="evenodd" clip-rule="evenodd" d="M15.2501 2.86875H17.0501C17.5275 2.86875 17.9853 3.05839 18.3229 3.39596C18.6605 3.73352 18.8501 4.19136 18.8501 4.66875V16.6688C18.8501 17.1461 18.6605 17.604 18.3229 17.9415C17.9853 18.2791 17.5275 18.4688 17.0501 18.4688H2.6501C2.17271 18.4688 1.71487 18.2791 1.37731 17.9415C1.03974 17.604 0.850098 17.1461 0.850098 16.6688L0.850098 4.66875C0.850098 4.19136 1.03974 3.73352 1.37731 3.39596C1.71487 3.05839 2.17271 2.86875 2.6501 2.86875H4.4501V0.46875H5.6501V2.86875H14.0501V0.46875H15.2501V2.86875ZM8.0501 10.0688H4.4501V8.86875H8.0501V10.0688ZM15.2501 8.86875H11.6501V10.0688H15.2501V8.86875ZM8.0501 13.6688H4.4501V12.4688H8.0501V13.6688ZM11.6501 13.6688H15.2501V12.4688H11.6501V13.6688Z" fill="#9E9E9E"/>
</svg>
