<svg width="66" height="71" viewBox="0 0 66 71" fill="none" xmlns="http://www.w3.org/2000/svg">
<path fill-rule="evenodd" clip-rule="evenodd" d="M49.2783 2.78294L49.2819 5.40662C59.2292 6.16224 65.8002 12.732 65.8109 22.8069L65.8501 52.2972C65.8643 63.2817 58.7443 70.0403 47.3316 70.0578L19.4541 70.0928C8.11275 70.1068 0.903602 63.1872 0.889341 52.1712L0.850122 23.0273C0.83586 12.8859 7.17506 6.33366 17.1224 5.4486L17.1188 2.82491C17.1153 1.28568 18.2918 0.127764 19.8606 0.127764C21.4293 0.124266 22.6059 1.27869 22.6095 2.81792L22.613 5.26669L43.7912 5.23871L43.7877 2.78993C43.7841 1.2507 44.9607 0.0962796 46.5294 0.0927814C48.0625 0.0892831 49.2747 1.24371 49.2783 2.78294ZM6.34433 24.1083L60.3238 24.0383V22.8139C60.1705 15.2927 56.2771 11.3467 49.289 10.7589L49.2926 13.4526C49.2926 14.9568 48.0839 16.1497 46.5508 16.1497C44.9821 16.1532 43.8019 14.9638 43.8019 13.4596L43.7984 10.626L22.6202 10.654L22.6237 13.4841C22.6237 14.9918 21.4507 16.1812 19.882 16.1812C18.3132 16.1847 17.1331 14.9988 17.1331 13.4911L17.1295 10.7974C10.1771 11.4726 6.33007 15.4326 6.34077 23.0203L6.34433 24.1083ZM45.0498 40.0078V40.0463C45.0855 41.6555 46.4403 42.8764 48.0839 42.8414C49.6883 42.8029 50.9683 41.4701 50.9326 39.8609C50.8578 38.3217 49.5707 37.0658 47.9698 37.0693C46.3298 37.1043 45.0462 38.3986 45.0498 40.0078ZM47.9948 55.715C46.3547 55.68 45.032 54.3541 45.0284 52.7449C44.9928 51.1357 46.3084 49.8029 47.9484 49.7644H47.9841C49.6598 49.7644 51.0182 51.0903 51.0182 52.7344C51.0218 54.3786 49.6669 55.7115 47.9948 55.715ZM30.3605 40.0638C30.4319 41.673 31.7903 42.9288 33.4303 42.8589C35.0347 42.7854 36.3147 41.4561 36.2434 39.8469C36.2042 38.2727 34.885 37.0483 33.2806 37.0518C31.6405 37.1218 30.357 38.4546 30.3605 40.0638ZM33.4446 55.5575C31.8045 55.6275 30.4497 54.3716 30.3748 52.7624C30.3748 51.1532 31.6548 49.8239 33.2948 49.7504C34.8992 49.7469 36.222 50.9713 36.2576 52.542C36.3325 54.1547 35.049 55.4841 33.4446 55.5575ZM15.6713 40.1862C15.7426 41.7954 17.101 43.0548 18.7411 42.9813C20.3455 42.9114 21.6254 41.5785 21.5506 39.9693C21.5149 38.3951 20.1957 37.1707 18.5878 37.1742C16.9477 37.2442 15.6677 38.577 15.6713 40.1862ZM18.7553 55.575C17.1153 55.6485 15.7604 54.3891 15.6856 52.7799C15.682 51.1707 16.9655 49.8379 18.6056 49.7679C20.21 49.7644 21.5327 50.9888 21.5684 52.563C21.6433 54.1722 20.3633 55.5051 18.7553 55.575Z" fill="white"/>
</svg>
