<svg width="17" height="17" viewBox="0 0 17 17" fill="none" xmlns="http://www.w3.org/2000/svg">
<path d="M13.021 2.79688H3.021C2.19257 2.79688 1.521 3.46845 1.521 4.29688V13.2969C1.521 14.1253 2.19257 14.7969 3.021 14.7969H13.021C13.8494 14.7969 14.521 14.1253 14.521 13.2969V4.29688C14.521 3.46845 13.8494 2.79688 13.021 2.79688Z" stroke="black" stroke-linejoin="round"/>
<path d="M9.271 8.29688C9.68521 8.29688 10.021 7.96109 10.021 7.54688C10.021 7.13266 9.68521 6.79688 9.271 6.79688C8.85678 6.79688 8.521 7.13266 8.521 7.54688C8.521 7.96109 8.85678 8.29688 9.271 8.29688Z" fill="black"/>
<path d="M11.771 8.29688C12.1852 8.29688 12.521 7.96109 12.521 7.54688C12.521 7.13266 12.1852 6.79688 11.771 6.79688C11.3568 6.79688 11.021 7.13266 11.021 7.54688C11.021 7.96109 11.3568 8.29688 11.771 8.29688Z" fill="black"/>
<path d="M9.271 10.7969C9.68521 10.7969 10.021 10.4611 10.021 10.0469C10.021 9.63266 9.68521 9.29688 9.271 9.29688C8.85678 9.29688 8.521 9.63266 8.521 10.0469C8.521 10.4611 8.85678 10.7969 9.271 10.7969Z" fill="black"/>
<path d="M11.771 10.7969C12.1852 10.7969 12.521 10.4611 12.521 10.0469C12.521 9.63266 12.1852 9.29688 11.771 9.29688C11.3568 9.29688 11.021 9.63266 11.021 10.0469C11.021 10.4611 11.3568 10.7969 11.771 10.7969Z" fill="black"/>
<path d="M4.271 10.7969C4.68521 10.7969 5.021 10.4611 5.021 10.0469C5.021 9.63266 4.68521 9.29688 4.271 9.29688C3.85678 9.29688 3.521 9.63266 3.521 10.0469C3.521 10.4611 3.85678 10.7969 4.271 10.7969Z" fill="black"/>
<path d="M6.771 10.7969C7.18521 10.7969 7.521 10.4611 7.521 10.0469C7.521 9.63266 7.18521 9.29688 6.771 9.29688C6.35678 9.29688 6.021 9.63266 6.021 10.0469C6.021 10.4611 6.35678 10.7969 6.771 10.7969Z" fill="black"/>
<path d="M4.271 13.2969C4.68521 13.2969 5.021 12.9611 5.021 12.5469C5.021 12.1327 4.68521 11.7969 4.271 11.7969C3.85678 11.7969 3.521 12.1327 3.521 12.5469C3.521 12.9611 3.85678 13.2969 4.271 13.2969Z" fill="black"/>
<path d="M6.771 13.2969C7.18521 13.2969 7.521 12.9611 7.521 12.5469C7.521 12.1327 7.18521 11.7969 6.771 11.7969C6.35678 11.7969 6.021 12.1327 6.021 12.5469C6.021 12.9611 6.35678 13.2969 6.771 13.2969Z" fill="black"/>
<path d="M9.271 13.2969C9.68521 13.2969 10.021 12.9611 10.021 12.5469C10.021 12.1327 9.68521 11.7969 9.271 11.7969C8.85678 11.7969 8.521 12.1327 8.521 12.5469C8.521 12.9611 8.85678 13.2969 9.271 13.2969Z" fill="black"/>
<path d="M4.021 1.79688V2.79688" stroke="black" stroke-linecap="round" stroke-linejoin="round"/>
<path d="M12.021 1.79688V2.79688" stroke="black" stroke-linecap="round" stroke-linejoin="round"/>
<path d="M14.521 5.29688H1.521" stroke="black" stroke-linejoin="round"/>
</svg>
