<svg width="30" height="32" viewBox="0 0 30 32" fill="none" xmlns="http://www.w3.org/2000/svg">
<path fill-rule="evenodd" clip-rule="evenodd" d="M21.834 1.23163L21.8356 2.41853C26.1971 2.76036 29.0782 5.73237 29.0829 10.2901L29.1001 23.6309C29.1063 28.6001 25.9845 31.6576 20.9805 31.6655L8.75725 31.6813C3.78449 31.6876 0.623564 28.5574 0.617311 23.5739L0.600115 10.3898C0.593862 5.80201 3.37335 2.83791 7.73488 2.43752L7.73331 1.25062C7.73175 0.554301 8.24763 0.0304797 8.93547 0.0304797C9.62331 0.0288971 10.1392 0.551136 10.1407 1.24745L10.1423 2.35523L19.4281 2.34257L19.4266 1.23479C19.425 0.538475 19.9409 0.0162368 20.6287 0.0146543C21.3009 0.0130717 21.8324 0.53531 21.834 1.23163ZM3.00912 10.8788L26.677 10.8471V10.2933C26.6098 6.8908 24.9027 5.10569 21.8387 4.83982L21.8403 6.05838C21.8403 6.73887 21.3103 7.27852 20.6381 7.27852C19.9503 7.2801 19.4328 6.74204 19.4328 6.06154L19.4313 4.77969L10.1454 4.79235L10.147 6.07262C10.147 6.7547 9.63269 7.29276 8.94485 7.29276C8.25701 7.29434 7.73957 6.75786 7.73957 6.07579L7.73801 4.85723C4.68963 5.16266 3.00286 6.9541 3.00755 10.3866L3.00912 10.8788ZM19.98 18.0714V18.0889C19.9956 18.8168 20.5896 19.3691 21.3103 19.3533C22.0138 19.3359 22.575 18.7329 22.5594 18.005C22.5265 17.3087 21.9622 16.7405 21.2603 16.7421C20.5412 16.7579 19.9784 17.3435 19.98 18.0714ZM21.2712 25.1771C20.5521 25.1612 19.9721 24.5614 19.9706 23.8335C19.955 23.1055 20.5318 22.5026 21.2509 22.4852H21.2665C22.0013 22.4852 22.5969 23.0849 22.5969 23.8287C22.5984 24.5725 22.0044 25.1755 21.2712 25.1771ZM13.5393 18.0968C13.5706 18.8247 14.1662 19.3929 14.8853 19.3612C15.5887 19.328 16.15 18.7266 16.1187 17.9986C16.1015 17.2865 15.5231 16.7326 14.8196 16.7342C14.1005 16.7659 13.5377 17.3688 13.5393 18.0968ZM14.8915 25.1058C14.1724 25.1375 13.5784 24.5694 13.5456 23.8414C13.5456 23.1134 14.1068 22.5121 14.8259 22.4788C15.5293 22.4772 16.1093 23.0311 16.1249 23.7417C16.1578 24.4712 15.595 25.0726 14.8915 25.1058ZM7.09863 18.1522C7.12989 18.8801 7.7255 19.4498 8.4446 19.4166C9.14807 19.385 9.70929 18.782 9.67646 18.054C9.66083 17.3419 9.08242 16.788 8.37738 16.7896C7.65828 16.8212 7.09706 17.4242 7.09863 18.1522ZM8.45086 25.1138C7.73175 25.147 7.13771 24.5773 7.10488 23.8493C7.10332 23.1213 7.6661 22.5184 8.3852 22.4867C9.08867 22.4852 9.66864 23.039 9.68428 23.7512C9.7171 24.4792 9.15589 25.0821 8.45086 25.1138Z" fill="#A381DB"/>
</svg>
