<svg width="23" height="18" viewBox="0 0 23 18" fill="none" xmlns="http://www.w3.org/2000/svg">
<path d="M22.5 7.4375C22.5 6.92969 22.0703 6.5 21.5625 6.5H18.9062L14.7266 0.796875C14.3359 0.210938 13.5547 0.09375 13.0078 0.523438C12.4219 0.914062 12.3047 1.69531 12.7344 2.24219L15.8203 6.5H6.64062L9.72656 2.24219C10.1562 1.69531 10.0391 0.914062 9.45312 0.523438C8.90625 0.09375 8.125 0.210938 7.73438 0.796875L3.55469 6.5H0.9375C0.390625 6.5 0 6.92969 0 7.4375V8.0625C0 8.60938 0.390625 9 0.9375 9H1.25L2.26562 16.1484C2.38281 17.0859 3.16406 17.75 4.10156 17.75H18.3594C19.2969 17.75 20.0781 17.0859 20.1953 16.1484L21.25 9H21.5625C22.0703 9 22.5 8.60938 22.5 8.0625V7.4375ZM12.1875 14.3125C12.1875 14.8594 11.7578 15.25 11.25 15.25C10.7031 15.25 10.3125 14.8594 10.3125 14.3125V9.9375C10.3125 9.42969 10.7031 9 11.25 9C11.7578 9 12.1875 9.42969 12.1875 9.9375V14.3125ZM16.5625 14.3125C16.5625 14.8594 16.1328 15.25 15.625 15.25C15.0781 15.25 14.6875 14.8594 14.6875 14.3125V9.9375C14.6875 9.42969 15.0781 9 15.625 9C16.1328 9 16.5625 9.42969 16.5625 9.9375V14.3125ZM7.8125 14.3125C7.8125 14.8594 7.38281 15.25 6.875 15.25C6.32812 15.25 5.9375 14.8594 5.9375 14.3125V9.9375C5.9375 9.42969 6.32812 9 6.875 9C7.38281 9 7.8125 9.42969 7.8125 9.9375V14.3125Z" fill="#222222"/>
</svg>
