<svg width="26" height="26" viewBox="0 0 26 26" fill="none" xmlns="http://www.w3.org/2000/svg">
<path d="M20.7231 6.43555H9.8833C8.34618 6.43555 7.1001 7.68163 7.1001 9.21875V20.0586C7.1001 21.5957 8.34618 22.8418 9.8833 22.8418H20.7231C22.2603 22.8418 23.5063 21.5957 23.5063 20.0586V9.21875C23.5063 7.68163 22.2603 6.43555 20.7231 6.43555Z" stroke="#9E9E9E" stroke-width="1.5" stroke-linejoin="round"/>
<path d="M19.5757 6.43555L19.6001 5.26367C19.598 4.5391 19.3093 3.8448 18.7969 3.33245C18.2846 2.82011 17.5903 2.53136 16.8657 2.5293H6.31885C5.4908 2.53174 4.69736 2.86177 4.11184 3.44729C3.52632 4.03281 3.1963 4.82625 3.19385 5.6543V16.2012C3.19591 16.9257 3.48466 17.62 3.997 18.1324C4.50935 18.6447 5.20366 18.9335 5.92822 18.9355H7.1001" stroke="#9E9E9E" stroke-width="1.5" stroke-linecap="round" stroke-linejoin="round"/>
</svg>
