<svg width="676" height="181" viewBox="0 0 676 181" fill="none" xmlns="http://www.w3.org/2000/svg">
<rect x="0.792358" y="0.382812" width="675" height="179.96" fill="#D1EEFF"/>
<mask id="mask0_746_1476" style="mask-type:alpha" maskUnits="userSpaceOnUse" x="0" y="0" width="676" height="181">
<rect x="0.792358" y="0.386719" width="675" height="179.96" fill="#B1E5F3"/>
</mask>
<g mask="url(#mask0_746_1476)">
<path opacity="0.3" d="M60.2471 158.486C60.212 158.869 60.0324 159.223 59.745 159.477C59.4576 159.731 59.0841 159.865 58.7011 159.852C58.318 159.839 57.9544 159.68 57.6847 159.407C57.415 159.135 57.2596 158.769 57.2504 158.385C57.2504 157.428 57.8699 156.956 58.7992 156.861C59.0025 156.868 59.2023 156.916 59.3865 157.002C59.5708 157.088 59.7356 157.211 59.8709 157.363C60.0063 157.515 60.1095 157.693 60.1741 157.886C60.2388 158.079 60.2636 158.283 60.2471 158.486V158.486ZM68.6178 149.875C68.6254 149.696 68.5958 149.517 68.5308 149.35C68.4658 149.183 68.3669 149.032 68.2403 148.905C68.1136 148.778 67.9621 148.679 67.7952 148.614C67.6284 148.549 67.4498 148.519 67.2709 148.527C66.9137 148.527 66.5711 148.669 66.3186 148.922C66.066 149.175 65.9241 149.518 65.9241 149.875C65.9241 150.233 66.066 150.576 66.3186 150.829C66.5711 151.082 66.9137 151.224 67.2709 151.224C67.4501 151.233 67.6291 151.204 67.7964 151.139C67.9638 151.074 68.1157 150.975 68.2426 150.848C68.3694 150.721 68.4683 150.569 68.5329 150.402C68.5975 150.234 68.6264 150.055 68.6178 149.875ZM42.7245 98.1012C42.7351 97.9235 42.707 97.7455 42.6424 97.5797C42.5778 97.4138 42.4781 97.2639 42.3501 97.1403C42.2221 97.0166 42.069 96.9222 41.9011 96.8634C41.7333 96.8046 41.5547 96.7829 41.3777 96.7998C41.2011 96.7872 41.024 96.8142 40.8591 96.8787C40.6943 96.9432 40.5459 97.0437 40.4246 97.1728C40.3034 97.302 40.2124 97.4565 40.1583 97.6253C40.1041 97.794 40.0882 97.9727 40.1117 98.1484C40.1027 98.314 40.129 98.4795 40.1886 98.6342C40.2483 98.7888 40.34 98.9291 40.4577 99.0457C40.5754 99.1623 40.7164 99.2526 40.8715 99.3106C41.0266 99.3687 41.1923 99.3931 41.3575 99.3824C41.5339 99.3998 41.7119 99.3792 41.8797 99.3222C42.0476 99.2652 42.2013 99.1729 42.3307 99.0517C42.4601 98.9304 42.5621 98.7829 42.6301 98.619C42.698 98.4551 42.7302 98.2786 42.7245 98.1012V98.1012ZM68.6178 158.406C68.6254 158.226 68.5958 158.048 68.5308 157.881C68.4658 157.713 68.3669 157.562 68.2403 157.435C68.1136 157.308 67.9621 157.209 67.7952 157.144C67.6284 157.079 67.4498 157.049 67.2709 157.057C66.9137 157.057 66.5711 157.199 66.3186 157.452C66.066 157.705 65.9241 158.048 65.9241 158.406C65.9241 158.763 66.066 159.106 66.3186 159.359C66.5711 159.612 66.9137 159.754 67.2709 159.754C67.4498 159.762 67.6284 159.732 67.7952 159.667C67.9621 159.602 68.1136 159.503 68.2403 159.376C68.3669 159.249 68.4658 159.098 68.5308 158.931C68.5958 158.763 68.6254 158.585 68.6178 158.406V158.406ZM31.5793 89.5508C31.5626 89.7275 31.5842 89.9057 31.6425 90.0732C31.7008 90.2408 31.7945 90.3938 31.9172 90.5218C32.0399 90.6498 32.1888 90.7498 32.3536 90.815C32.5184 90.8802 32.6954 90.909 32.8723 90.8995C33.2047 90.8968 33.5234 90.7667 33.7629 90.5359C34.0025 90.3052 34.1446 89.9913 34.1601 89.6589C34.1756 89.3264 34.0634 89.0006 33.8464 88.7485C33.6294 88.4964 33.3242 88.3371 32.9935 88.3033C32.8166 88.2803 32.6367 88.2954 32.4661 88.3475C32.2954 88.3997 32.1378 88.4879 32.0039 88.606C31.87 88.7241 31.7629 88.8695 31.6896 89.0324C31.6164 89.1954 31.5788 89.3721 31.5793 89.5508V89.5508ZM17.1748 81.1084C17.1276 80.2587 16.7101 79.7597 15.8683 79.7597C15.708 79.7478 15.547 79.7687 15.3951 79.8214C15.2432 79.874 15.1037 79.9572 14.9851 80.0659C14.8666 80.1745 14.7714 80.3063 14.7056 80.4531C14.6397 80.5999 14.6046 80.7586 14.6023 80.9196C14.5701 81.0954 14.5776 81.2761 14.6241 81.4487C14.6706 81.6213 14.7551 81.7812 14.8712 81.9169C14.9874 82.0526 15.1324 82.1607 15.2956 82.2331C15.4587 82.3055 15.636 82.3406 15.8144 82.3356C15.9861 82.3536 16.1597 82.3352 16.3238 82.2817C16.488 82.2282 16.6391 82.1408 16.7673 82.0251C16.8956 81.9094 16.9981 81.768 17.0683 81.6101C17.1385 81.4521 17.1748 81.2812 17.1748 81.1084V81.1084ZM7.07337 79.6856C6.90022 79.6783 6.72739 79.706 6.56514 79.767C6.40289 79.828 6.25454 79.921 6.1289 80.0405C6.00326 80.16 5.90289 80.3036 5.83377 80.4627C5.76465 80.6218 5.72817 80.7932 5.72652 80.9668C5.70322 81.1448 5.71858 81.3257 5.77153 81.4972C5.82449 81.6688 5.91379 81.8269 6.03335 81.9607C6.1529 82.0945 6.29989 82.2008 6.46428 82.2725C6.62866 82.3442 6.80656 82.3795 6.98582 82.3761C7.16401 82.4018 7.34565 82.3881 7.51797 82.3359C7.6903 82.2838 7.84913 82.1945 7.98329 82.0743C8.11745 81.9541 8.22368 81.806 8.29451 81.6402C8.36534 81.4745 8.39906 81.2953 8.39329 81.1151C8.41236 80.933 8.39263 80.7488 8.33539 80.5749C8.27815 80.401 8.1847 80.2412 8.06123 80.1061C7.93775 79.9709 7.78706 79.8636 7.61909 79.7911C7.45113 79.7186 7.26972 79.6826 7.08684 79.6856H7.07337ZM58.705 125.337C59.5737 125.249 60.0518 124.797 60.0518 123.988C60.0518 123.631 59.9099 123.288 59.6573 123.035C59.4047 122.782 59.0622 122.64 58.705 122.64C58.3477 122.64 58.0052 122.782 57.7526 123.035C57.5 123.288 57.3581 123.631 57.3581 123.988C57.3493 124.169 57.3785 124.349 57.444 124.518C57.5094 124.686 57.6095 124.839 57.7378 124.966C57.8662 125.094 58.0198 125.192 58.1887 125.256C58.3577 125.32 58.5382 125.348 58.7184 125.337H58.705ZM67.3046 140.024C67.1288 140.007 66.9514 140.028 66.7846 140.086C66.6177 140.144 66.4653 140.238 66.3376 140.36C66.2098 140.482 66.1098 140.63 66.0443 140.794C65.9788 140.958 65.9493 141.135 65.9578 141.312C65.9489 141.482 65.9736 141.652 66.0304 141.812C66.0872 141.973 66.175 142.12 66.2888 142.247C66.4027 142.373 66.5402 142.476 66.6937 142.549C66.8472 142.623 67.0136 142.665 67.1834 142.674C67.3532 142.683 67.5231 142.658 67.6833 142.601C67.8436 142.544 67.9911 142.456 68.1174 142.342C68.2437 142.228 68.3464 142.09 68.4195 141.937C68.4927 141.783 68.5349 141.616 68.5437 141.446C68.5676 141.27 68.5538 141.091 68.5034 140.921C68.4529 140.751 68.3669 140.593 68.251 140.459C68.1351 140.324 67.992 140.216 67.8312 140.141C67.6704 140.066 67.4955 140.026 67.3181 140.024H67.3046ZM51.533 106.982C51.5497 106.805 51.5282 106.627 51.4699 106.46C51.4115 106.292 51.3178 106.139 51.1951 106.011C51.0724 105.883 50.9235 105.783 50.7587 105.718C50.5939 105.653 50.4169 105.624 50.24 105.633C49.8971 105.617 49.5618 105.738 49.308 105.97C49.0541 106.201 48.9025 106.524 48.8864 106.867C48.8703 107.211 48.9911 107.546 49.2222 107.801C49.4534 108.055 49.7759 108.207 50.1188 108.223C50.2964 108.249 50.4776 108.236 50.6499 108.186C50.8222 108.136 50.9816 108.049 51.1172 107.931C51.2528 107.813 51.3614 107.667 51.4354 107.503C51.5095 107.34 51.5474 107.162 51.5464 106.982H51.533ZM24.3737 73.6234C24.6517 73.624 24.9195 73.5182 25.1222 73.3277C25.325 73.1372 25.4475 72.8763 25.4646 72.5985C25.4765 72.4482 25.4571 72.2972 25.4078 72.1548C25.3585 72.0125 25.2803 71.8818 25.1782 71.7712C25.076 71.6605 24.9521 71.5723 24.8143 71.5119C24.6764 71.4515 24.5275 71.4203 24.3771 71.4203C24.2266 71.4203 24.0777 71.4515 23.9398 71.5119C23.802 71.5723 23.6781 71.6605 23.5759 71.7712C23.4738 71.8818 23.3956 72.0125 23.3463 72.1548C23.297 72.2972 23.2777 72.4482 23.2895 72.5985C23.3066 72.8752 23.4281 73.135 23.6294 73.3254C23.8307 73.5157 24.0968 73.6223 24.3737 73.6234V73.6234ZM15.8346 71.3442C15.528 71.3548 15.2375 71.4846 15.025 71.7063C14.8124 71.9279 14.6946 72.2238 14.6966 72.531C14.6841 72.6837 14.7041 72.8372 14.7551 72.9816C14.8061 73.126 14.8871 73.2579 14.9927 73.3687C15.0983 73.4795 15.2261 73.5667 15.3677 73.6246C15.5093 73.6824 15.6616 73.7096 15.8144 73.7043C15.9793 73.7229 16.1462 73.7038 16.3027 73.6485C16.4591 73.5932 16.601 73.5031 16.7177 73.385C16.8344 73.2669 16.9228 73.1238 16.9763 72.9666C17.0298 72.8093 17.047 72.642 17.0266 72.4771C17.0161 72.1694 16.8852 71.8783 16.6622 71.6663C16.4392 71.4544 16.142 71.3387 15.8346 71.3442V71.3442ZM7.0801 73.7718C7.86128 73.6032 8.32594 73.1784 8.23166 72.4231C8.22939 72.2662 8.19377 72.1115 8.12716 71.9694C8.06056 71.8272 7.9645 71.701 7.84537 71.5989C7.72624 71.4968 7.58677 71.4213 7.43625 71.3774C7.28572 71.3335 7.12759 71.3222 6.97236 71.3442C6.80396 71.3409 6.63697 71.3755 6.48371 71.4454C6.33045 71.5154 6.19484 71.6189 6.08689 71.7484C5.97893 71.8778 5.9014 72.0299 5.86001 72.1934C5.81861 72.3568 5.81442 72.5276 5.84773 72.6929C5.88595 72.9889 6.03238 73.2603 6.25874 73.4546C6.4851 73.6489 6.77533 73.7523 7.07337 73.7448L7.0801 73.7718ZM76.2073 174.582C75.4531 174.643 74.9749 175.007 74.9278 175.688C74.9207 175.841 74.9438 175.995 74.9959 176.139C75.0479 176.283 75.1277 176.416 75.2309 176.529C75.3341 176.642 75.4586 176.734 75.5972 176.799C75.7359 176.865 75.886 176.902 76.0389 176.909C76.1919 176.916 76.3448 176.893 76.4889 176.841C76.6329 176.789 76.7653 176.709 76.8785 176.605C76.9917 176.502 77.0835 176.377 77.1485 176.239C77.2136 176.1 77.2508 175.949 77.2578 175.796C77.2685 175.494 77.1659 175.2 76.9702 174.97C76.7744 174.74 76.4998 174.592 76.2006 174.555L76.2073 174.582ZM77.2982 158.331C77.1568 157.603 76.7393 157.131 75.9514 157.212C75.7971 157.216 75.6454 157.251 75.5058 157.317C75.3662 157.383 75.242 157.478 75.1411 157.595C75.0403 157.711 74.965 157.848 74.9201 157.996C74.8752 158.144 74.8618 158.299 74.8807 158.453C74.8739 158.623 74.9061 158.792 74.9746 158.948C75.0432 159.104 75.1463 159.242 75.2762 159.352C75.406 159.462 75.5592 159.541 75.7241 159.582C75.8889 159.624 76.0611 159.627 76.2275 159.592C76.5362 159.567 76.8221 159.419 77.0228 159.183C77.2234 158.947 77.3225 158.641 77.2982 158.331V158.331ZM76.0928 185.452C76.7662 185.331 77.2511 184.947 77.2107 184.239C77.2107 183.938 77.0915 183.65 76.8793 183.438C76.6672 183.225 76.3794 183.106 76.0794 183.106C75.7793 183.106 75.4915 183.225 75.2794 183.438C75.0672 183.65 74.948 183.938 74.948 184.239C74.9413 184.967 75.4059 185.338 76.0928 185.446V185.452ZM76.0322 168.446C76.7864 168.379 77.278 167.994 77.278 167.212C77.2879 167.047 77.2636 166.882 77.2069 166.727C77.1501 166.572 77.062 166.431 76.9481 166.311C76.8342 166.192 76.697 166.098 76.545 166.034C76.393 165.97 76.2294 165.938 76.0646 165.941C75.8998 165.943 75.7372 165.979 75.587 166.047C75.4368 166.115 75.3023 166.214 75.1918 166.336C75.0814 166.459 74.9973 166.603 74.9449 166.759C74.8925 166.916 74.8729 167.081 74.8874 167.246C74.8874 167.954 75.3453 168.325 76.0322 168.446ZM34.0845 81.0612C34.0899 80.754 33.9742 80.4572 33.7624 80.235C33.5506 80.0128 33.2598 79.8832 32.9531 79.8744C32.7884 79.8549 32.6213 79.873 32.4646 79.9275C32.3079 79.9819 32.1655 80.0712 32.0482 80.1887C31.9308 80.3062 31.8416 80.4487 31.7873 80.6057C31.7329 80.7627 31.7148 80.9299 31.7342 81.0949C31.7288 81.2483 31.756 81.4011 31.8143 81.5431C31.8725 81.6852 31.9603 81.8131 32.0719 81.9184C32.1834 82.0237 32.3161 82.104 32.4611 82.1538C32.6061 82.2037 32.7601 82.222 32.9127 82.2075C33.2189 82.2076 33.5129 82.0877 33.7319 81.8734C33.9509 81.6592 34.0775 81.3677 34.0845 81.0612ZM24.4276 82.2817C24.5907 82.2805 24.7518 82.2454 24.9007 82.1787C25.0496 82.1119 25.183 82.0149 25.2925 81.8939C25.402 81.7728 25.4852 81.6303 25.5369 81.4753C25.5885 81.3204 25.6075 81.1564 25.5926 80.9937C25.602 80.8298 25.5751 80.6658 25.5138 80.5135C25.4525 80.3612 25.3582 80.2244 25.2379 80.1129C25.1175 80.0014 24.9739 79.9179 24.8175 79.8685C24.6612 79.8191 24.4958 79.805 24.3333 79.8272C24.1693 79.8179 24.0053 79.8449 23.853 79.9063C23.7006 79.9676 23.5637 80.0619 23.4518 80.1822C23.3399 80.3026 23.2559 80.4462 23.2058 80.6028C23.1556 80.7593 23.1405 80.9251 23.1615 81.0881C23.1592 81.2519 23.1909 81.4144 23.2547 81.5652C23.3185 81.716 23.413 81.8518 23.5321 81.9641C23.6511 82.0763 23.7923 82.1626 23.9464 82.2172C24.1006 82.2719 24.2645 82.2939 24.4276 82.2817V82.2817ZM58.8127 108.149C58.9774 108.141 59.1387 108.099 59.2864 108.025C59.4341 107.952 59.5649 107.848 59.6706 107.721C59.7763 107.595 59.8546 107.447 59.9005 107.289C59.9464 107.13 59.9589 106.964 59.9373 106.8C59.921 106.644 59.874 106.492 59.7992 106.354C59.7243 106.216 59.623 106.094 59.5011 105.995C59.3792 105.896 59.239 105.822 59.0885 105.777C58.938 105.733 58.7802 105.718 58.6241 105.734C58.4681 105.751 58.3167 105.798 58.1788 105.873C58.0408 105.948 57.919 106.049 57.8202 106.171C57.6206 106.418 57.5271 106.734 57.5601 107.049C57.5809 107.361 57.7244 107.652 57.9593 107.858C58.1942 108.065 58.5011 108.169 58.8127 108.149V108.149ZM67.2844 131.554C67.121 131.542 66.9569 131.564 66.8026 131.619C66.6483 131.674 66.5073 131.761 66.3886 131.874C66.2699 131.987 66.1763 132.124 66.1136 132.276C66.051 132.427 66.0209 132.59 66.0251 132.754C65.9978 132.931 66.0123 133.112 66.0676 133.281C66.1228 133.451 66.2171 133.606 66.3429 133.733C66.4688 133.859 66.6226 133.954 66.792 134.011C66.9614 134.067 67.1416 134.082 67.3181 134.056C67.4806 134.062 67.6425 134.033 67.7927 133.97C67.9428 133.907 68.0776 133.813 68.1877 133.693C68.2978 133.573 68.3806 133.431 68.4305 133.276C68.4803 133.121 68.496 132.957 68.4764 132.795C68.4847 132.634 68.4599 132.473 68.4035 132.321C68.3472 132.17 68.2605 132.032 68.1488 131.916C68.037 131.8 67.9027 131.708 67.754 131.645C67.6054 131.583 67.4455 131.552 67.2844 131.554V131.554ZM74.9211 132.754C74.9166 132.907 74.9423 133.06 74.9969 133.202C75.0514 133.345 75.1336 133.476 75.2387 133.587C75.3439 133.698 75.4699 133.787 75.6096 133.849C75.7492 133.911 75.8997 133.944 76.0524 133.948C76.3525 133.966 76.6473 133.864 76.8721 133.664C77.0969 133.464 77.2332 133.183 77.2511 132.883C77.269 132.582 77.1669 132.287 76.9674 132.062C76.7678 131.837 76.4871 131.7 76.1871 131.682C75.4867 131.601 75.0827 132.067 74.9211 132.754V132.754ZM76.1198 151.062C76.7932 150.941 77.2646 150.563 77.2444 149.869C77.2346 149.559 77.1024 149.266 76.877 149.055C76.6515 148.843 76.3513 148.729 76.0423 148.739C75.7333 148.749 75.4409 148.881 75.2294 149.107C75.0178 149.333 74.9045 149.633 74.9143 149.943C74.9317 150.249 75.0669 150.537 75.2917 150.746C75.5165 150.955 75.8133 151.068 76.1198 151.062V151.062ZM50.2198 96.8739C49.479 96.9818 49.0009 97.3797 49.0413 98.1686C49.0369 98.3226 49.0651 98.4758 49.124 98.6181C49.183 98.7605 49.2713 98.8887 49.3833 98.9944C49.4952 99.1001 49.6282 99.1809 49.7735 99.2315C49.9189 99.2821 50.0732 99.3014 50.2265 99.288C50.3927 99.3015 50.5597 99.2776 50.7154 99.2181C50.8711 99.1586 51.0116 99.0649 51.1265 98.9441C51.2414 98.8232 51.3279 98.6781 51.3796 98.5194C51.4313 98.3607 51.4468 98.1925 51.4252 98.027C51.4147 97.7152 51.2826 97.4199 51.0573 97.2044C50.832 96.9889 50.5314 96.8702 50.2198 96.8739V96.8739ZM58.7723 99.2071C58.9231 99.2032 59.0715 99.1682 59.2083 99.1043C59.345 99.0404 59.4671 98.949 59.5669 98.8357C59.6668 98.7224 59.7422 98.5897 59.7886 98.446C59.8349 98.3022 59.8512 98.1504 59.8363 98.0001C59.8113 97.7112 59.6727 97.4442 59.4511 97.2576C59.2295 97.0711 58.9429 96.9804 58.6544 97.0054C58.366 97.0305 58.0993 97.1692 57.913 97.3911C57.7267 97.6131 57.6361 97.9 57.6611 98.1889C57.6817 98.4685 57.8082 98.7296 58.0148 98.9189C58.2213 99.1082 58.4923 99.2113 58.7723 99.2071V99.2071ZM68.436 115.485C68.2878 114.737 67.8972 114.271 67.1901 114.325C66.8901 114.334 66.6059 114.462 66.4 114.681C66.1941 114.9 66.0835 115.191 66.0924 115.492C66.1014 115.792 66.2291 116.077 66.4476 116.283C66.6661 116.489 66.9574 116.6 67.2575 116.591C67.5567 116.588 67.844 116.473 68.0623 116.268C68.2806 116.064 68.414 115.784 68.436 115.485V115.485ZM58.7252 116.726C59.5467 116.618 60.0047 116.22 59.9845 115.445C59.972 115.116 59.8294 114.805 59.5882 114.581C59.347 114.357 59.0269 114.239 58.6982 114.251C58.3696 114.264 58.0594 114.406 57.8358 114.648C57.6123 114.889 57.4938 115.21 57.5063 115.539C57.5071 115.698 57.5395 115.854 57.6014 116C57.6634 116.146 57.7538 116.278 57.8672 116.388C57.9807 116.499 58.115 116.586 58.2623 116.644C58.4096 116.701 58.5669 116.729 58.7252 116.726V116.726ZM41.4518 88.3438C40.6975 88.4247 40.2059 88.8091 40.2194 89.5913C40.2099 89.7456 40.2328 89.9001 40.2866 90.045C40.3404 90.1899 40.4239 90.3218 40.5317 90.4324C40.6396 90.5429 40.7694 90.6296 40.9128 90.6868C41.0562 90.7441 41.21 90.7706 41.3642 90.7646C41.5292 90.7833 41.6962 90.765 41.8532 90.711C42.0101 90.6571 42.1531 90.5687 42.2718 90.4525C42.3904 90.3363 42.4817 90.1951 42.5391 90.0391C42.5964 89.8831 42.6184 89.7164 42.6033 89.5508C42.6069 89.3959 42.58 89.2417 42.524 89.0971C42.4681 88.9526 42.3842 88.8205 42.2773 88.7084C42.1704 88.5963 42.0424 88.5064 41.9008 88.4439C41.7591 88.3813 41.6065 88.3473 41.4518 88.3438V88.3438ZM51.3444 89.5845C51.2434 88.9102 50.8595 88.445 50.1592 88.4787C50.021 88.4785 49.8842 88.5065 49.7572 88.561C49.6302 88.6155 49.5156 88.6954 49.4204 88.7957C49.3252 88.896 49.2515 89.0148 49.2037 89.1446C49.1559 89.2744 49.135 89.4127 49.1423 89.5508C49.1314 89.703 49.1542 89.8556 49.2089 89.998C49.2636 90.1403 49.349 90.2688 49.4589 90.3744C49.5688 90.48 49.7006 90.56 49.8449 90.6088C49.9892 90.6576 50.1425 90.674 50.2939 90.6567C50.5721 90.6448 50.8355 90.5274 51.0306 90.3284C51.2256 90.1293 51.3378 89.8634 51.3444 89.5845ZM68.4764 123.941C68.4741 123.773 68.4362 123.607 68.3651 123.455C68.294 123.302 68.1914 123.167 68.0641 123.057C67.9367 122.947 67.7875 122.866 67.6264 122.819C67.4653 122.771 67.2959 122.758 67.1295 122.781C66.9758 122.781 66.8237 122.812 66.683 122.874C66.5423 122.936 66.4161 123.027 66.3126 123.14C66.2091 123.254 66.1307 123.388 66.0823 123.534C66.0339 123.681 66.0167 123.835 66.0318 123.988C66.021 124.155 66.0475 124.322 66.1095 124.477C66.1715 124.632 66.2673 124.771 66.39 124.884C66.5127 124.998 66.6591 125.082 66.8185 125.131C66.978 125.18 67.1463 125.193 67.3113 125.168C67.4687 125.166 67.624 125.132 67.7682 125.068C67.9123 125.005 68.0424 124.914 68.1509 124.799C68.2593 124.685 68.344 124.55 68.3999 124.403C68.4557 124.256 68.4818 124.099 68.4764 123.941V123.941ZM77.2309 141.264C77.0895 140.59 76.7124 140.131 76.012 140.172C75.8542 140.173 75.6983 140.207 75.5538 140.27C75.4092 140.334 75.2791 140.426 75.1713 140.541C75.0634 140.657 74.9802 140.793 74.9265 140.942C74.8728 141.09 74.8498 141.248 74.8589 141.406C74.8681 141.564 74.9091 141.718 74.9796 141.859C75.0501 142.001 75.1485 142.126 75.269 142.229C75.3894 142.331 75.5293 142.407 75.6802 142.454C75.831 142.5 75.9898 142.515 76.1467 142.498C76.3012 142.492 76.453 142.456 76.5933 142.391C76.7336 142.326 76.8597 142.233 76.9642 142.119C77.0688 142.005 77.1497 141.871 77.2024 141.726C77.2551 141.58 77.2785 141.426 77.2713 141.271L77.2309 141.264ZM42.3138 72.5243C42.2464 71.9579 41.9434 71.6005 41.3575 71.6275C41.2444 71.6243 41.1319 71.645 41.0273 71.6881C40.9226 71.7312 40.8282 71.7959 40.7501 71.8779C40.672 71.9599 40.612 72.0574 40.574 72.1641C40.5359 72.2708 40.5207 72.3843 40.5292 72.4973C40.5168 72.622 40.5329 72.7478 40.5761 72.8654C40.6193 72.983 40.6885 73.0892 40.7786 73.1762C40.8687 73.2631 40.9772 73.3285 41.0962 73.3675C41.2151 73.4064 41.3413 73.4178 41.4652 73.4009C41.6927 73.3939 41.9085 73.2985 42.0669 73.1348C42.2253 72.9712 42.3139 72.7522 42.3138 72.5243V72.5243ZM32.8858 73.4751C33.0107 73.4839 33.1361 73.466 33.2535 73.4225C33.371 73.379 33.4779 73.311 33.5671 73.223C33.6563 73.135 33.7257 73.029 33.7708 72.912C33.8159 72.795 33.8356 72.6697 33.8286 72.5445C33.8492 72.4053 33.8358 72.2631 33.7895 72.1303C33.7432 71.9974 33.6654 71.8777 33.5628 71.7815C33.4601 71.6854 33.3357 71.6156 33.2002 71.5782C33.0647 71.5408 32.9221 71.5369 32.7848 71.5667C32.6591 71.5632 32.5341 71.5874 32.4188 71.6378C32.3035 71.6881 32.2007 71.7633 32.1178 71.8579C32.0348 71.9526 31.9737 72.0644 31.9388 72.1854C31.904 72.3064 31.8962 72.4336 31.9161 72.558C31.9115 72.6855 31.9343 72.8125 31.9831 72.9304C32.0318 73.0484 32.1053 73.1544 32.1985 73.2414C32.2918 73.3283 32.4026 73.3942 32.5235 73.4345C32.6444 73.4749 32.7726 73.4887 32.8993 73.4751H32.8858ZM76.1332 122.977C75.379 123.038 75.0423 123.415 75.0827 124.076C75.0818 124.203 75.108 124.33 75.1596 124.446C75.2111 124.563 75.2869 124.667 75.3819 124.752C75.4768 124.836 75.5887 124.9 75.7102 124.938C75.8316 124.976 75.9597 124.988 76.0861 124.973C76.354 124.979 76.6134 124.879 76.8073 124.693C77.0011 124.508 77.1135 124.253 77.1198 123.985C77.126 123.717 77.0256 123.457 76.8406 123.263C76.6556 123.069 76.4011 122.956 76.1332 122.95V122.977ZM84.6184 123.112C84.3932 123.108 84.1755 123.193 84.0118 123.348C83.8482 123.503 83.7517 123.716 83.7429 123.941C83.7502 124.155 83.8377 124.358 83.988 124.51C84.1383 124.662 84.3404 124.752 84.5538 124.761C84.7673 124.771 84.9764 124.699 85.1394 124.561C85.3024 124.422 85.4074 124.228 85.4332 124.015C85.4736 123.496 85.1302 123.22 84.6386 123.112H84.6184ZM83.6554 141.406C83.6571 141.534 83.6868 141.66 83.7422 141.775C83.7977 141.89 83.8776 141.992 83.9764 142.073C84.0752 142.153 84.1905 142.212 84.3142 142.243C84.4379 142.275 84.567 142.279 84.6925 142.256C84.8199 142.252 84.945 142.221 85.0584 142.162C85.1718 142.104 85.2707 142.021 85.3477 141.919C85.4247 141.818 85.4778 141.7 85.5031 141.575C85.5284 141.45 85.5252 141.321 85.4938 141.197C85.4874 141.083 85.4575 140.971 85.4061 140.869C85.3547 140.768 85.2827 140.677 85.1949 140.605C85.107 140.532 85.005 140.478 84.8954 140.446C84.7858 140.415 84.6708 140.406 84.5578 140.421C84.432 140.419 84.3071 140.443 84.1916 140.493C84.0761 140.542 83.9726 140.617 83.8882 140.71C83.8039 140.803 83.7406 140.914 83.7028 141.034C83.6649 141.154 83.6533 141.281 83.6689 141.406H83.6554ZM84.5174 174.798C84.3884 174.806 84.2623 174.841 84.1469 174.899C84.0315 174.957 83.9291 175.039 83.8459 175.138C83.7628 175.237 83.7005 175.352 83.663 175.476C83.6254 175.6 83.6133 175.73 83.6275 175.858C83.6416 175.987 83.6816 176.112 83.7452 176.224C83.8087 176.337 83.8944 176.436 83.9971 176.514C84.0998 176.593 84.2173 176.65 84.3426 176.682C84.468 176.714 84.5984 176.72 84.7261 176.7C84.8521 176.694 84.9753 176.66 85.0871 176.602C85.1989 176.544 85.2967 176.461 85.3736 176.361C85.4505 176.261 85.5047 176.145 85.5324 176.022C85.5602 175.899 85.5608 175.771 85.5343 175.648C85.5307 175.524 85.5011 175.402 85.4473 175.29C85.3935 175.178 85.3167 175.079 85.2221 174.999C85.1274 174.918 85.0169 174.859 84.8978 174.825C84.7787 174.79 84.6537 174.781 84.5308 174.798H84.5174ZM84.6251 131.905C84.5016 131.898 84.378 131.917 84.2625 131.962C84.1469 132.006 84.0421 132.075 83.955 132.162C83.8678 132.25 83.8002 132.356 83.7567 132.472C83.7132 132.588 83.6947 132.712 83.7025 132.835C83.695 132.948 83.711 133.061 83.7495 133.166C83.788 133.272 83.8482 133.369 83.9261 133.45C84.0041 133.532 84.0982 133.596 84.2023 133.638C84.3064 133.681 84.4183 133.702 84.5308 133.698C84.6553 133.717 84.7823 133.706 84.9021 133.668C85.0219 133.629 85.1313 133.564 85.2222 133.477C85.3131 133.39 85.3829 133.283 85.4265 133.165C85.4701 133.047 85.4862 132.92 85.4736 132.795C85.4871 132.276 85.1504 132.033 84.6386 131.905H84.6251ZM8.0431 63.684C7.9825 63.0097 7.65252 62.6927 7.0599 62.6927C6.92606 62.6956 6.79419 62.7257 6.67227 62.7811C6.55036 62.8364 6.44093 62.916 6.35061 63.015C6.26029 63.1139 6.19095 63.2302 6.14678 63.3567C6.10262 63.4833 6.08455 63.6175 6.09367 63.7513C6.10279 63.885 6.1389 64.0155 6.19983 64.1349C6.26076 64.2542 6.34523 64.36 6.44814 64.4457C6.55105 64.5315 6.67027 64.5954 6.79857 64.6337C6.92687 64.672 7.06159 64.6838 7.19459 64.6685C7.31529 64.6608 7.43326 64.6291 7.54158 64.5753C7.6499 64.5214 7.74639 64.4464 7.82541 64.3547C7.90443 64.263 7.96439 64.1565 8.00177 64.0413C8.03915 63.9262 8.0532 63.8047 8.0431 63.684ZM16.7976 63.7581C16.7505 63.0838 16.4407 62.7467 15.8346 62.7669C15.5917 62.7669 15.3588 62.8635 15.187 63.0355C15.0153 63.2075 14.9188 63.4408 14.9188 63.684C14.9188 63.9272 15.0153 64.1604 15.187 64.3324C15.3588 64.5044 15.5917 64.601 15.8346 64.601C15.954 64.6131 16.0745 64.6005 16.1887 64.564C16.303 64.5275 16.4085 64.4679 16.4988 64.3889C16.5891 64.3098 16.6623 64.2131 16.7137 64.1046C16.7651 63.9961 16.7936 63.8782 16.7976 63.7581V63.7581ZM24.3872 62.7736C24.2631 62.7712 24.1398 62.7951 24.0256 62.8436C23.9113 62.8921 23.8085 62.9642 23.724 63.0552C23.6394 63.1462 23.575 63.2541 23.535 63.3717C23.4949 63.4894 23.4801 63.6142 23.4915 63.7379C23.4845 63.8537 23.5023 63.9696 23.5436 64.0779C23.5849 64.1862 23.6487 64.2845 23.7309 64.3662C23.8131 64.4479 23.9118 64.5111 24.0203 64.5516C24.1288 64.5921 24.2447 64.6089 24.3602 64.601C24.4854 64.6136 24.6117 64.5975 24.7297 64.5538C24.8477 64.5102 24.9543 64.4403 25.0412 64.3493C25.1282 64.2583 25.1933 64.1487 25.2317 64.0287C25.27 63.9088 25.2806 63.7817 25.2626 63.657C25.2424 63.1108 24.899 62.8478 24.3872 62.7736V62.7736ZM85.5612 167.293C85.5006 166.619 85.1841 166.295 84.5915 166.302C84.4531 166.289 84.3136 166.308 84.1844 166.36C84.0553 166.411 83.9402 166.493 83.8488 166.597C83.7573 166.702 83.692 166.827 83.6584 166.962C83.6248 167.097 83.6238 167.238 83.6554 167.374C83.6569 167.5 83.6861 167.624 83.7409 167.737C83.7957 167.85 83.8748 167.95 83.9726 168.029C84.0703 168.109 84.1843 168.165 84.3064 168.195C84.4285 168.225 84.5557 168.228 84.679 168.203C84.8001 168.206 84.9203 168.182 85.032 168.135C85.1436 168.088 85.2442 168.019 85.3273 167.93C85.4104 167.842 85.4741 167.737 85.5144 167.623C85.5547 167.509 85.5706 167.387 85.5612 167.266V167.293ZM85.5612 158.412C85.5693 158.286 85.5502 158.159 85.5052 158.041C85.4601 157.923 85.3902 157.815 85.3001 157.727C85.2101 157.638 85.102 157.569 84.9832 157.526C84.8644 157.482 84.7377 157.465 84.6117 157.475C84.4742 157.458 84.3346 157.474 84.2046 157.522C84.0746 157.57 83.9579 157.648 83.8644 157.751C83.7708 157.853 83.703 157.976 83.6666 158.11C83.6303 158.244 83.6264 158.384 83.6554 158.52C83.6577 158.642 83.6861 158.761 83.7386 158.871C83.7911 158.981 83.8665 159.078 83.9597 159.156C84.0529 159.234 84.1617 159.291 84.2789 159.323C84.396 159.355 84.5187 159.362 84.6386 159.343C84.7646 159.35 84.8907 159.33 85.0082 159.284C85.1258 159.238 85.232 159.167 85.3196 159.076C85.4073 158.985 85.4742 158.877 85.5159 158.757C85.5576 158.638 85.5731 158.511 85.5612 158.385V158.412ZM84.6723 183.362C83.9988 183.423 83.6554 183.74 83.6823 184.347C83.6763 184.474 83.699 184.601 83.7488 184.719C83.7986 184.836 83.8742 184.941 83.9699 185.025C84.0657 185.109 84.1791 185.171 84.3019 185.205C84.4246 185.239 84.5535 185.246 84.679 185.223C84.7939 185.224 84.9078 185.202 85.0136 185.157C85.1194 185.112 85.2148 185.046 85.2938 184.962C85.3728 184.878 85.4338 184.779 85.4728 184.671C85.5119 184.563 85.5282 184.448 85.5208 184.333C85.5358 184.211 85.5253 184.087 85.4899 183.97C85.4545 183.852 85.3949 183.743 85.3151 183.65C85.2352 183.557 85.1368 183.481 85.0261 183.428C84.9154 183.375 84.7949 183.346 84.6723 183.342V183.362ZM67.3315 98.9913C67.455 98.9838 67.5756 98.9501 67.6851 98.8925C67.7947 98.835 67.8908 98.7548 67.9672 98.6573C68.0435 98.5598 68.0984 98.4472 68.1281 98.327C68.1578 98.2067 68.1618 98.0815 68.1397 97.9596C68.1324 97.8473 68.1021 97.7376 68.0505 97.6376C67.9989 97.5376 67.9273 97.4493 67.84 97.3784C67.7527 97.3075 67.6517 97.2554 67.5433 97.2255C67.435 97.1955 67.3216 97.1883 67.2103 97.2044C67.0848 97.2026 66.9605 97.2291 66.8467 97.2821C66.7328 97.3351 66.6324 97.413 66.5528 97.5102C66.4732 97.6074 66.4165 97.7213 66.3869 97.8435C66.3574 97.9657 66.3557 98.0929 66.382 98.2158C66.4075 98.4438 66.5212 98.6527 66.6987 98.7976C66.8762 98.9426 67.1034 99.0121 67.3315 98.9913V98.9913ZM76.0861 106.051C75.5878 106.159 75.2443 106.436 75.2712 106.955C75.2673 107.072 75.2875 107.189 75.3307 107.298C75.3739 107.406 75.4391 107.505 75.5223 107.588C75.6054 107.67 75.7046 107.734 75.8138 107.776C75.9229 107.819 76.0396 107.838 76.1564 107.833C76.2733 107.827 76.3878 107.798 76.4928 107.747C76.5979 107.695 76.6911 107.622 76.7667 107.533C76.8423 107.444 76.8987 107.339 76.9322 107.227C76.9657 107.115 76.9757 106.997 76.9615 106.881C76.9564 106.767 76.9287 106.655 76.8801 106.552C76.8315 106.449 76.7629 106.356 76.6784 106.28C76.5938 106.203 76.495 106.144 76.3875 106.106C76.2801 106.068 76.1662 106.052 76.0524 106.058L76.0861 106.051ZM68.2945 106.935C68.2339 106.26 67.9107 105.937 67.3181 105.93C67.1223 105.927 66.9302 105.983 66.7659 106.09C66.6017 106.196 66.4727 106.349 66.3953 106.529C66.318 106.71 66.2957 106.909 66.3313 107.101C66.3668 107.294 66.4587 107.472 66.5953 107.613C66.7318 107.753 66.9069 107.85 67.0984 107.891C67.2898 107.932 67.4891 107.915 67.671 107.842C67.8529 107.77 68.0092 107.645 68.1202 107.483C68.2312 107.322 68.2919 107.131 68.2945 106.935V106.935ZM59.6747 89.5036C59.674 89.3761 59.6452 89.2503 59.5905 89.1351C59.5358 89.02 59.4565 88.9183 59.3582 88.8372C59.2599 88.7561 59.145 88.6977 59.0217 88.666C58.8983 88.6344 58.7695 88.6303 58.6443 88.654C58.5164 88.6562 58.3905 88.6873 58.2762 88.745C58.162 88.8028 58.0622 88.8857 57.9845 88.9876C57.9068 89.0894 57.853 89.2075 57.8274 89.3331C57.8017 89.4587 57.8047 89.5884 57.8362 89.7127C57.8426 89.8273 57.8726 89.9395 57.9245 90.0419C57.9763 90.1443 58.0489 90.2349 58.1375 90.3078C58.2262 90.3807 58.3289 90.4343 58.4394 90.4654C58.5498 90.4964 58.6655 90.5042 58.779 90.4881C59.3918 90.4612 59.6612 90.097 59.6747 89.5036ZM41.4922 80.0632C40.7447 80.1239 40.4012 80.5015 40.4484 81.1623C40.4462 81.2898 40.4716 81.4163 40.5229 81.5331C40.5742 81.6498 40.6501 81.7541 40.7454 81.8387C40.8408 81.9232 40.9533 81.9861 41.0752 82.023C41.1971 82.0599 41.3256 82.07 41.4518 82.0524C41.5915 82.0646 41.7322 82.044 41.8626 81.9923C41.993 81.9406 42.1096 81.8591 42.203 81.7544C42.2965 81.6497 42.3643 81.5246 42.4011 81.389C42.4378 81.2535 42.4425 81.1112 42.4148 80.9735C42.4176 80.8491 42.395 80.7254 42.3486 80.6099C42.3021 80.4945 42.2326 80.3898 42.1444 80.3021C42.0562 80.2144 41.9511 80.1456 41.8355 80.0999C41.7199 80.0542 41.5962 80.0325 41.472 80.0362L41.4922 80.0632ZM51.1828 81.1151C51.1828 80.5217 50.873 80.1576 50.2602 80.1508C50.1335 80.1365 50.0052 80.1512 49.885 80.1938C49.7649 80.2364 49.6559 80.3058 49.5664 80.3967C49.4769 80.4876 49.4092 80.5977 49.3684 80.7187C49.3276 80.8396 49.3148 80.9682 49.3309 81.0949C49.3225 81.2094 49.3379 81.3243 49.3762 81.4325C49.4145 81.5408 49.4747 81.6398 49.5532 81.7235C49.6317 81.8072 49.7267 81.8736 49.8322 81.9186C49.9376 81.9636 50.0513 81.9862 50.1659 81.985C50.2923 82.0027 50.4211 81.9926 50.5432 81.9553C50.6653 81.918 50.7778 81.8544 50.8728 81.7689C50.9677 81.6835 51.0429 81.5782 51.0929 81.4606C51.143 81.343 51.1668 81.2159 51.1626 81.0881L51.1828 81.1151ZM76.0322 116.409C76.1583 116.427 76.2868 116.417 76.4086 116.379C76.5304 116.342 76.6425 116.278 76.737 116.193C76.8314 116.107 76.906 116.002 76.9552 115.884C77.0045 115.767 77.0274 115.64 77.0221 115.512C77.0394 115.385 77.0274 115.256 76.9871 115.134C76.9468 115.012 76.8792 114.901 76.7896 114.809C76.7 114.718 76.5906 114.648 76.4699 114.605C76.3491 114.562 76.2201 114.547 76.0928 114.561C75.9787 114.549 75.8632 114.561 75.754 114.596C75.6448 114.632 75.5444 114.69 75.4592 114.767C75.374 114.844 75.306 114.938 75.2597 115.043C75.2134 115.149 75.1898 115.262 75.1904 115.377C75.1713 115.498 75.178 115.622 75.2101 115.741C75.2421 115.859 75.2988 115.969 75.3764 116.064C75.454 116.159 75.5507 116.236 75.6602 116.291C75.7698 116.346 75.8897 116.377 76.012 116.382L76.0322 116.409ZM84.7194 148.891C84.046 148.891 83.6958 149.154 83.6554 149.747C83.6267 149.883 83.6308 150.024 83.6671 150.158C83.7035 150.292 83.7712 150.416 83.8646 150.518C83.958 150.621 84.0744 150.7 84.2043 150.749C84.3342 150.798 84.4738 150.815 84.6117 150.799C84.7371 150.812 84.8637 150.796 84.9825 150.754C85.1012 150.712 85.2092 150.644 85.2986 150.555C85.3881 150.466 85.4568 150.358 85.4998 150.24C85.5429 150.121 85.5593 149.994 85.5477 149.869C85.5627 149.749 85.5528 149.628 85.5184 149.512C85.4841 149.396 85.4261 149.289 85.3483 149.197C85.2704 149.105 85.1743 149.031 85.066 148.978C84.9577 148.925 84.8397 148.896 84.7194 148.891V148.891ZM92.3224 167.212C92.3897 167.664 92.6389 167.981 93.0901 167.988C93.1927 167.988 93.2943 167.967 93.389 167.928C93.4838 167.889 93.5699 167.831 93.6425 167.758C93.715 167.686 93.7725 167.6 93.8118 167.505C93.8511 167.41 93.8713 167.308 93.8713 167.205C93.8713 167.103 93.8511 167.001 93.8118 166.906C93.7725 166.811 93.715 166.725 93.6425 166.652C93.5699 166.58 93.4838 166.522 93.389 166.483C93.2943 166.443 93.1927 166.423 93.0901 166.423C92.8823 166.432 92.686 166.521 92.5427 166.672C92.3995 166.823 92.3205 167.024 92.3224 167.232V167.212ZM33.7343 63.6907C33.6266 63.1782 33.3774 62.8613 32.9195 62.8815C32.8169 62.8873 32.7164 62.9132 32.6239 62.9578C32.5313 63.0025 32.4484 63.0649 32.3799 63.1416C32.3114 63.2183 32.2587 63.3078 32.2248 63.4049C32.1908 63.502 32.1763 63.6048 32.1821 63.7076C32.1878 63.8103 32.2137 63.9109 32.2583 64.0036C32.3028 64.0963 32.3652 64.1793 32.4418 64.2478C32.5184 64.3164 32.6078 64.3692 32.7047 64.4032C32.8017 64.4372 32.9044 64.4517 33.007 64.4459C33.1869 64.4161 33.3521 64.3281 33.4774 64.1953C33.6026 64.0626 33.681 63.8925 33.7006 63.7109L33.7343 63.6907ZM68.079 89.4902C67.9646 89.0518 67.7087 88.7349 67.2575 88.7686C67.1521 88.7727 67.0486 88.7981 66.9533 88.8433C66.858 88.8884 66.7728 88.9524 66.7029 89.0315C66.633 89.1105 66.5797 89.2029 66.5464 89.3031C66.5131 89.4032 66.5004 89.5092 66.509 89.6144C66.5176 89.7196 66.5475 89.822 66.5967 89.9154C66.6459 90.0088 66.7135 90.0912 66.7954 90.1577C66.8773 90.2242 66.9718 90.2735 67.0732 90.3024C67.1746 90.3314 67.2808 90.3395 67.3854 90.3263C67.5768 90.294 67.7502 90.1937 67.8738 90.0439C67.9975 89.8941 68.0632 89.7047 68.0588 89.5104L68.079 89.4902ZM59.5602 81.0679C59.4457 80.5554 59.1898 80.2385 58.7386 80.2587C58.636 80.2649 58.5357 80.2913 58.4433 80.3363C58.3509 80.3814 58.2682 80.4442 58.2001 80.5212C58.1319 80.5982 58.0796 80.6879 58.046 80.7852C58.0125 80.8825 57.9984 80.9854 58.0046 81.0881C58.0108 81.1909 58.0371 81.2914 58.0821 81.3839C58.1271 81.4764 58.1898 81.5592 58.2667 81.6274C58.3436 81.6957 58.4332 81.7481 58.5304 81.7817C58.6275 81.8152 58.7303 81.8293 58.8329 81.8232C59.0211 81.797 59.195 81.7083 59.3269 81.5714C59.4587 81.4344 59.5409 81.2572 59.5602 81.0679V81.0679ZM93.9049 158.365C93.8107 157.913 93.5548 157.596 93.1036 157.617C92.9895 157.61 92.8755 157.63 92.7704 157.674C92.6652 157.719 92.5719 157.787 92.4975 157.874C92.4232 157.961 92.3699 158.064 92.3419 158.175C92.3138 158.286 92.3118 158.402 92.3358 158.513C92.3429 158.616 92.3713 158.716 92.4192 158.807C92.4671 158.897 92.5335 158.977 92.6141 159.041C92.6946 159.104 92.7876 159.15 92.887 159.175C92.9864 159.201 93.09 159.205 93.1911 159.188C93.3935 159.169 93.581 159.073 93.715 158.92C93.8491 158.767 93.9194 158.568 93.9117 158.365H93.9049ZM7.86801 55.201C7.7872 54.6953 7.53803 54.3784 7.08684 54.3784C6.97861 54.3683 6.86948 54.3809 6.7664 54.4155C6.66333 54.45 6.5686 54.5057 6.48825 54.579C6.40791 54.6523 6.34373 54.7416 6.29981 54.8412C6.2559 54.9407 6.23321 55.0484 6.23321 55.1572C6.23321 55.266 6.2559 55.3737 6.29981 55.4733C6.34373 55.5728 6.40791 55.6621 6.48825 55.7354C6.5686 55.8087 6.66333 55.8644 6.7664 55.899C6.86948 55.9335 6.97861 55.9461 7.08684 55.936C7.28292 55.9261 7.4691 55.8468 7.61217 55.7121C7.75525 55.5775 7.84592 55.3964 7.86801 55.201V55.201ZM76.773 98.027C76.7705 97.9425 76.7509 97.8594 76.7152 97.7828C76.6796 97.7062 76.6286 97.6377 76.5656 97.5815C76.5025 97.5253 76.4286 97.4826 76.3485 97.456C76.2684 97.4294 76.1837 97.4195 76.0996 97.4269C76.0117 97.4224 75.924 97.4371 75.8424 97.47C75.7608 97.5029 75.6874 97.5532 75.6272 97.6173C75.5669 97.6815 75.5214 97.758 75.4936 97.8416C75.4659 97.9251 75.4566 98.0137 75.4665 98.1012C75.453 98.2015 75.4645 98.3036 75.4999 98.3985C75.5354 98.4933 75.5937 98.5778 75.6697 98.6446C75.7457 98.7113 75.8371 98.7582 75.9356 98.7811C76.034 98.8039 76.1367 98.802 76.2342 98.7755C76.6046 98.7148 76.7662 98.4249 76.7528 98.027H76.773ZM50.8999 72.5175C50.8951 72.429 50.8728 72.3423 50.8345 72.2623C50.7962 72.1824 50.7425 72.1108 50.6765 72.0516C50.6105 71.9924 50.5336 71.9468 50.45 71.9174C50.3664 71.8881 50.2779 71.8755 50.1895 71.8803C50.101 71.8852 50.0144 71.9075 49.9346 71.9458C49.8548 71.9842 49.7832 72.038 49.7241 72.104C49.6048 72.2374 49.5433 72.4129 49.5531 72.5917C49.5533 72.6764 49.5715 72.76 49.6067 72.837C49.6418 72.9141 49.693 72.9826 49.7567 73.0382C49.8205 73.0938 49.8954 73.135 49.9765 73.1592C50.0575 73.1834 50.1428 73.1899 50.2265 73.1784C50.3163 73.1889 50.4073 73.1791 50.4929 73.1498C50.5784 73.1205 50.6563 73.0724 50.7209 73.009C50.7854 72.9457 50.835 72.8686 50.866 72.7836C50.897 72.6986 50.9086 72.6076 50.8999 72.5175V72.5175ZM85.312 115.512C85.2649 115.02 85.0494 114.784 84.6386 114.791C84.5388 114.779 84.4376 114.791 84.3437 114.827C84.2499 114.863 84.1662 114.922 84.0999 114.998C84.0336 115.073 83.9867 115.164 83.9632 115.262C83.9398 115.36 83.9404 115.462 83.9652 115.559C83.9679 115.647 83.99 115.733 84.03 115.812C84.07 115.89 84.1268 115.958 84.1964 116.012C84.266 116.065 84.3466 116.103 84.4324 116.121C84.5182 116.14 84.607 116.139 84.6925 116.119C84.8545 116.119 85.0101 116.056 85.1259 115.942C85.2417 115.829 85.3085 115.674 85.312 115.512V115.512ZM93.7702 184.293C93.7806 184.208 93.7719 184.122 93.7448 184.041C93.7176 183.96 93.6727 183.886 93.6133 183.824C93.5539 183.763 93.4815 183.715 93.4015 183.686C93.3214 183.656 93.2357 183.644 93.1507 183.652C93.062 183.642 92.9722 183.653 92.8886 183.684C92.805 183.715 92.7298 183.765 92.6694 183.831C92.609 183.897 92.565 183.976 92.5409 184.062C92.5169 184.148 92.5136 184.239 92.5311 184.326C92.5275 184.4 92.5387 184.474 92.564 184.543C92.5893 184.612 92.6282 184.676 92.6784 184.73C92.7286 184.784 92.7891 184.828 92.8563 184.858C92.9236 184.888 92.9962 184.905 93.0699 184.906C93.1545 184.918 93.2406 184.911 93.3223 184.886C93.404 184.861 93.4792 184.819 93.5427 184.762C93.6062 184.704 93.6565 184.634 93.69 184.555C93.7235 184.477 93.7394 184.392 93.7366 184.306L93.7702 184.293ZM93.1305 175.061C92.6726 175.129 92.4571 175.365 92.4571 175.776C92.4512 175.864 92.465 175.952 92.4975 176.034C92.53 176.116 92.5803 176.19 92.6448 176.25C92.7093 176.31 92.7864 176.355 92.8704 176.381C92.9544 176.408 93.0433 176.415 93.1305 176.403C93.3091 176.403 93.4804 176.332 93.6067 176.206C93.733 176.079 93.8039 175.908 93.8039 175.729C93.8039 175.55 93.733 175.378 93.6067 175.252C93.4804 175.125 93.3091 175.054 93.1305 175.054V175.061ZM42.0444 63.7312C41.977 63.2187 41.7211 63.0569 41.3238 63.0569C41.2369 63.0605 41.1519 63.0839 41.0753 63.1253C40.9988 63.1668 40.9327 63.2251 40.882 63.296C40.8314 63.3668 40.7975 63.4483 40.7831 63.5343C40.7686 63.6202 40.7739 63.7083 40.7986 63.7919C40.806 63.8653 40.8281 63.9365 40.8635 64.0012C40.8989 64.0659 40.9469 64.1229 41.0047 64.1688C41.0624 64.2147 41.1287 64.2485 41.1997 64.2683C41.2707 64.2881 41.345 64.2935 41.4181 64.2841C41.5742 64.2934 41.7277 64.2404 41.845 64.1368C41.9623 64.0333 42.034 63.8874 42.0444 63.7312V63.7312ZM93.7904 141.372C93.7433 140.893 93.5211 140.664 93.117 140.698C93.0158 140.685 92.9129 140.698 92.8177 140.735C92.7225 140.771 92.6378 140.831 92.5711 140.908C92.5045 140.986 92.458 141.079 92.4357 141.178C92.4135 141.278 92.4162 141.382 92.4436 141.48C92.4552 141.659 92.5373 141.826 92.6718 141.944C92.8063 142.062 92.9822 142.122 93.1608 142.111C93.3394 142.099 93.5061 142.017 93.6242 141.882C93.7422 141.747 93.8021 141.571 93.7904 141.392V141.372ZM24.3333 55.7877C24.8451 55.7203 25.0067 55.464 25.0067 55.0662C25.0031 54.9791 24.9797 54.894 24.9383 54.8174C24.897 54.7407 24.8387 54.6745 24.7679 54.6238C24.6971 54.5731 24.6157 54.5392 24.5299 54.5247C24.4441 54.5102 24.3561 54.5155 24.2727 54.5402C24.1985 54.5477 24.1265 54.57 24.061 54.6058C23.9956 54.6416 23.9379 54.6901 23.8915 54.7486C23.845 54.807 23.8108 54.8742 23.7906 54.9461C23.7705 55.018 23.765 55.0932 23.7743 55.1673C23.7687 55.3232 23.824 55.4751 23.9283 55.5909C24.0326 55.7067 24.1779 55.7773 24.3333 55.7877V55.7877ZM16.535 55.1606C16.5288 55.072 16.5053 54.9856 16.4657 54.9061C16.4261 54.8267 16.3713 54.7558 16.3044 54.6976C16.2375 54.6394 16.1598 54.5949 16.0757 54.5667C15.9917 54.5386 15.9029 54.5273 15.8144 54.5335C15.726 54.5397 15.6397 54.5632 15.5603 54.6029C15.481 54.6425 15.4102 54.6973 15.3521 54.7643C15.2939 54.8313 15.2495 54.9092 15.2214 54.9933C15.1933 55.0775 15.182 55.1664 15.1882 55.255C15.1878 55.3478 15.209 55.4394 15.25 55.5226C15.2911 55.6058 15.3508 55.6784 15.4245 55.7346C15.4983 55.7908 15.584 55.8291 15.675 55.8465C15.7661 55.8639 15.8599 55.8599 15.9491 55.8349C16.0327 55.8316 16.1147 55.8113 16.1901 55.7751C16.2655 55.7389 16.3327 55.6877 16.3876 55.6245C16.4425 55.5613 16.4839 55.4876 16.5092 55.4078C16.5346 55.328 16.5433 55.2439 16.535 55.1606V55.1606ZM93.7837 149.828C93.7861 149.741 93.7699 149.655 93.7362 149.574C93.7025 149.494 93.6522 149.422 93.5885 149.362C93.5248 149.303 93.4492 149.258 93.3667 149.23C93.2843 149.202 93.1969 149.192 93.1103 149.201C93.009 149.188 92.9062 149.201 92.811 149.238C92.7157 149.274 92.631 149.334 92.5644 149.412C92.4978 149.489 92.4513 149.582 92.429 149.681C92.4068 149.781 92.4095 149.885 92.4369 149.983C92.4574 150.162 92.5481 150.325 92.6889 150.437C92.8297 150.549 93.0091 150.601 93.1877 150.58C93.3663 150.559 93.5295 150.469 93.6412 150.328C93.753 150.187 93.8043 150.007 93.7837 149.828V149.828ZM93.7366 132.815C93.7366 132.39 93.4807 132.141 93.0631 132.201C92.9789 132.2 92.8953 132.217 92.8186 132.252C92.7418 132.287 92.6739 132.339 92.6196 132.404C92.5654 132.468 92.5263 132.544 92.5052 132.626C92.484 132.708 92.4814 132.793 92.4975 132.876C92.499 132.95 92.5157 133.022 92.5465 133.09C92.5773 133.157 92.6215 133.217 92.6765 133.266C92.7314 133.315 92.7958 133.353 92.8658 133.376C92.9358 133.4 93.0099 133.408 93.0834 133.402C93.1662 133.414 93.2506 133.407 93.3306 133.383C93.4107 133.359 93.4844 133.317 93.5467 133.261C93.609 133.205 93.6582 133.136 93.691 133.059C93.7239 132.982 93.7394 132.899 93.7366 132.815ZM58.7184 174.245C57.816 174.38 57.2099 174.866 57.2436 175.816C57.2516 176.01 57.2976 176.201 57.3791 176.377C57.4605 176.553 57.5759 176.711 57.7184 176.843C57.861 176.974 58.0281 177.076 58.21 177.143C58.392 177.21 58.5854 177.24 58.779 177.232C58.9727 177.225 59.1629 177.178 59.3388 177.097C59.5147 177.015 59.6728 176.9 59.8041 176.757C59.9354 176.614 60.0374 176.447 60.1042 176.265C60.1709 176.083 60.2012 175.889 60.1932 175.695C60.2 174.825 59.6073 174.367 58.7454 174.245H58.7184ZM58.779 185.769C59.6208 185.601 60.2067 185.129 60.1663 184.259C60.1583 184.069 60.113 183.882 60.0329 183.709C59.9528 183.536 59.8394 183.381 59.6994 183.252C59.5593 183.123 59.3952 183.022 59.2165 182.957C59.0378 182.891 58.848 182.862 58.6578 182.87C58.4677 182.878 58.281 182.923 58.1084 183.003C57.9357 183.084 57.7806 183.197 57.6518 183.337C57.523 183.478 57.423 183.642 57.3576 183.821C57.2922 184 57.2626 184.19 57.2706 184.38C57.2932 184.767 57.4669 185.13 57.7541 185.39C58.0414 185.65 58.4192 185.786 58.806 185.769H58.779ZM68.5504 184.293C68.5608 184.115 68.5328 183.936 68.4682 183.77C68.4036 183.604 68.304 183.454 68.1762 183.33C68.0484 183.206 67.8953 183.11 67.7275 183.051C67.5597 182.991 67.381 182.969 67.2036 182.984C67.027 182.972 66.8499 182.999 66.685 183.063C66.5202 183.128 66.3717 183.228 66.2505 183.358C66.1293 183.487 66.0383 183.641 65.9842 183.81C65.93 183.979 65.9141 184.157 65.9376 184.333C65.9286 184.499 65.9549 184.664 66.0145 184.819C66.0742 184.974 66.1659 185.114 66.2836 185.23C66.4013 185.347 66.5423 185.437 66.6974 185.495C66.8525 185.553 67.0182 185.578 67.1834 185.567C67.3615 185.59 67.5424 185.573 67.7135 185.519C67.8846 185.465 68.042 185.374 68.1745 185.252C68.3071 185.131 68.4118 184.983 68.4814 184.817C68.5509 184.651 68.5837 184.472 68.5774 184.293H68.5504ZM67.2642 165.87C66.3955 165.958 65.9173 166.416 65.9173 167.219C65.9218 167.577 66.068 167.918 66.3237 168.168C66.5795 168.417 66.9238 168.555 67.281 168.551C67.6382 168.546 67.979 168.4 68.2285 168.144C68.4779 167.888 68.6155 167.543 68.6111 167.185C68.6148 167.011 68.5831 166.838 68.518 166.676C68.4529 166.514 68.3557 166.368 68.2323 166.245C68.1089 166.122 67.9618 166.025 67.8001 165.961C67.6383 165.896 67.4652 165.866 67.2911 165.87H67.2642ZM68.6111 175.769C68.6197 175.59 68.5908 175.411 68.5262 175.243C68.4616 175.075 68.3627 174.923 68.2358 174.796C68.109 174.669 67.957 174.57 67.7897 174.506C67.6224 174.441 67.4434 174.412 67.2642 174.421C66.907 174.421 66.5644 174.563 66.3118 174.816C66.0593 175.069 65.9173 175.412 65.9173 175.769C65.9173 176.127 66.0593 176.47 66.3118 176.723C66.5644 176.976 66.907 177.118 67.2642 177.118C67.4436 177.128 67.6231 177.099 67.7909 177.035C67.9587 176.971 68.1111 176.872 68.2382 176.744C68.3652 176.617 68.4641 176.465 68.5283 176.297C68.5926 176.129 68.6208 175.949 68.6111 175.769V175.769ZM58.7992 148.345C57.8295 148.5 57.2234 149.019 57.2706 149.95C57.2628 150.143 57.2966 150.335 57.3695 150.514C57.4425 150.692 57.5529 150.853 57.6934 150.986C57.8339 151.118 58.0011 151.219 58.1837 151.281C58.3664 151.343 58.5602 151.365 58.7521 151.345C58.956 151.359 59.1604 151.327 59.3506 151.252C59.5408 151.177 59.7122 151.062 59.8524 150.913C59.9927 150.764 60.0984 150.586 60.162 150.391C60.2255 150.197 60.2454 149.991 60.2202 149.788C60.2041 149.414 60.0498 149.059 59.7872 148.792C59.5247 148.526 59.1726 148.366 58.7992 148.345V148.345ZM58.6848 142.822C59.5804 142.701 60.1798 142.242 60.1932 141.379C60.2068 141.18 60.1793 140.98 60.1125 140.792C60.0457 140.604 59.941 140.432 59.8049 140.286C59.6689 140.14 59.5043 140.023 59.3214 139.944C59.1386 139.864 58.9413 139.823 58.742 139.823C58.5426 139.823 58.3454 139.864 58.1626 139.944C57.9797 140.023 57.8151 140.14 57.679 140.286C57.543 140.432 57.4383 140.604 57.3715 140.792C57.3047 140.98 57.2772 141.18 57.2908 141.379C57.3048 141.749 57.4548 142.101 57.712 142.368C57.9693 142.634 58.3157 142.796 58.6848 142.822ZM60.2 132.795C60.0585 131.932 59.5804 131.345 58.6982 131.379C58.3214 131.379 57.9599 131.529 57.6935 131.796C57.427 132.062 57.2773 132.424 57.2773 132.802C57.2773 133.179 57.427 133.541 57.6935 133.808C57.9599 134.075 58.3214 134.224 58.6982 134.224C58.89 134.232 59.0814 134.201 59.2611 134.133C59.4408 134.066 59.6053 133.963 59.7451 133.831C59.8848 133.699 59.997 133.541 60.0751 133.366C60.1532 133.19 60.1956 133.001 60.2 132.808V132.795ZM15.8683 91.0613C16.7572 90.8927 17.3431 90.4207 17.3094 89.5508C17.3248 89.346 17.2933 89.1404 17.2173 88.9497C17.1412 88.7589 17.0227 88.5881 16.8707 88.4502C16.7187 88.3123 16.5372 88.211 16.3402 88.154C16.1431 88.097 15.9357 88.0858 15.7336 88.1213C15.5397 88.1194 15.3477 88.1594 15.1706 88.2387C14.9936 88.3179 14.8357 88.4345 14.7078 88.5805C14.58 88.7265 14.4851 88.8984 14.4297 89.0845C14.3742 89.2706 14.3596 89.4665 14.3868 89.6587C14.4122 90.0363 14.5788 90.3904 14.8534 90.6503C15.128 90.9103 15.4904 91.0571 15.8683 91.0613V91.0613ZM24.34 90.9871C24.7008 90.9947 25.0504 90.8619 25.3154 90.6167C25.5804 90.3715 25.7401 90.0329 25.7609 89.6722C25.7776 89.4828 25.7553 89.292 25.6954 89.1115C25.6354 88.9311 25.5391 88.7649 25.4124 88.6233C25.2857 88.4816 25.1313 88.3675 24.9588 88.2881C24.7863 88.2086 24.5993 88.1655 24.4094 88.1613C24.2196 88.1571 24.0309 88.192 23.8551 88.2639C23.6792 88.3357 23.52 88.4429 23.3872 88.5789C23.2544 88.7148 23.151 88.8766 23.0832 89.0543C23.0154 89.2319 22.9848 89.4216 22.9932 89.6115C22.9982 89.9702 23.1408 90.3131 23.3916 90.5693C23.6424 90.8254 23.982 90.975 24.34 90.9871V90.9871ZM51.6879 115.519C51.5734 114.636 51.1154 114.035 50.24 114.035C49.8631 114.023 49.4967 114.161 49.2214 114.419C48.9461 114.677 48.7844 115.034 48.7719 115.411C48.7594 115.788 48.8971 116.155 49.1548 116.431C49.4124 116.707 49.7689 116.868 50.1457 116.881C51.0346 116.928 51.506 116.342 51.6879 115.519ZM32.9127 99.551C33.7747 99.3959 34.3606 98.9171 34.3135 98.0338C34.3072 97.6564 34.1515 97.297 33.8806 97.0346C33.6097 96.7722 33.2458 96.6283 32.869 96.6346C32.4921 96.6408 32.1332 96.7967 31.8711 97.068C31.6091 97.3392 31.4653 97.7036 31.4716 98.081C31.4698 98.2722 31.5057 98.462 31.5772 98.6394C31.6486 98.8168 31.7543 98.9783 31.8881 99.1149C32.0219 99.2514 32.1813 99.3601 32.3571 99.435C32.5329 99.5098 32.7217 99.5492 32.9127 99.551V99.551ZM41.4383 105.431C40.5426 105.579 39.9635 106.045 39.9568 106.915C39.9468 107.114 39.9779 107.313 40.0479 107.499C40.1179 107.686 40.2255 107.856 40.3639 108C40.5023 108.143 40.6686 108.256 40.8525 108.333C41.0365 108.409 41.2341 108.447 41.4332 108.443C41.6323 108.44 41.8286 108.396 42.0099 108.314C42.1913 108.232 42.3539 108.113 42.4875 107.965C42.6212 107.817 42.7232 107.644 42.7871 107.455C42.8511 107.266 42.8756 107.066 42.8592 106.867C42.8476 106.492 42.6946 106.136 42.4309 105.869C42.1673 105.603 41.8126 105.446 41.4383 105.431V105.431ZM51.7417 124.009C51.6272 123.105 51.1491 122.491 50.1996 122.505C50.0073 122.491 49.8143 122.518 49.6336 122.586C49.4529 122.653 49.2887 122.758 49.1521 122.894C49.0155 123.03 48.9096 123.194 48.8417 123.375C48.7738 123.555 48.7454 123.749 48.7585 123.941C48.7381 124.147 48.764 124.355 48.8342 124.55C48.9045 124.745 49.0174 124.921 49.1645 125.067C49.3117 125.212 49.4895 125.323 49.6849 125.39C49.8803 125.458 50.0884 125.481 50.2939 125.458C51.1356 125.452 51.6003 124.872 51.7417 124.009V124.009ZM42.94 115.384C42.7717 114.48 42.2666 113.88 41.3104 113.954C41.1057 113.954 40.9034 113.998 40.7174 114.083C40.5314 114.169 40.3664 114.294 40.2337 114.45C40.1009 114.606 40.0038 114.789 39.949 114.986C39.8942 115.184 39.8831 115.391 39.9164 115.593C39.921 115.784 39.9649 115.972 40.0454 116.145C40.1258 116.318 40.241 116.473 40.3838 116.599C40.5267 116.726 40.694 116.822 40.8755 116.881C41.0569 116.939 41.2485 116.96 41.4383 116.942C42.3878 116.928 42.8862 116.321 42.94 115.384ZM24.2996 96.5637C23.3972 96.7391 22.8046 97.2381 22.8854 98.2091C22.8853 98.4139 22.9299 98.6163 23.0163 98.802C23.1026 98.9876 23.2285 99.1522 23.3851 99.2839C23.5417 99.4157 23.7252 99.5115 23.9228 99.5646C24.1203 99.6177 24.3271 99.6269 24.5286 99.5915C24.7199 99.5869 24.9081 99.5427 25.0816 99.4618C25.255 99.3808 25.4098 99.2648 25.5363 99.121C25.6628 98.9773 25.7582 98.8089 25.8166 98.6264C25.875 98.4439 25.895 98.2513 25.8754 98.0607C25.8767 97.8569 25.8362 97.6549 25.7564 97.4674C25.6766 97.2798 25.5592 97.1106 25.4115 96.9703C25.2638 96.83 25.0889 96.7215 24.8977 96.6516C24.7064 96.5816 24.5029 96.5518 24.2996 96.5637ZM34.4481 107.083C34.3673 106.024 33.9094 105.418 32.9531 105.384C32.7542 105.376 32.5556 105.408 32.3689 105.477C32.1822 105.547 32.011 105.652 31.865 105.788C31.7189 105.923 31.601 106.086 31.5179 106.267C31.4348 106.449 31.3882 106.644 31.3807 106.844C31.3732 107.043 31.4049 107.242 31.4741 107.429C31.5433 107.616 31.6486 107.787 31.784 107.933C31.9194 108.08 32.0822 108.198 32.2632 108.281C32.4441 108.364 32.6397 108.411 32.8387 108.418C33.2276 108.449 33.613 108.326 33.9134 108.077C34.2138 107.828 34.4056 107.471 34.4481 107.083V107.083ZM7.03296 91.1018C7.94882 90.9804 8.54144 90.5016 8.54144 89.5508C8.55368 89.3461 8.52093 89.1411 8.44547 88.9504C8.37002 88.7597 8.2537 88.5879 8.10473 88.4471C7.95576 88.3063 7.77776 88.1999 7.58327 88.1354C7.38878 88.071 7.18254 88.05 6.97909 88.0741C6.7851 88.066 6.5916 88.099 6.41122 88.171C6.23084 88.2429 6.06764 88.3521 5.93227 88.4915C5.7969 88.6308 5.69242 88.7972 5.62563 88.9797C5.55885 89.1623 5.53127 89.3569 5.54469 89.5508C5.51776 90.4747 6.11037 90.9669 7.03296 91.1018ZM58.705 165.749C58.3214 165.761 57.9576 165.922 57.69 166.197C57.4225 166.473 57.2721 166.841 57.2706 167.226C57.2813 167.617 57.4469 167.989 57.7311 168.258C58.0152 168.527 58.3946 168.673 58.7858 168.662C59.1769 168.651 59.5478 168.485 59.8168 168.201C60.0858 167.916 60.2309 167.536 60.2202 167.145C60.1976 166.761 60.027 166.401 59.7443 166.14C59.4616 165.88 59.089 165.739 58.705 165.749V165.749ZM51.7754 132.748C51.7725 132.545 51.7278 132.345 51.6442 132.16C51.5605 131.975 51.4398 131.809 51.2894 131.673C51.139 131.537 50.9622 131.434 50.7701 131.369C50.5779 131.305 50.3746 131.28 50.1726 131.298C49.7708 131.313 49.3914 131.488 49.118 131.783C48.8446 132.078 48.6995 132.47 48.7147 132.872C48.7299 133.275 48.9041 133.655 49.1989 133.928C49.4938 134.202 49.8853 134.348 50.2871 134.332C51.2434 134.299 51.7013 133.692 51.7754 132.748ZM51.7754 149.788C51.7808 149.584 51.7434 149.382 51.6657 149.195C51.5879 149.007 51.4716 148.837 51.3243 148.697C51.177 148.558 51.0019 148.45 50.8104 148.382C50.619 148.315 50.4155 148.288 50.213 148.304C50.0009 148.301 49.7904 148.342 49.5944 148.423C49.3983 148.504 49.2208 148.624 49.0727 148.776C48.9246 148.928 48.8089 149.109 48.7328 149.307C48.6566 149.505 48.6216 149.717 48.6299 149.929C48.6381 150.142 48.6894 150.35 48.7807 150.542C48.872 150.733 49.0013 150.904 49.1608 151.045C49.3202 151.185 49.5065 151.291 49.7083 151.356C49.91 151.422 50.123 151.446 50.3343 151.426C50.543 151.43 50.75 151.388 50.9414 151.305C51.1328 151.222 51.3041 151.098 51.4438 150.943C51.5836 150.788 51.6885 150.604 51.7515 150.405C51.8145 150.206 51.8341 149.995 51.8091 149.788H51.7754ZM51.7754 184.272C51.7856 184.073 51.7546 183.873 51.6844 183.686C51.6142 183.499 51.5062 183.328 51.3672 183.184C51.2282 183.041 51.0612 182.927 50.8765 182.851C50.6919 182.775 50.4935 182.738 50.2939 182.742C50.0772 182.716 49.8576 182.741 49.6522 182.815C49.4468 182.888 49.2612 183.009 49.1099 183.166C48.9586 183.323 48.8457 183.514 48.7801 183.722C48.7144 183.93 48.6978 184.151 48.7315 184.367C48.7211 184.57 48.7554 184.773 48.8318 184.962C48.9082 185.151 49.0249 185.321 49.1738 185.46C49.3227 185.598 49.5001 185.703 49.6936 185.766C49.8871 185.828 50.092 185.848 50.2939 185.823C50.4967 185.829 50.6986 185.793 50.8867 185.716C51.0747 185.64 51.2448 185.525 51.3861 185.379C51.5274 185.233 51.6367 185.06 51.7073 184.869C51.7778 184.678 51.8079 184.475 51.7956 184.272H51.7754ZM8.64919 98.5193C8.59531 97.4336 8.09698 96.82 7.05317 96.82C6.64915 96.8301 6.26429 96.9945 5.97751 97.2797C5.69073 97.5648 5.52376 97.949 5.51084 98.3535C5.49793 98.758 5.64003 99.1521 5.90803 99.455C6.17603 99.7579 6.5496 99.9466 6.95215 99.9825C7.16211 100.012 7.37601 99.9969 7.5795 99.9372C7.783 99.8774 7.97141 99.7749 8.1321 99.6363C8.29279 99.4978 8.42205 99.3264 8.51123 99.1338C8.60041 98.9411 8.64745 98.7316 8.64919 98.5193V98.5193ZM16.0569 96.53C14.9727 96.5705 14.3598 97.0223 14.3127 97.9933C14.2694 98.2122 14.2786 98.4382 14.3396 98.6528C14.4005 98.8675 14.5115 99.0645 14.6634 99.2278C14.8153 99.3911 15.0037 99.5159 15.2132 99.592C15.4227 99.6681 15.6472 99.6934 15.8683 99.6656C16.0727 99.6861 16.279 99.6613 16.4728 99.593C16.6665 99.5247 16.8429 99.4146 16.9894 99.2705C17.1359 99.1264 17.2489 98.9518 17.3205 98.759C17.3921 98.5663 17.4205 98.3601 17.4037 98.1552C17.4242 97.9605 17.4058 97.7638 17.3496 97.5763C17.2934 97.3889 17.2006 97.2145 17.0765 97.0633C16.9525 96.9121 16.7996 96.7871 16.6269 96.6955C16.4542 96.604 16.265 96.5477 16.0703 96.53H16.0569ZM25.9428 106.847C25.9481 106.644 25.9107 106.442 25.833 106.254C25.7553 106.066 25.639 105.897 25.4917 105.757C25.3443 105.617 25.1693 105.51 24.9778 105.442C24.7864 105.374 24.5828 105.347 24.3804 105.364C24.1683 105.361 23.9578 105.401 23.7618 105.482C23.5657 105.563 23.3882 105.683 23.2401 105.835C23.0919 105.987 22.9763 106.168 22.9001 106.366C22.824 106.565 22.789 106.776 22.7972 106.989C22.8055 107.201 22.8568 107.409 22.9481 107.601C23.0394 107.793 23.1687 107.964 23.3281 108.104C23.4876 108.244 23.6739 108.35 23.8757 108.416C24.0774 108.481 24.2904 108.505 24.5016 108.486C24.7086 108.486 24.9134 108.443 25.1023 108.358C25.2913 108.273 25.4601 108.15 25.5976 107.995C25.7352 107.84 25.8383 107.657 25.9001 107.459C25.9619 107.262 25.981 107.053 25.9562 106.847H25.9428ZM34.4818 115.391C34.4879 115.174 34.4466 114.958 34.3609 114.759C34.2751 114.56 34.1469 114.382 33.9853 114.237C33.8237 114.093 33.6326 113.985 33.4252 113.923C33.2178 113.86 32.9993 113.843 32.7848 113.874C32.3651 113.891 31.9693 114.074 31.6845 114.383C31.3997 114.692 31.2492 115.102 31.2662 115.522C31.2832 115.943 31.4662 116.339 31.775 116.624C32.0837 116.909 32.493 117.06 32.9127 117.043C33.13 117.057 33.3477 117.023 33.5507 116.944C33.7536 116.865 33.9368 116.743 34.0876 116.585C34.2383 116.428 34.3529 116.239 34.4233 116.033C34.4937 115.827 34.5183 115.608 34.4953 115.391H34.4818ZM50.3612 139.767C49.3039 139.842 48.7046 140.3 48.6776 141.271C48.6443 141.491 48.6632 141.716 48.7327 141.927C48.8023 142.138 48.9205 142.33 49.0779 142.487C49.2353 142.644 49.4274 142.762 49.6387 142.83C49.8499 142.899 50.0744 142.917 50.2939 142.883C50.4987 142.898 50.7044 142.868 50.8963 142.794C51.0882 142.721 51.2616 142.606 51.4042 142.458C51.5469 142.31 51.6553 142.132 51.7218 141.938C51.7882 141.743 51.8111 141.536 51.7889 141.332C51.8007 141.136 51.7733 140.939 51.7082 140.754C51.6432 140.568 51.5418 140.398 51.4101 140.252C51.2784 140.106 51.119 139.988 50.9412 139.905C50.7634 139.822 50.5708 139.775 50.3747 139.767H50.3612ZM51.8158 167.165C51.8243 166.947 51.7846 166.731 51.6996 166.53C51.6147 166.33 51.4865 166.151 51.3244 166.006C51.1622 165.861 50.97 165.754 50.7616 165.692C50.5532 165.63 50.3337 165.615 50.1188 165.648C49.9005 165.637 49.6828 165.677 49.4821 165.763C49.2814 165.85 49.1029 165.981 48.9602 166.147C48.8175 166.312 48.7142 166.508 48.6583 166.72C48.6023 166.931 48.5951 167.153 48.6372 167.367C48.6326 167.572 48.6723 167.776 48.7535 167.964C48.8347 168.152 48.9555 168.32 49.1077 168.457C49.2599 168.594 49.4399 168.697 49.6353 168.758C49.8307 168.819 50.037 168.837 50.24 168.81C51.304 168.797 51.7889 168.183 51.8293 167.165H51.8158ZM41.472 122.397C41.2556 122.374 41.0369 122.4 40.8315 122.472C40.6261 122.543 40.4392 122.66 40.2841 122.813C40.1289 122.965 40.0095 123.151 39.9343 123.355C39.8591 123.559 39.83 123.778 39.849 123.995C39.8278 124.199 39.8515 124.405 39.9184 124.599C39.9854 124.793 40.094 124.969 40.2365 125.117C40.379 125.264 40.5521 125.378 40.7434 125.451C40.9348 125.524 41.1398 125.554 41.344 125.539C41.5625 125.573 41.7857 125.555 41.996 125.487C42.2062 125.419 42.3978 125.302 42.5553 125.147C42.7129 124.992 42.8321 124.802 42.9036 124.593C42.975 124.384 42.9968 124.16 42.967 123.941C42.9792 123.739 42.9493 123.537 42.8792 123.347C42.809 123.157 42.7001 122.984 42.5595 122.839C42.4188 122.694 42.2495 122.579 42.0622 122.503C41.875 122.427 41.674 122.391 41.472 122.397ZM50.341 177.34C50.5597 177.337 50.7749 177.285 50.9715 177.189C51.1681 177.093 51.3412 176.955 51.4786 176.784C51.616 176.614 51.7144 176.415 51.7669 176.203C51.8193 175.99 51.8245 175.768 51.7821 175.553C51.7771 175.348 51.7275 175.147 51.6367 174.963C51.5459 174.779 51.4161 174.618 51.2565 174.489C51.0968 174.361 50.9111 174.269 50.7123 174.22C50.5134 174.171 50.3063 174.166 50.1053 174.205C49.8872 174.199 49.6708 174.244 49.4725 174.335C49.2743 174.426 49.0995 174.561 48.9616 174.73C48.8238 174.9 48.7265 175.098 48.6773 175.311C48.6281 175.524 48.6282 175.745 48.6776 175.958C48.7719 176.936 49.4251 177.32 50.341 177.34ZM51.8293 158.385C51.8448 158.168 51.8121 157.95 51.7335 157.747C51.6548 157.543 51.5323 157.36 51.3746 157.21C51.2169 157.06 51.0279 156.946 50.8213 156.878C50.6146 156.809 50.3954 156.788 50.1794 156.814C49.7597 156.814 49.3571 156.981 49.0603 157.278C48.7636 157.575 48.5968 157.979 48.5968 158.399C48.5968 158.819 48.7636 159.222 49.0603 159.519C49.3571 159.816 49.7597 159.983 50.1794 159.983C50.3974 160.008 50.6181 159.984 50.8257 159.913C51.0333 159.842 51.2227 159.726 51.3804 159.574C51.538 159.421 51.66 159.235 51.7376 159.03C51.8152 158.824 51.8465 158.604 51.8293 158.385V158.385ZM43.0343 132.862C43.0558 132.647 43.0307 132.429 42.9607 132.224C42.8906 132.019 42.7773 131.831 42.6285 131.674C42.4796 131.516 42.2987 131.393 42.098 131.312C41.8973 131.231 41.6815 131.194 41.4652 131.203C41.2472 131.184 41.0276 131.209 40.8197 131.278C40.6118 131.346 40.42 131.456 40.2561 131.602C40.0921 131.747 39.9595 131.924 39.8663 132.122C39.773 132.32 39.7212 132.536 39.7138 132.755C39.7065 132.974 39.7438 133.192 39.8236 133.396C39.9033 133.6 40.0238 133.786 40.1777 133.942C40.3315 134.098 40.5155 134.22 40.7183 134.303C40.9212 134.385 41.1387 134.425 41.3575 134.42C41.5735 134.446 41.7925 134.424 41.9993 134.356C42.2061 134.289 42.3958 134.177 42.5553 134.029C42.7148 133.881 42.8402 133.7 42.9229 133.498C43.0056 133.297 43.0436 133.08 43.0343 132.862ZM15.8481 105.215C15.6206 105.215 15.3954 105.261 15.1865 105.352C14.9777 105.442 14.7897 105.575 14.6343 105.741C14.4789 105.907 14.3593 106.104 14.2831 106.319C14.207 106.533 14.1758 106.761 14.1915 106.989C14.1853 107.207 14.2248 107.424 14.3075 107.626C14.3902 107.828 14.5141 108.011 14.6714 108.162C14.8287 108.313 15.0159 108.429 15.2209 108.504C15.4258 108.578 15.6441 108.609 15.8616 108.594C16.0918 108.61 16.3228 108.575 16.5381 108.492C16.7535 108.409 16.9481 108.28 17.108 108.113C17.268 107.947 17.3894 107.747 17.4638 107.528C17.5382 107.309 17.5636 107.077 17.5384 106.847C17.5278 106.408 17.3442 105.99 17.0276 105.686C16.7109 105.382 16.287 105.215 15.8481 105.222V105.215ZM43.1555 141.379C43.0141 140.32 42.4821 139.619 41.3912 139.639C40.9393 139.634 40.5038 139.808 40.1805 140.125C39.8572 140.441 39.6726 140.873 39.6672 141.325C39.6618 141.777 39.8362 142.214 40.1519 142.537C40.4677 142.861 40.8989 143.046 41.3508 143.051C42.4148 143.078 42.9805 142.39 43.1555 141.379ZM32.8925 122.276C31.842 122.417 31.1753 123.004 31.2224 124.062C31.2182 124.28 31.2593 124.497 31.3431 124.698C31.427 124.899 31.5517 125.081 31.7094 125.231C31.8672 125.382 32.0544 125.497 32.2592 125.571C32.4641 125.645 32.682 125.676 32.8993 125.661C33.1299 125.675 33.3609 125.638 33.5759 125.554C33.791 125.469 33.9849 125.338 34.1441 125.171C34.3033 125.003 34.4238 124.802 34.4973 124.583C34.5708 124.363 34.5954 124.131 34.5694 123.901C34.5571 123.464 34.3748 123.05 34.0614 122.746C33.7481 122.443 33.3286 122.274 32.8925 122.276ZM26.1583 115.458C25.9697 114.366 25.3704 113.685 24.3198 113.752C23.8679 113.767 23.4406 113.962 23.1318 114.292C22.8231 114.623 22.6581 115.063 22.6733 115.515C22.6885 115.968 22.8825 116.396 23.2128 116.705C23.543 117.014 23.9824 117.179 24.4343 117.164C24.8816 117.154 25.3076 116.97 25.6227 116.652C25.9379 116.334 26.1178 115.906 26.1246 115.458H26.1583ZM41.6942 182.607C40.6504 182.762 39.9904 183.355 40.0443 184.414C40.0702 184.861 40.2724 185.28 40.6065 185.577C40.9405 185.875 41.379 186.028 41.8255 186.002C42.272 185.976 42.69 185.774 42.9874 185.439C43.2848 185.105 43.4373 184.666 43.4114 184.218C43.4045 184 43.3545 183.784 43.2644 183.585C43.1744 183.386 43.0459 183.206 42.8864 183.056C42.7269 182.907 42.5395 182.79 42.335 182.713C42.1304 182.636 41.9127 182.6 41.6942 182.607V182.607ZM43.4519 175.762C43.2768 174.711 42.6841 174.023 41.6336 174.083C41.1817 174.095 40.753 174.286 40.4417 174.614C40.1304 174.942 39.962 175.381 39.9736 175.833C39.9852 176.286 40.1759 176.715 40.5036 177.027C40.8313 177.339 41.2693 177.507 41.7211 177.495C41.9521 177.498 42.1812 177.454 42.3947 177.366C42.6081 177.278 42.8016 177.147 42.9633 176.982C43.125 176.817 43.2517 176.621 43.3357 176.406C43.4196 176.19 43.4591 175.96 43.4519 175.729V175.762ZM43.1892 149.929C43.1815 149.47 43.001 149.031 42.6839 148.7C42.3667 148.369 41.9363 148.17 41.4787 148.142C41.2398 148.137 41.0023 148.18 40.7802 148.268C40.5581 148.356 40.356 148.488 40.1858 148.656C40.0156 148.824 39.8808 149.024 39.7894 149.245C39.698 149.466 39.6519 149.704 39.6537 149.943C39.6598 150.167 39.7102 150.387 39.8021 150.592C39.894 150.796 40.0256 150.98 40.1891 151.133C40.3526 151.286 40.5448 151.405 40.7547 151.484C40.9645 151.562 41.1877 151.597 41.4114 151.588C42.4552 151.588 43.0276 150.914 43.1892 149.896V149.929ZM5.26185 106.928C5.27531 107.388 5.46319 107.825 5.78723 108.15C6.11128 108.476 6.54712 108.666 7.00603 108.681C7.24465 108.683 7.48121 108.637 7.70161 108.545C7.92201 108.454 8.12174 108.319 8.2889 108.148C8.45606 107.978 8.58722 107.775 8.67457 107.553C8.76192 107.33 8.80368 107.093 8.79734 106.854C8.79501 106.625 8.74616 106.398 8.65376 106.188C8.56135 105.978 8.42731 105.789 8.25979 105.633C8.09226 105.477 7.89474 105.356 7.67922 105.278C7.46369 105.201 7.23466 105.168 7.00603 105.182C6.54453 105.185 6.10294 105.37 5.7766 105.697C5.45027 106.024 5.26538 106.466 5.26185 106.928V106.928ZM43.4788 158.331C43.4556 157.865 43.2481 157.426 42.9021 157.113C42.556 156.799 42.0998 156.636 41.6336 156.659C41.1674 156.682 40.7296 156.89 40.4164 157.237C40.1032 157.583 39.9403 158.04 39.9635 158.507C39.9713 158.735 40.0241 158.959 40.1188 159.167C40.2135 159.375 40.3483 159.562 40.5153 159.717C40.6824 159.872 40.8786 159.993 41.0924 160.073C41.3063 160.152 41.5337 160.188 41.7616 160.179C42.229 160.148 42.667 159.94 42.9862 159.596C43.3053 159.253 43.4815 158.8 43.4788 158.331V158.331ZM34.7242 132.822C34.5559 131.75 33.9633 131.028 32.8454 131.075C32.6156 131.069 32.3871 131.111 32.1746 131.199C31.9621 131.286 31.7703 131.418 31.6117 131.584C31.453 131.751 31.331 131.949 31.2535 132.165C31.176 132.382 31.1448 132.613 31.1618 132.842C31.1457 133.085 31.1828 133.328 31.2705 133.555C31.3583 133.781 31.4945 133.986 31.6698 134.155C31.845 134.323 32.0549 134.451 32.2847 134.529C32.5146 134.608 32.7588 134.635 33.0003 134.609C34.0104 134.541 34.5626 133.84 34.6973 132.795L34.7242 132.822ZM39.9635 167.253C39.9752 167.712 40.1614 168.15 40.4842 168.477C40.807 168.804 41.2421 168.996 41.7009 169.013C41.9399 169.014 42.1766 168.966 42.397 168.874C42.6175 168.782 42.8171 168.646 42.9842 168.475C43.1512 168.304 43.2823 168.101 43.3696 167.878C43.4569 167.656 43.4986 167.418 43.4923 167.178C43.4909 166.95 43.4429 166.724 43.3511 166.514C43.2594 166.305 43.1259 166.116 42.9588 165.96C42.7917 165.804 42.5945 165.684 42.3793 165.607C42.1642 165.53 41.9356 165.498 41.7077 165.513C41.2467 165.507 40.8022 165.684 40.4707 166.005C40.1391 166.325 39.9472 166.764 39.9366 167.226L39.9635 167.253ZM32.8454 143.166C33.9363 143.045 34.6704 142.492 34.6771 141.352C34.6652 140.895 34.4788 140.46 34.1564 140.137C33.834 139.813 33.4 139.625 32.9437 139.613C32.4874 139.6 32.0435 139.762 31.7033 140.067C31.3631 140.372 31.1525 140.795 31.1147 141.251C31.0608 142.384 31.7612 142.977 32.8454 143.166ZM26.2121 123.988C26.0101 122.835 25.404 122.127 24.2794 122.201C23.8236 122.24 23.4001 122.453 23.0964 122.796C22.7928 123.138 22.6321 123.585 22.6477 124.043C22.6633 124.5 22.8538 124.935 23.18 125.256C23.5063 125.577 23.9432 125.761 24.4006 125.768C25.532 125.748 26.0505 125 26.2121 123.988ZM15.8548 113.638C14.7235 113.86 14.0164 114.467 14.1039 115.593C14.1079 115.824 14.1602 116.051 14.2576 116.26C14.355 116.47 14.4953 116.656 14.6693 116.807C14.8434 116.959 15.0472 117.072 15.2677 117.139C15.4882 117.206 15.7204 117.226 15.9491 117.198C16.1917 117.205 16.4329 117.159 16.6559 117.064C16.8789 116.968 17.0783 116.824 17.24 116.643C17.4017 116.462 17.5218 116.247 17.592 116.015C17.6622 115.782 17.6807 115.537 17.6462 115.296C17.6106 114.845 17.4065 114.424 17.0745 114.116C16.7425 113.809 16.307 113.638 15.8548 113.638ZM32.9262 186.107C34.0171 185.931 34.731 185.338 34.6771 184.212C34.6682 183.738 34.4716 183.287 34.1306 182.958C33.7896 182.629 33.3322 182.45 32.8589 182.458C32.3856 182.467 31.9352 182.664 31.6068 183.006C31.2785 183.347 31.099 183.805 31.1079 184.279C31.1147 185.405 31.8352 185.978 32.9262 186.107ZM7.10704 113.597C5.94875 113.759 5.22818 114.332 5.24165 115.465C5.22326 115.706 5.25743 115.949 5.34182 116.176C5.4262 116.403 5.55879 116.608 5.7304 116.779C5.90202 116.95 6.10857 117.081 6.3358 117.164C6.56302 117.246 6.80548 117.279 7.04643 117.259C7.28841 117.277 7.5315 117.243 7.75891 117.158C7.98631 117.073 8.19262 116.94 8.36358 116.767C8.53454 116.595 8.66607 116.387 8.7491 116.159C8.83213 115.93 8.86467 115.687 8.84448 115.445C8.85122 114.312 8.10371 113.779 7.10704 113.597ZM34.7175 175.81C34.603 174.711 34.0441 173.982 32.9262 173.955C32.6901 173.949 32.455 173.989 32.2343 174.073C32.0136 174.157 31.8116 174.284 31.64 174.447C31.4683 174.609 31.3303 174.804 31.2338 175.02C31.1374 175.236 31.0843 175.469 31.0776 175.705C31.071 175.942 31.111 176.177 31.1952 176.398C31.2794 176.619 31.4063 176.821 31.5686 176.993C31.7308 177.165 31.9253 177.303 32.1409 177.4C32.3566 177.496 32.5891 177.55 32.8252 177.556C33.97 177.597 34.5559 176.889 34.7377 175.81H34.7175ZM34.7175 167.28C34.7274 167.038 34.689 166.798 34.6044 166.571C34.5199 166.345 34.3909 166.138 34.2252 165.963C34.0595 165.788 33.8603 165.647 33.6395 165.55C33.4187 165.453 33.1808 165.402 32.9397 165.398C32.6881 165.38 32.4355 165.415 32.1986 165.502C31.9617 165.589 31.746 165.725 31.5657 165.901C31.3855 166.078 31.2448 166.291 31.1531 166.526C31.0614 166.762 31.0208 167.014 31.0339 167.266C31.0217 167.507 31.0609 167.748 31.149 167.973C31.237 168.197 31.3719 168.401 31.5446 168.569C31.7172 168.738 31.9237 168.867 32.1504 168.95C32.377 169.032 32.6185 169.065 32.8589 169.046C34.0306 169.053 34.603 168.358 34.7512 167.28H34.7175ZM15.7471 122.1C15.5083 122.106 15.2731 122.16 15.0554 122.258C14.8376 122.357 14.6418 122.498 14.4792 122.673C14.3167 122.848 14.1909 123.054 14.1091 123.279C14.0273 123.504 13.9912 123.743 14.0029 123.982C13.9977 124.233 14.0461 124.484 14.1449 124.715C14.2438 124.947 14.3908 125.155 14.5763 125.325C14.7617 125.496 14.9812 125.625 15.2203 125.703C15.4593 125.782 15.7124 125.809 15.9626 125.782C16.204 125.781 16.4424 125.729 16.6621 125.629C16.8818 125.528 17.0777 125.383 17.2369 125.201C17.3961 125.019 17.5149 124.806 17.5854 124.575C17.656 124.343 17.6767 124.1 17.6462 123.86C17.626 122.754 16.9054 122.208 15.7808 122.127L15.7471 122.1ZM34.6906 149.633C34.6628 149.179 34.4578 148.755 34.1199 148.452C33.7821 148.15 33.3387 147.992 32.8858 148.014C32.6341 148.002 32.3827 148.044 32.1483 148.136C31.914 148.229 31.7021 148.371 31.5268 148.552C31.3515 148.733 31.2169 148.95 31.1319 149.187C31.0469 149.425 31.0135 149.678 31.0339 149.929C31.031 150.171 31.0788 150.41 31.1741 150.632C31.2694 150.854 31.4102 151.053 31.5873 151.217C31.7643 151.381 31.9738 151.506 32.2021 151.584C32.4304 151.662 32.6725 151.691 32.9127 151.669C33.1667 151.666 33.4174 151.611 33.649 151.507C33.8806 151.402 34.088 151.251 34.2582 151.062C34.4284 150.873 34.5577 150.651 34.6379 150.41C34.7181 150.168 34.7475 149.913 34.7242 149.66L34.6906 149.633ZM33.0676 160.206C33.5214 160.176 33.9455 159.97 34.2489 159.631C34.5524 159.292 34.7109 158.847 34.6906 158.392C34.6979 158.143 34.6529 157.896 34.5586 157.666C34.4642 157.436 34.3226 157.228 34.1428 157.056C33.9631 156.885 33.7493 156.753 33.5153 156.669C33.2814 156.586 33.0325 156.552 32.7848 156.571C32.5442 156.569 32.3058 156.616 32.0847 156.711C31.8637 156.806 31.6649 156.947 31.5013 157.123C31.3376 157.3 31.2127 157.509 31.1345 157.736C31.0564 157.964 31.0266 158.206 31.0473 158.446C31.0551 158.702 31.1156 158.953 31.2252 159.184C31.3347 159.416 31.4909 159.622 31.6838 159.79C31.8767 159.957 32.1023 160.083 32.3462 160.16C32.5902 160.236 32.8472 160.261 33.1013 160.233L33.0676 160.206ZM24.1649 130.981C23.7117 131.011 23.2883 131.217 22.9859 131.557C22.6836 131.896 22.5265 132.341 22.5487 132.795C22.5383 133.047 22.5816 133.299 22.6758 133.533C22.77 133.768 22.9129 133.979 23.0951 134.154C23.2773 134.329 23.4945 134.463 23.7324 134.547C23.9703 134.631 24.2233 134.664 24.4747 134.643C24.7156 134.643 24.9541 134.594 25.1748 134.497C25.3956 134.401 25.5938 134.259 25.7567 134.081C25.9196 133.904 26.0437 133.694 26.1209 133.465C26.1982 133.237 26.227 132.995 26.2054 132.754C26.1967 132.501 26.1358 132.252 26.0266 132.022C25.9175 131.793 25.7623 131.589 25.5708 131.423C25.3794 131.256 25.1557 131.131 24.9138 131.055C24.6719 130.979 24.417 130.954 24.1649 130.981ZM24.468 186.154C24.7121 186.144 24.9517 186.085 25.1733 185.982C25.395 185.879 25.5942 185.734 25.7596 185.554C25.925 185.374 26.0533 185.163 26.1373 184.933C26.2213 184.703 26.2593 184.459 26.2492 184.215C26.239 183.971 26.1809 183.731 26.0781 183.509C25.9753 183.287 25.8298 183.087 25.65 182.922C25.4702 182.756 25.2596 182.628 25.0303 182.543C24.8009 182.459 24.5572 182.421 24.3131 182.431C23.8201 182.452 23.3555 182.668 23.0215 183.031C22.6875 183.395 22.5113 183.877 22.5319 184.37C22.5524 184.864 22.7679 185.329 23.131 185.663C23.4941 185.998 23.975 186.174 24.468 186.154V186.154ZM24.5555 139.45C23.2558 139.45 22.4342 140.32 22.5352 141.419C22.5305 141.663 22.577 141.905 22.6718 142.129C22.7666 142.353 22.9076 142.555 23.0855 142.721C23.2634 142.887 23.4743 143.014 23.7044 143.093C23.9345 143.172 24.1786 143.201 24.4208 143.179C24.6746 143.187 24.9272 143.141 25.1616 143.043C25.3961 142.946 25.607 142.799 25.7804 142.614C25.9538 142.428 26.0856 142.207 26.167 141.966C26.2484 141.726 26.2776 141.47 26.2525 141.217C26.257 140.99 26.2167 140.763 26.1338 140.551C26.0509 140.339 25.9271 140.146 25.7695 139.982C25.6119 139.818 25.4236 139.686 25.2153 139.595C25.007 139.504 24.7828 139.455 24.5555 139.45V139.45ZM7.04643 125.849C7.30297 125.86 7.55897 125.818 7.79876 125.726C8.03854 125.634 8.25705 125.494 8.4409 125.315C8.62474 125.135 8.77004 124.92 8.86789 124.682C8.96574 124.445 9.01408 124.19 9.00995 123.933C9.00581 123.675 8.94929 123.422 8.84385 123.188C8.73841 122.953 8.58627 122.743 8.39675 122.569C8.20723 122.396 7.98434 122.263 7.74172 122.179C7.49911 122.095 7.24188 122.061 6.98582 122.08C6.74122 122.07 6.49724 122.112 6.26977 122.202C6.04231 122.293 5.83644 122.43 5.66557 122.606C5.4947 122.782 5.36265 122.991 5.27801 123.221C5.19337 123.451 5.15804 123.696 5.17431 123.941C5.15829 124.193 5.19487 124.445 5.28171 124.682C5.36854 124.919 5.50373 125.135 5.67864 125.316C5.85354 125.498 6.06432 125.64 6.29751 125.736C6.53071 125.831 6.78119 125.877 7.03296 125.87L7.04643 125.849ZM26.2728 175.796C26.2918 175.543 26.2574 175.289 26.1718 175.05C26.0863 174.811 25.9514 174.593 25.7761 174.41C25.6008 174.227 25.3889 174.083 25.1542 173.987C24.9195 173.891 24.6674 173.846 24.4141 173.854C23.9323 173.863 23.4722 174.057 23.129 174.395C22.7859 174.734 22.5858 175.192 22.5703 175.674C22.5547 176.157 22.7248 176.627 23.0454 176.987C23.366 177.347 23.8126 177.57 24.2929 177.61C24.5418 177.632 24.7924 177.601 25.029 177.521C25.2656 177.441 25.4831 177.312 25.6677 177.144C25.8524 176.975 26.0003 176.77 26.1021 176.542C26.2039 176.314 26.2574 176.067 26.2593 175.816L26.2728 175.796ZM15.8346 130.907C15.5821 130.906 15.3321 130.958 15.1002 131.058C14.8684 131.159 14.6597 131.306 14.4872 131.49C14.3147 131.675 14.1821 131.894 14.0976 132.132C14.0131 132.37 13.9786 132.624 13.9962 132.876C13.9984 133.131 14.054 133.382 14.1594 133.614C14.2648 133.846 14.4177 134.053 14.6081 134.222C14.7985 134.391 15.0223 134.519 15.2649 134.596C15.5075 134.673 15.7635 134.698 16.0165 134.67C16.2584 134.672 16.4983 134.624 16.7208 134.529C16.9433 134.434 17.1436 134.293 17.3089 134.116C17.4742 133.939 17.6009 133.73 17.681 133.501C17.7611 133.273 17.7928 133.03 17.7741 132.788C17.7805 132.534 17.7335 132.281 17.6364 132.046C17.5392 131.811 17.3939 131.599 17.2099 131.424C17.0259 131.248 16.8073 131.114 16.5681 131.028C16.3289 130.943 16.0745 130.908 15.8212 130.927L15.8346 130.907ZM26.3064 149.788C26.3108 149.533 26.261 149.28 26.1603 149.047C26.0596 148.813 25.9103 148.603 25.7224 148.431C25.5344 148.26 25.3121 148.13 25.0703 148.051C24.8285 147.972 24.5726 147.946 24.3198 147.974C23.8179 147.993 23.3444 148.212 23.0034 148.581C22.6624 148.95 22.4819 149.44 22.5016 149.943C22.5212 150.445 22.7394 150.919 23.1082 151.261C23.477 151.602 23.9661 151.783 24.468 151.763C25.6667 151.723 26.2391 150.981 26.293 149.788H26.3064ZM24.4006 169.154C25.6532 169.013 26.3266 168.358 26.2795 167.131C26.2962 166.876 26.2556 166.62 26.1608 166.382C26.066 166.144 25.9194 165.93 25.7316 165.756C25.5438 165.583 25.3195 165.453 25.0753 165.377C24.831 165.301 24.5729 165.281 24.3198 165.317C24.0644 165.301 23.8085 165.341 23.5707 165.436C23.3329 165.531 23.1192 165.678 22.9451 165.866C22.771 166.054 22.6408 166.278 22.5641 166.523C22.4874 166.767 22.466 167.026 22.5016 167.28C22.5218 168.527 23.2827 169.073 24.3872 169.154H24.4006ZM15.8481 182.344C15.5859 182.337 15.3252 182.385 15.0818 182.482C14.8384 182.58 14.6174 182.727 14.4323 182.913C14.2472 183.099 14.1018 183.321 14.0051 183.565C13.9083 183.809 13.8622 184.07 13.8695 184.333C13.8769 184.595 13.9375 184.853 14.0477 185.092C14.1579 185.33 14.3153 185.543 14.5105 185.719C14.7057 185.894 14.9345 186.028 15.183 186.112C15.4315 186.196 15.6944 186.229 15.9559 186.208C16.2104 186.216 16.4638 186.17 16.6987 186.071C16.9336 185.973 17.1445 185.825 17.3171 185.637C17.4897 185.449 17.6199 185.227 17.6987 184.984C17.7776 184.742 17.8033 184.485 17.7741 184.232C17.7472 183.025 17.0266 182.425 15.8481 182.344ZM24.4612 156.477C23.2693 156.531 22.5285 157.104 22.4881 158.325C22.4526 158.578 22.4739 158.837 22.5507 159.082C22.6274 159.326 22.7575 159.55 22.9316 159.738C23.1057 159.926 23.3194 160.073 23.5572 160.168C23.795 160.263 24.0509 160.303 24.3063 160.287C24.5595 160.324 24.8176 160.303 25.0618 160.227C25.3061 160.151 25.5303 160.022 25.7181 159.848C25.9059 159.674 26.0526 159.46 26.1474 159.222C26.2422 158.985 26.2827 158.728 26.266 158.473C26.2959 158.22 26.2712 157.963 26.1937 157.72C26.1162 157.477 25.9876 157.253 25.8166 157.064C25.6457 156.875 25.4362 156.725 25.2025 156.624C24.9687 156.522 24.7159 156.472 24.4612 156.477V156.477ZM15.902 177.799C16.4432 177.788 16.9579 177.563 17.333 177.172C17.7081 176.781 17.9128 176.257 17.9021 175.715C17.8913 175.173 17.6661 174.658 17.2758 174.282C16.8856 173.907 16.3623 173.702 15.8212 173.713C15.5532 173.718 15.2889 173.776 15.0434 173.884C14.7979 173.991 14.5759 174.146 14.3902 174.34C14.2044 174.533 14.0586 174.761 13.961 175.011C13.8633 175.261 13.8158 175.528 13.8211 175.796C13.8264 176.065 13.8844 176.329 13.9919 176.575C14.0993 176.821 14.2541 177.043 14.4473 177.229C14.6405 177.415 14.8685 177.561 15.1181 177.659C15.3676 177.757 15.634 177.804 15.902 177.799V177.799ZM15.8144 139.322C15.2803 139.355 14.7789 139.591 14.4132 139.983C14.0476 140.374 13.8453 140.89 13.848 141.426C13.8618 141.693 13.928 141.954 14.0429 142.194C14.1578 142.435 14.3191 142.65 14.5175 142.828C14.7159 143.006 14.9475 143.143 15.199 143.231C15.4505 143.319 15.7169 143.357 15.9828 143.341C16.4997 143.322 16.9878 143.098 17.34 142.719C17.6922 142.34 17.8799 141.836 17.8617 141.318C17.8581 141.053 17.8024 140.79 17.6976 140.546C17.5928 140.302 17.441 140.081 17.2509 139.896C17.0608 139.71 16.8361 139.564 16.5896 139.466C16.3432 139.368 16.0798 139.319 15.8144 139.322V139.322ZM6.98582 134.831C7.52503 134.828 8.04192 134.615 8.42758 134.238C8.81324 133.861 9.03755 133.348 9.05324 132.808C9.05324 132.272 8.84039 131.757 8.46152 131.378C8.08264 130.999 7.56878 130.785 7.03296 130.785C6.51486 130.778 6.01484 130.976 5.64158 131.336C5.26832 131.696 5.05199 132.189 5.03962 132.707C5.02606 132.975 5.06585 133.243 5.15667 133.495C5.24749 133.748 5.38753 133.98 5.56864 134.177C5.74976 134.375 5.96832 134.535 6.21162 134.647C6.45492 134.759 6.71809 134.822 6.98582 134.831V134.831ZM17.9021 149.828C17.8765 149.289 17.6472 148.781 17.2608 148.405C16.8744 148.029 16.3597 147.815 15.8212 147.805C15.28 147.816 14.7653 148.042 14.3902 148.432C14.0151 148.823 13.8104 149.347 13.8211 149.889C13.8318 150.431 14.0571 150.946 14.4473 151.322C14.8376 151.697 15.3608 151.902 15.902 151.892C16.433 151.861 16.9333 151.632 17.3037 151.25C17.6742 150.868 17.8877 150.361 17.9021 149.828V149.828ZM7.0397 186.349C7.32051 186.36 7.60057 186.313 7.86277 186.212C8.12498 186.111 8.36382 185.957 8.56471 185.761C8.7656 185.564 8.92432 185.328 9.03117 185.068C9.13803 184.808 9.19078 184.528 9.18619 184.247C9.18161 183.966 9.11979 183.688 9.00451 183.431C8.88924 183.175 8.72292 182.944 8.51573 182.754C8.30854 182.564 8.06482 182.418 7.79946 182.326C7.53409 182.233 7.25266 182.196 6.97236 182.216C6.44494 182.253 5.95195 182.492 5.59475 182.882C5.23754 183.272 5.04328 183.785 5.05191 184.314C5.06053 184.844 5.27139 185.35 5.64112 185.728C6.01084 186.107 6.51134 186.329 7.0397 186.349V186.349ZM17.9223 167.219C17.9013 166.686 17.6827 166.18 17.3092 165.799C16.9356 165.419 16.4339 165.192 15.902 165.162C15.621 165.146 15.3397 165.188 15.0753 165.284C14.811 165.381 14.5691 165.53 14.3645 165.724C14.1599 165.917 13.9969 166.151 13.8855 166.41C13.7741 166.668 13.7166 166.947 13.7166 167.229C13.7166 167.511 13.7741 167.79 13.8855 168.048C13.9969 168.307 14.1599 168.54 14.3645 168.734C14.5691 168.927 14.811 169.077 15.0753 169.174C15.3397 169.27 15.621 169.312 15.902 169.296C16.4367 169.264 16.9403 169.034 17.3141 168.649C17.6878 168.265 17.9047 167.755 17.9223 167.219V167.219ZM17.9223 158.352C17.8908 157.817 17.6615 157.314 17.2792 156.94C16.8969 156.566 16.389 156.348 15.8548 156.329C15.5743 156.32 15.2948 156.368 15.0335 156.471C14.7722 156.574 14.5345 156.728 14.335 156.926C14.1355 157.124 13.9782 157.36 13.8728 157.621C13.7675 157.881 13.7162 158.161 13.7222 158.442C13.7281 158.723 13.7912 159 13.9075 159.255C14.0238 159.511 14.1909 159.741 14.3986 159.93C14.6063 160.119 14.8504 160.263 15.1158 160.355C15.3812 160.447 15.6624 160.483 15.9424 160.462C16.4784 160.418 16.9788 160.176 17.3451 159.781C17.7115 159.387 17.9173 158.87 17.9223 158.331V158.352ZM6.97909 139.255C6.4272 139.271 5.90431 139.506 5.52543 139.908C5.14656 140.31 4.94274 140.847 4.95881 141.399C4.97489 141.952 5.20954 142.475 5.61115 142.855C6.01275 143.234 6.54842 143.438 7.10031 143.422C7.65219 143.406 8.17509 143.171 8.55396 142.769C8.93284 142.367 9.13666 141.83 9.12059 141.278C9.10451 140.725 8.86986 140.202 8.46825 139.822C8.06664 139.443 7.53098 139.239 6.97909 139.255V139.255ZM9.14079 175.796C9.12932 175.239 8.90639 174.707 8.51734 174.309C8.1283 173.911 7.60234 173.676 7.04643 173.652C6.48785 173.664 5.95618 173.895 5.5649 174.294C5.17362 174.693 4.9537 175.23 4.95208 175.789C4.95373 176.329 5.16607 176.846 5.54364 177.23C5.92121 177.614 6.43403 177.836 6.97236 177.846C7.52899 177.854 8.06669 177.644 8.47148 177.261C8.87627 176.879 9.11633 176.353 9.14079 175.796V175.796ZM7.03296 151.986C7.59378 151.979 8.12879 151.749 8.52029 151.347C8.9118 150.945 9.12773 150.403 9.12059 149.842C9.11344 149.28 8.88381 148.744 8.4822 148.352C8.08059 147.96 7.53991 147.744 6.97909 147.751C6.7014 147.755 6.42713 147.813 6.17193 147.923C5.91674 148.032 5.68562 148.191 5.49176 148.391C5.10026 148.793 4.88433 149.334 4.89147 149.896C4.89861 150.457 5.12825 150.993 5.52986 151.385C5.93146 151.777 6.47215 151.993 7.03296 151.986V151.986ZM6.97236 169.356C7.25314 169.366 7.533 169.32 7.79596 169.221C8.05893 169.122 8.29984 168.972 8.50495 168.779C8.71006 168.587 8.87535 168.356 8.99138 168.1C9.10741 167.844 9.17191 167.567 9.18119 167.286C9.19048 167.005 9.14437 166.725 9.0455 166.462C8.94663 166.198 8.79693 165.957 8.60495 165.752C8.41297 165.546 8.18248 165.381 7.92662 165.265C7.67076 165.148 7.39456 165.084 7.11378 165.075C6.83432 165.065 6.55577 165.111 6.29403 165.21C6.0323 165.308 5.79249 165.457 5.58832 165.649C5.17598 166.035 4.93379 166.569 4.91504 167.135C4.89629 167.7 5.1025 168.249 5.48832 168.662C5.87415 169.075 6.40797 169.317 6.97236 169.336V169.356ZM9.17446 158.426C9.16965 157.864 8.94858 157.325 8.55725 156.922C8.16592 156.519 7.63445 156.282 7.07337 156.261C6.78395 156.241 6.49351 156.281 6.21979 156.377C5.94607 156.473 5.69482 156.624 5.48137 156.821C5.26792 157.018 5.09676 157.256 4.97833 157.521C4.8599 157.786 4.7967 158.073 4.79257 158.363C4.78845 158.654 4.84349 158.942 4.95434 159.211C5.06519 159.479 5.22952 159.722 5.4373 159.925C5.64507 160.127 5.89194 160.286 6.16281 160.39C6.43369 160.494 6.72289 160.541 7.01276 160.53C7.5742 160.525 8.11218 160.303 8.5148 159.912C8.91742 159.52 9.15369 158.988 9.17446 158.426V158.426Z" fill="white"/>
<path opacity="0.3" d="M323.792 177.348C323.792 193.91 310.362 207.34 293.792 207.34C277.223 207.34 263.792 193.91 263.792 177.348C263.792 160.785 277.223 147.355 293.792 147.355C310.362 147.355 323.792 160.785 323.792 177.348Z" stroke="white" stroke-width="12"/>
<circle opacity="0.3" cx="664.792" cy="21.3867" r="21.5" stroke="white" stroke-width="7"/>
<ellipse cx="425.792" cy="158.385" rx="8" ry="7.99824" fill="url(#paint0_linear_746_1476)"/>
<circle cx="235.792" cy="23.3867" r="8" fill="url(#paint1_linear_746_1476)"/>
<circle cx="328.292" cy="93.8867" r="5.5" fill="url(#paint2_linear_746_1476)"/>
<path opacity="0.3" d="M521.792 44.37C521.792 80.8094 492.245 110.353 455.792 110.353C419.339 110.353 389.792 80.8094 389.792 44.37C389.792 7.9305 419.339 -21.6133 455.792 -21.6133C492.245 -21.6133 521.792 7.9305 521.792 44.37Z" stroke="white" stroke-width="20"/>
</g>
<defs>
<linearGradient id="paint0_linear_746_1476" x1="420.681" y1="152.386" x2="430.456" y2="164.941" gradientUnits="userSpaceOnUse">
<stop stop-color="white"/>
<stop offset="1" stop-color="white" stop-opacity="0"/>
</linearGradient>
<linearGradient id="paint1_linear_746_1476" x1="230.681" y1="17.3867" x2="240.459" y2="29.9423" gradientUnits="userSpaceOnUse">
<stop stop-color="white"/>
<stop offset="1" stop-color="white" stop-opacity="0"/>
</linearGradient>
<linearGradient id="paint2_linear_746_1476" x1="324.778" y1="89.7617" x2="331.501" y2="98.3937" gradientUnits="userSpaceOnUse">
<stop stop-color="white"/>
<stop offset="1" stop-color="white" stop-opacity="0"/>
</linearGradient>
</defs>
</svg>
