<svg width="197" height="198" viewBox="0 0 197 198" fill="none" xmlns="http://www.w3.org/2000/svg">
<g clip-path="url(#clip0_746_1269)">
<path d="M41.6425 80.2538C41.6425 80.7802 41.4839 81.2948 41.1867 81.7325C40.8895 82.1703 40.467 82.5114 39.9728 82.7129C39.4785 82.9143 38.9347 82.967 38.41 82.8643C37.8853 82.7616 37.4033 82.5081 37.025 82.1359C36.6468 81.7636 36.3891 81.2894 36.2848 80.7731C36.1804 80.2567 36.234 79.7216 36.4387 79.2352C36.6434 78.7488 36.9901 78.3331 37.4349 78.0407C37.8797 77.7482 38.4027 77.5921 38.9377 77.5921C39.655 77.5921 40.343 77.8725 40.8503 78.3717C41.3576 78.8709 41.6425 79.5479 41.6425 80.2538ZM44.6029 79.7481C44.3562 79.7481 44.115 79.8201 43.9099 79.9549C43.7048 80.0898 43.545 80.2815 43.4506 80.5057C43.3562 80.73 43.3315 80.9768 43.3796 81.2148C43.4277 81.4529 43.5465 81.6716 43.7209 81.8433C43.8954 82.0149 44.1176 82.1318 44.3595 82.1791C44.6015 82.2265 44.8523 82.2022 45.0802 82.1093C45.3081 82.0164 45.5029 81.8591 45.6399 81.6573C45.777 81.4554 45.8501 81.2181 45.8501 80.9754C45.8501 80.6499 45.7187 80.3377 45.4848 80.1075C45.2509 79.8774 44.9337 79.7481 44.6029 79.7481ZM18.6301 53.0928C15.1136 53.0928 11.676 54.1189 8.75207 56.0414C5.82816 57.9639 3.54925 60.6964 2.20353 63.8934C0.857802 67.0904 0.505698 70.6083 1.19174 74.0022C1.87779 77.3962 3.57117 80.5137 6.05775 82.9606C8.54433 85.4074 11.7124 87.0738 15.1614 87.7489C18.6104 88.424 22.1854 88.0775 25.4342 86.7532C28.6831 85.429 31.46 83.1865 33.4136 80.3092C35.3673 77.432 36.4101 74.0493 36.4101 70.5889C36.4101 65.9487 34.5369 61.4984 31.2025 58.2173C27.8681 54.9361 23.3457 53.0928 18.6301 53.0928Z" fill="#A381DB"/>
<path d="M27.3248 72.3191C25.2721 75.6551 21.8369 77.7726 20.9954 78.2576L18.2514 79.8369L15.5105 78.2576C14.669 77.7726 11.2308 75.6551 9.18112 72.3191H14.9966C15.0901 72.319 15.182 72.2952 15.2636 72.2502C15.3452 72.2051 15.4136 72.1403 15.4624 72.0618L15.8832 71.3934L16.8599 74.4218C16.8957 74.5313 16.9659 74.6267 17.0605 74.6942C17.1551 74.7617 17.269 74.7979 17.3859 74.7974H17.4039C17.5236 74.7941 17.6389 74.752 17.7318 74.6777C17.8247 74.6034 17.8901 74.5009 17.9178 74.3863L18.9367 70.2962L19.7481 73.4074C19.7748 73.5066 19.8295 73.5963 19.9058 73.6662C19.9821 73.7362 20.0769 73.7834 20.1794 73.8026C20.2818 73.8218 20.3876 73.812 20.4847 73.7746C20.5817 73.7371 20.6661 73.6734 20.7279 73.5908L21.6596 72.3191H27.3248ZM8.58605 71.2367H14.69L15.5766 69.82C15.632 69.732 15.7119 69.6615 15.8068 69.6168C15.9017 69.5722 16.0076 69.5552 16.112 69.568C16.2164 69.5807 16.3149 69.6227 16.3958 69.6888C16.4767 69.755 16.5366 69.8426 16.5684 69.9413L17.3168 72.2599L18.3897 67.945C18.4192 67.828 18.4875 67.724 18.5839 67.6495C18.6802 67.575 18.7991 67.5344 18.9217 67.534C19.0434 67.534 19.1617 67.5739 19.2579 67.6472C19.3542 67.7205 19.423 67.8232 19.4536 67.9391L20.5205 72.0204L20.9293 71.4614C20.9806 71.3918 21.0479 71.3351 21.1257 71.2961C21.2036 71.257 21.2897 71.2366 21.3771 71.2367H27.9168C28.2799 70.4831 28.5473 69.6885 28.7133 68.8707C28.9714 67.5457 28.711 66.1736 27.9843 65.0296C27.2576 63.8856 26.1182 63.0542 24.7947 62.7022C23.4712 62.3501 22.0613 62.5034 20.8478 63.1313C19.6343 63.7592 18.7069 64.8152 18.2514 66.0878C17.8004 64.8091 16.8734 63.7464 15.6574 63.1139C14.4413 62.4814 13.0268 62.3262 11.6991 62.6797C10.3714 63.0332 9.22931 63.8689 8.5032 65.0184C7.7771 66.168 7.52101 67.5457 7.78661 68.8737C7.9538 69.6906 8.22229 70.4842 8.58605 71.2367Z" fill="white"/>
</g>
<path d="M120.942 192.283C124.207 189.92 128.629 190.158 132.596 190.824C136.563 191.49 140.665 192.536 144.54 191.417C151.195 189.497 154.508 182.251 159.26 177.193C163.217 172.977 168.399 170.161 173.529 167.521C178.658 164.88 183.918 162.278 188.185 158.378C192.453 154.478 196.807 148.118 196.589 142.331C190.593 143.25 185.449 138.173 181.995 133.149C178.542 128.126 175.214 122.305 169.465 120.404C165.009 118.945 160.112 120.219 155.472 119.489C150.076 118.643 145.402 115.083 142.055 110.736C138.708 106.388 136.509 101.321 134.369 96.2881C126.134 127.387 121.252 160.114 120.942 192.283Z" fill="url(#paint0_linear_746_1269)"/>
<path style="mix-blend-mode:multiply" opacity="0.5" d="M174.162 123.129C172.789 121.919 171.193 120.99 169.464 120.396C168.247 120.015 166.988 119.786 165.715 119.716C160.791 126.099 156.021 132.598 151.407 139.211C147.774 128.197 143.531 117.945 139.661 107.228C137.752 103.916 136.069 100.478 134.624 96.9375C134.46 96.9478 134.298 96.9755 134.14 97.0202C127.475 122.507 123.024 149.054 121.503 175.518C123.67 180.401 126.368 185.028 129.548 189.314C129.848 189.723 130.158 190.126 130.478 190.53C131.19 190.608 131.892 190.71 132.585 190.832C136.552 191.508 140.659 192.529 144.529 191.41C147.963 190.438 150.506 188.006 152.817 185.215C145.789 177.624 140.326 168.712 136.741 158.994C142.553 162.816 150.962 162.398 156.628 158.352C160.324 155.711 162.843 151.748 164.984 147.736C169.127 139.984 172.214 131.707 174.162 123.129Z" fill="url(#paint1_linear_746_1269)"/>
<path style="mix-blend-mode:multiply" opacity="0.5" d="M189.818 156.196C181.274 152.956 173.187 148.615 165.76 143.28C154.237 135.013 143.988 123.381 141.232 109.648C138.326 105.568 136.325 100.894 134.344 96.3086C126.759 125.097 121.998 155.287 121.087 185.126C121.907 187.103 122.845 189.029 123.897 190.893C126.633 190.115 129.733 190.368 132.615 190.859C136.582 191.535 140.689 192.556 144.559 191.438C146.958 190.678 149.121 189.307 150.837 187.46L144.632 172.312C143.789 170.26 142.985 167.784 144.23 165.951C145.165 164.575 147.01 164.084 148.657 164.269C150.304 164.453 151.83 165.197 153.36 165.839C158.834 168.105 164.718 169.2 170.637 169.054C171.606 168.528 172.575 168.023 173.543 167.522C178.677 164.876 183.933 162.28 188.2 158.379C188.883 157.757 189.566 157.071 190.229 156.332L189.818 156.196Z" fill="url(#paint2_linear_746_1269)"/>
<path d="M110.455 71.9435C96.6702 69.264 96.7235 69.2105 83.6895 71.6225C83.6895 71.6225 83.8348 79.1844 96.8785 79.7728C109.922 80.3613 110.455 71.9435 110.455 71.9435Z" fill="url(#paint3_linear_746_1269)"/>
<path d="M84.4787 68.3866C84.4787 68.3866 94.5969 62.6629 109.079 68.3866L112.136 73.7359H82.1538L84.4787 68.3866Z" fill="url(#paint4_linear_746_1269)"/>
<path style="mix-blend-mode:multiply" opacity="0.5" d="M84.4787 68.3866C84.4787 68.3866 94.5969 62.6629 109.079 68.3866L112.136 73.7359H82.1538L84.4787 68.3866Z" fill="url(#paint5_linear_746_1269)"/>
<path d="M110.455 71.9435C96.6702 69.264 96.7235 69.2105 83.6895 71.6225C83.6895 71.6225 83.8348 79.1844 96.8785 79.7728C109.922 80.3613 110.455 71.9435 110.455 71.9435Z" fill="url(#paint6_linear_746_1269)"/>
<path d="M110.455 71.9435C96.6702 69.264 96.7235 69.2105 83.6895 71.6225C83.6895 71.6225 83.8348 79.1844 96.8785 79.7728C109.922 80.3613 110.455 71.9435 110.455 71.9435Z" fill="url(#paint7_linear_746_1269)"/>
<path d="M75.1497 78.4235C75.8278 80.1013 76.5737 81.7547 77.3147 83.4227C79.0487 87.313 80.7052 91.2618 83.5533 94.2233C89.6804 100.633 98.7814 103.871 106.802 101.795C116.058 99.3975 122.147 91.9085 126.724 82.9218C116.683 77.6892 102.84 70.3073 102.84 69.359C102.84 67.8758 103.756 57.0605 103.756 57.0605H89.5738C89.5738 57.0605 90.4844 67.8758 90.4893 69.359C90.4893 70.0544 83.0689 74.1976 75.1497 78.4235Z" fill="url(#paint8_linear_746_1269)"/>
<path d="M103.049 65.595C98.6927 66.6483 94.1042 66.0781 90.1356 63.9903C89.8789 60.6591 89.5737 57.0605 89.5737 57.0605H103.731C103.731 57.0605 103.32 61.9381 103.049 65.595Z" fill="url(#paint9_linear_746_1269)"/>
<path d="M110.455 71.943C110.455 71.943 99.8234 85.9629 96.7671 86.104C94.3453 86.211 83.6895 71.6221 83.6895 71.6221C83.6895 71.6221 87.666 87.5434 96.7671 87.5191C105.374 87.4948 110.455 71.943 110.455 71.943Z" fill="url(#paint10_linear_746_1269)"/>
<path d="M110.455 71.943C110.455 71.943 99.1017 86.9842 96.7671 86.8577C94.2823 86.7216 83.6895 71.6221 83.6895 71.6221C83.6895 71.6221 87.666 88.3944 96.7671 88.3701C105.374 88.3458 110.455 71.943 110.455 71.943Z" fill="#25ACE0"/>
<path style="mix-blend-mode:multiply" opacity="0.3" d="M148.328 142.119L148.148 141.925L148.328 142.119Z" fill="url(#paint11_linear_746_1269)"/>
<path d="M54.2996 197.049H136.853L128.595 92.4948L132.77 85.322L110.456 71.9294C110.456 71.9294 100.013 87.9771 96.768 87.8945C92.8931 87.8021 83.6903 71.6084 83.6903 71.6084V71.6959V71.6084C83.6903 71.6084 70.7774 78.4165 66.0307 81.4705C64.0642 82.73 60.7706 85.322 60.7706 85.322L64.9457 92.4948L54.2996 197.049Z" fill="url(#paint12_linear_746_1269)"/>
<path style="mix-blend-mode:multiply" opacity="0.5" d="M82.5946 75.5283C80.817 102.936 94.2918 146.96 94.2918 146.96L82.9336 197.049C82.9336 197.049 78.5502 114.894 78.5357 96.1765C78.5212 77.4589 82.5946 75.5283 82.5946 75.5283Z" fill="url(#paint13_linear_746_1269)"/>
<path style="mix-blend-mode:multiply" opacity="0.5" d="M110.945 75.5283C112.722 102.936 99.2473 146.96 99.2473 146.96L110.605 197.049C110.605 197.049 114.994 114.894 114.994 96.1765C114.994 77.4589 110.945 75.5283 110.945 75.5283Z" fill="url(#paint14_linear_746_1269)"/>
<path style="mix-blend-mode:multiply" opacity="0.5" d="M136.853 197.044L128.594 92.4903L130.827 88.6534L130.566 83.9947L126.347 81.4659C123.673 97.2879 119.699 112.86 114.466 128.024C112.562 133.495 110.218 139.238 106.232 141.606C102.245 143.974 97.5956 142.277 93.5997 139.841C87.5501 136.155 82.0284 130.796 77.3592 124.241C73.2809 118.517 67.8997 110.055 66.374 101.993C65.168 95.6075 68.1661 98.3258 70.5443 100.436C73.6347 103.185 76.8874 105.745 80.2847 108.1C83.5678 110.375 86.9946 112.433 90.5434 114.262C93.498 115.779 98.143 116.329 100.715 118.677C89.1727 108.159 79.1513 94.3285 71.3145 78.3877C69.2317 79.5645 67.3282 80.6733 66.0301 81.5049C64.9645 82.1857 63.5163 83.2555 62.4071 84.0968L62.1456 87.7197L64.9452 92.5292L54.2893 197.083L136.853 197.044ZM117.13 160.757C107.414 165.255 98.0219 160.475 88.7997 154.226C79.5776 147.977 73.2761 136.661 69.6773 123.127C82.8518 141.159 99.3732 154.25 117.13 160.757Z" fill="url(#paint15_linear_746_1269)"/>
<g opacity="0.19">
<path d="M84.0188 72.1526C84.1018 73.5481 84.2929 74.935 84.5904 76.3007C84.5971 76.3211 84.6108 76.3385 84.629 76.3499C84.6472 76.3613 84.6687 76.366 84.69 76.3631C84.7112 76.3602 84.7308 76.35 84.7453 76.3341C84.7599 76.3183 84.7684 76.2979 84.7696 76.2764C84.6467 74.8828 84.4167 73.5009 84.0818 72.1429C84.0818 72.1088 84.014 72.1137 84.0188 72.1429V72.1526Z" fill="#001200"/>
</g>
<path d="M82.542 72.1631C82.542 72.1631 62.3927 82.4337 60.0145 84.0482C57.6363 85.6627 59.0119 87.034 59.0119 87.034L61.7582 121.245L53.311 197.049H82.9343C86.2376 179.892 89.1438 166.135 93.6192 146.289C93.6192 146.289 83.5979 121.999 81.583 111.529C76.6813 86.0225 82.542 72.1631 82.542 72.1631Z" fill="url(#paint16_linear_746_1269)"/>
<path style="mix-blend-mode:multiply" opacity="0.5" d="M83.3702 151.553L92.0209 146.899L87.1773 135.466C88.6304 137.163 90.1125 138.972 91.4542 140.874V140.918L91.6431 141.404C91.6818 141.496 91.7157 141.589 91.7496 141.676L91.8513 141.934L91.9627 142.206C91.9918 142.284 92.0209 142.362 92.0548 142.435C92.0887 142.508 92.1274 142.625 92.1662 142.717C92.2049 142.809 92.2098 142.834 92.234 142.887C92.2582 142.941 92.3066 143.077 92.3454 143.164C92.3841 143.252 92.3938 143.286 92.4132 143.344L92.6408 143.903L92.6699 143.976L92.7619 144.21L92.82 144.356C92.8588 144.443 92.8878 144.526 92.9218 144.609L92.946 144.672C93.0283 144.866 93.101 145.051 93.1688 145.212L93.5998 146.267C89.1244 166.113 86.2183 179.87 82.9149 197.026H53.311L61.7485 121.223L61.6904 120.488L83.3702 151.553Z" fill="url(#paint17_linear_746_1269)"/>
<path d="M93.6183 146.287C89.0508 133.983 86.043 120.902 84.0329 107.83C81.7952 93.2413 80.1145 80.7824 84.4688 68.3867C84.4688 68.3867 71.4687 84.0503 70.5774 87.8775C69.6862 91.7046 77.1502 96.0959 77.1502 96.0959C77.1502 96.0959 71.2459 100.142 69.6233 103.24C68.0007 106.337 93.6183 146.287 93.6183 146.287Z" fill="url(#paint18_linear_746_1269)"/>
<path d="M164.253 103.921C165.425 100.488 167.29 97.0354 166.762 93.3347C165.885 87.1393 162.921 84.5036 158.174 81.2259C157.932 81.0606 157.69 80.8466 157.651 80.5548C157.651 80.0685 158.261 79.8789 158.736 79.84C160.518 79.6844 162.533 79.6163 163.822 80.8563C164.509 81.5177 164.863 82.4563 165.464 83.1954C166.224 84.1242 168.554 85.6269 169.411 84.4549C170.05 83.5796 169.411 81.4642 169.363 80.4624C169.019 75.2931 168.011 70.1092 168.103 64.901C168.06 64.0219 168.175 63.1422 168.442 62.3041C169.895 58.9001 173.058 61.2246 172.06 67.1671C171.445 70.6216 171.445 74.1583 172.06 77.6127C172.06 77.6127 175.572 64.1569 177.388 62.4549C179.205 60.7528 180.779 64.2931 179.902 67.1622C179.026 70.0314 175.543 76.4456 175.412 79.2905C175.412 79.2905 181.709 70.8095 185.584 68.2904C189.459 65.7714 189.662 69.1123 188.19 71.0283C186.717 72.9443 179.956 77.0389 178.28 81.2405C178.28 81.2405 186.921 74.5685 190.335 75.9253C193.135 77.0389 191.13 78.5027 189.076 79.0911C186.349 79.874 186.01 79.8643 183.264 81.0606C180.382 82.2812 180.575 82.8696 180.866 87.7131C181.157 92.5566 182.053 95.0805 177.96 96.2184C176.507 96.6318 175.146 102.428 173.601 106.022C171.111 105.351 166.747 104.573 164.253 103.921Z" fill="url(#paint19_radial_746_1269)"/>
<path d="M187.346 79.126C187.111 79.1136 186.879 79.0644 186.659 78.9801C186.513 78.9354 186.381 78.8515 186.279 78.7376C186.176 78.6237 186.107 78.4839 186.077 78.3333C186.005 77.8033 186.562 77.4191 187.046 77.2051C187.894 76.8404 189.468 76.8112 189.952 77.8957C190.471 79.1892 188.184 79.1795 187.346 79.126ZM164.402 81.5575C164.234 81.2993 164.04 81.0597 163.821 80.8426C162.533 79.6026 160.518 79.6707 158.735 79.8263L158.513 79.8554C159.043 80.7043 159.753 81.4263 160.591 81.9708C162.011 82.8241 163.573 83.4122 165.202 83.7069C165.031 82.9605 164.761 82.2408 164.398 81.5672L164.402 81.5575ZM188.199 71.0049C188.773 70.288 189.068 69.3855 189.027 68.4664C188.107 68.3108 186.789 69.2153 186.237 69.6773C185.33 70.492 184.578 71.4659 184.019 72.5513C183.699 73.13 183.433 73.9178 183.898 74.3846C183.969 74.4586 184.055 74.5167 184.15 74.5548C185.932 73.0862 187.564 71.8462 188.199 71.0146V71.0049ZM168.442 62.3391C168.264 62.8142 168.162 63.315 168.142 63.8223C168.715 66.4411 169.925 68.8769 171.663 70.9125C171.72 69.6523 171.854 68.3969 172.065 67.1534C173.058 61.2352 169.919 58.8864 168.442 62.3391ZM176.507 70.0663C176.501 70.59 176.612 71.1083 176.831 71.5835C176.927 71.7682 177.059 71.9317 177.218 72.0645C177.378 72.1973 177.563 72.2967 177.761 72.3568C178.647 70.3386 179.534 68.408 179.912 67.1485C180.473 65.3103 180.033 63.1998 179.161 62.3634C178.912 62.5126 178.686 62.6959 178.488 62.908C176.88 64.5809 176.424 67.8537 176.507 70.0663Z" fill="#7CFBD2"/>
<path style="mix-blend-mode:multiply" opacity="0.5" d="M173.645 105.913C175.18 102.314 176.508 96.6248 177.97 96.2163C178.866 96.0244 179.688 95.5789 180.339 94.9325C178.561 90.8719 175.355 86.8065 172.042 83.8936C172.841 86.8697 173.597 90.4294 173.136 93.4736C170.55 90.5558 166.263 87.2539 163.009 85.1287C163.274 85.3925 163.52 85.6753 163.745 85.9749C163.934 86.2083 164.118 86.4612 164.292 86.6898C164.457 86.928 164.621 87.176 164.776 87.4241C164.776 87.4241 164.776 87.4484 164.776 87.463C164.927 87.7061 165.062 87.9493 165.198 88.2119C165.209 88.2372 165.222 88.2615 165.237 88.2848C165.359 88.5312 165.476 88.7841 165.585 89.0434C165.605 89.083 165.623 89.1236 165.639 89.165C165.745 89.4082 165.837 89.6513 165.929 89.9285C165.929 89.9868 165.973 90.0403 165.992 90.0987C166.079 90.3516 166.152 90.6142 166.23 90.8816C166.23 90.9546 166.273 91.0275 166.292 91.1005C166.36 91.3679 166.423 91.6451 166.481 91.9272C166.481 92.0098 166.525 92.0876 166.539 92.1752C166.612 92.5399 166.68 92.9241 166.733 93.318C166.925 94.9074 166.781 96.5195 166.312 98.0496C166.186 98.4922 166.05 98.9298 165.9 99.3675C165.532 100.457 165.096 101.541 164.689 102.616C164.525 103.044 164.37 103.472 164.205 103.905L164.689 104.026L164.791 104.051L165.237 104.158L165.333 104.182L165.818 104.294L166.418 104.425L167.436 104.644L168.181 104.804C169.247 105.028 170.332 105.252 171.33 105.475L172.192 105.67C172.676 105.782 173.098 105.889 173.485 105.996C173.499 105.966 173.522 105.942 173.551 105.927C173.58 105.912 173.613 105.907 173.645 105.913Z" fill="url(#paint20_linear_746_1269)"/>
<path style="mix-blend-mode:multiply" opacity="0.5" d="M164.756 104.047L164.858 104.071L165.304 104.178L165.401 104.202L165.885 104.314L166.485 104.445L167.503 104.664L168.249 104.825C169.314 105.048 170.399 105.272 171.397 105.496L172.259 105.69C172.743 105.802 173.165 105.909 173.552 106.016C173.552 105.996 173.557 105.976 173.565 105.957C173.574 105.939 173.586 105.923 173.601 105.909C173.872 105.272 174.138 104.562 174.4 103.833C171.765 102.811 168.282 100.959 165.788 99.6602C165.643 100.069 165.493 100.477 165.338 100.881L164.785 102.34L164.655 102.68C164.5 103.098 164.349 103.512 164.209 103.925L164.756 104.047Z" fill="url(#paint21_linear_746_1269)"/>
<path style="mix-blend-mode:multiply" opacity="0.5" d="M178.188 75.7867L175.326 81.1894C175.326 81.1894 175.365 80.2168 175.437 79.2832C175.437 79.2832 176.58 77.7465 178.188 75.7867ZM172.434 78.6753L172.919 74.4883C172.4 76.3168 172.061 77.6054 172.061 77.6054L172.434 78.6753ZM181.095 79.254L177.84 82.7942L178.29 81.2186C178.29 81.2186 179.453 80.3384 181.095 79.254Z" fill="url(#paint22_linear_746_1269)"/>
<path style="mix-blend-mode:multiply" opacity="0.5" d="M176.71 92.7782L172.041 83.8936C174.438 85.9846 175.538 89.8118 176.71 92.7782Z" fill="url(#paint23_linear_746_1269)"/>
<path style="mix-blend-mode:multiply" opacity="0.5" d="M177.564 84.6351C176.208 82.8973 174.584 81.3885 172.754 80.166C174.904 81.265 176.614 82.4078 177.564 84.6351Z" fill="url(#paint24_linear_746_1269)"/>
<path d="M176.506 107.499L164.47 99.426L147.706 136.385C143.803 119.316 134.546 87.04 134.546 87.04L130.919 94.1837L122.743 126.552C122.743 126.552 136.886 165.757 150.608 159.08C151.257 158.764 151.925 158.866 152.419 158.492C161.055 154.407 173.435 131.079 176.506 107.499Z" fill="url(#paint25_linear_746_1269)"/>
<path d="M147.697 136.379C144.597 147.563 150.337 156.409 154.929 154.187C158.189 152.606 165.585 141.893 171.271 129.031C173.759 122.059 175.514 114.845 176.507 107.507L164.471 99.4346L147.697 136.379Z" fill="url(#paint26_linear_746_1269)"/>
<path style="mix-blend-mode:multiply" opacity="0.5" d="M135.515 128.892C134.77 135.277 135.394 152.949 143.667 158.936C132.503 153.586 122.748 126.558 122.748 126.558L124.39 120.046L131.602 100.556C131.602 100.556 136.513 120.397 135.515 128.892Z" fill="url(#paint27_linear_746_1269)"/>
<path d="M62.6303 94.1701L59.0025 87.0264C59.0025 87.0264 49.7464 119.302 45.8425 136.371L41.1975 126.129V158.541C41.6819 158.852 42.3067 158.779 42.9267 159.081C56.6485 165.758 70.7917 126.553 70.7917 126.553L62.6303 94.1701Z" fill="url(#paint28_linear_746_1269)"/>
<path style="mix-blend-mode:multiply" opacity="0.5" d="M58.0241 128.892C58.77 135.277 58.1403 152.949 49.8723 158.936C61.0367 153.586 70.7917 126.558 70.7917 126.558L69.1497 120.046L64.1366 100.556C64.1366 100.556 57.0263 120.397 58.0241 128.892Z" fill="url(#paint29_linear_746_1269)"/>
<path d="M111.008 72.1631C111.008 72.1631 131.157 82.4337 133.535 84.0482C135.913 85.6627 134.538 87.034 134.538 87.034L131.792 121.245L140.229 197.049H110.606C107.302 179.892 104.396 166.135 99.9209 146.289C99.9209 146.289 109.942 121.999 111.952 111.529C116.859 86.0225 111.008 72.1631 111.008 72.1631Z" fill="url(#paint30_linear_746_1269)"/>
<path style="mix-blend-mode:multiply" opacity="0.5" d="M105.733 172.82C112.291 158.63 118.534 144.26 125.165 130.084L110.15 151.559L101.495 146.905L106.338 135.472C104.885 137.169 103.403 138.978 102.061 140.88V140.924L101.873 141.41C101.834 141.502 101.8 141.595 101.766 141.682L101.664 141.94L101.553 142.212C101.524 142.29 101.495 142.368 101.461 142.441C101.427 142.514 101.388 142.63 101.349 142.723C101.311 142.815 101.306 142.84 101.282 142.893C101.257 142.947 101.209 143.083 101.17 143.17C101.132 143.258 101.122 143.292 101.102 143.35C101.02 143.545 100.947 143.729 100.875 143.909L100.846 143.982L100.754 144.216L100.696 144.362C100.657 144.449 100.623 144.532 100.594 144.615L100.57 144.678C100.487 144.872 100.415 145.057 100.347 145.218L99.9158 146.273C102.173 156.271 104.028 164.713 105.733 172.82Z" fill="url(#paint31_linear_746_1269)"/>
<path d="M99.9209 146.287C104.488 133.983 107.496 120.902 109.506 107.83C111.744 93.2413 113.425 80.7824 109.07 68.3867C109.07 68.3867 122.071 84.0503 122.962 87.8775C123.853 91.7046 116.389 96.0959 116.389 96.0959C116.389 96.0959 122.293 100.142 123.916 103.24C125.539 106.337 99.9209 146.287 99.9209 146.287Z" fill="url(#paint32_linear_746_1269)"/>
<path style="mix-blend-mode:multiply" opacity="0.3" d="M83.4422 171.791C76.3242 171.222 69.3776 169.306 62.9685 166.146C62.9685 166.146 59.7717 188 68.9164 190.835C78.061 193.67 83.4422 171.791 83.4422 171.791Z" fill="url(#paint33_linear_746_1269)"/>
<path style="mix-blend-mode:multiply" opacity="0.5" d="M62.9692 166.146C69.3784 169.306 76.325 171.222 83.443 171.791L62.9692 166.146Z" fill="url(#paint34_linear_746_1269)"/>
<path style="mix-blend-mode:multiply" opacity="0.3" d="M110.097 171.791C117.215 171.222 124.162 169.306 130.571 166.146C130.571 166.146 133.768 188 124.623 190.835C115.478 193.67 110.097 171.791 110.097 171.791Z" fill="url(#paint35_linear_746_1269)"/>
<path style="mix-blend-mode:multiply" opacity="0.5" d="M130.571 166.146C124.162 169.306 117.215 171.222 110.097 171.791L130.571 166.146Z" fill="url(#paint36_linear_746_1269)"/>
<path d="M81.7949 37.1484C81.9558 37.1878 82.104 37.268 82.2252 37.3812C82.3465 37.4945 82.4368 37.6371 82.4876 37.7954C82.1878 37.6687 81.9424 37.4395 81.7949 37.1484ZM82.5408 38.3693C82.4741 38.2166 82.3729 38.0817 82.245 37.9753C82.1172 37.8689 81.9664 37.7939 81.8046 37.7564C81.864 37.9138 81.9631 38.053 82.0922 38.1605C82.2212 38.2679 82.3758 38.3398 82.5408 38.3693Z" fill="#131163"/>
<path d="M111.05 37.7954C111.101 37.6371 111.192 37.4945 111.313 37.3812C111.434 37.268 111.582 37.1878 111.743 37.1484C111.596 37.4395 111.35 37.6687 111.05 37.7954ZM111.743 37.7564C111.581 37.7939 111.43 37.8689 111.303 37.9753C111.175 38.0817 111.074 38.2166 111.007 38.3693C111.172 38.3398 111.326 38.2679 111.456 38.1605C111.585 38.053 111.684 37.9138 111.743 37.7564Z" fill="#131163"/>
<path d="M78.9665 35.9713C78.9665 35.9713 76.0604 30.7825 71.8513 33.7343C67.6423 36.6861 72.3066 47.4916 76.9032 47.302C79.1845 47.2096 80.0127 43.7812 80.0127 43.7812L78.9665 35.9713Z" fill="url(#paint37_linear_746_1269)"/>
<path d="M72.1863 36.8613C73.5964 37.3578 74.8453 38.2302 75.7993 39.385C76.7532 40.5398 77.3762 41.9335 77.6014 43.4166C77.6801 43.9209 77.5807 44.437 77.3205 44.8755C77.1859 45.0909 76.9923 45.2628 76.763 45.3706C76.5336 45.4784 76.2782 45.5176 76.0272 45.4834C75.3249 45.3423 74.9568 44.5691 74.7873 43.8689C74.5015 42.6585 74.5015 41.3979 74.7873 40.1876C74.1964 39.1664 73.1308 37.581 72.1863 36.8613Z" fill="url(#paint38_linear_746_1269)"/>
<path d="M78.967 35.972C78.967 35.972 76.0609 30.7821 71.8518 33.7345C71.3601 34.0818 70.9663 34.551 70.7087 35.0965C71.6118 34.7472 72.575 34.5818 73.5422 34.61C75.4449 34.7646 77.2983 35.2952 78.9961 36.1714L78.967 35.972Z" fill="url(#paint39_linear_746_1269)"/>
<path d="M114.572 35.9713C114.572 35.9713 117.478 30.7825 121.687 33.7343C125.896 36.6861 121.232 47.4916 116.635 47.302C114.354 47.2096 113.526 43.7812 113.526 43.7812L114.572 35.9713Z" fill="url(#paint40_linear_746_1269)"/>
<path d="M121.352 36.8613C119.947 37.3615 118.703 38.2354 117.753 39.39C116.804 40.5445 116.185 41.9362 115.962 43.4166C115.883 43.9209 115.982 44.437 116.242 44.8755C116.377 45.0909 116.571 45.2628 116.8 45.3706C117.029 45.4784 117.285 45.5176 117.536 45.4834C118.238 45.3423 118.606 44.5691 118.776 43.8689C119.061 42.6585 119.061 41.3979 118.776 40.1876C119.352 39.1664 120.408 37.581 121.352 36.8613Z" fill="url(#paint41_linear_746_1269)"/>
<path d="M114.572 35.972C114.572 35.972 117.478 30.7821 121.687 33.7345C122.179 34.0818 122.573 34.551 122.831 35.0965C121.928 34.7472 120.964 34.5818 119.997 34.61C118.094 34.7646 116.241 35.2952 114.543 36.1714L114.572 35.972Z" fill="url(#paint42_linear_746_1269)"/>
<path d="M96.7668 7.47656C80.163 7.47656 75.8765 25.6786 75.8765 25.6786C75.8765 25.6786 78.2014 49.1522 80.4827 53.3975C81.1608 54.6716 87.0457 64.3441 96.7668 64.3441C106.483 64.3441 112.368 54.6716 113.051 53.3975C115.332 49.1327 117.657 25.6786 117.657 25.6786C117.657 25.6786 113.371 7.47656 96.7668 7.47656Z" fill="url(#paint43_linear_746_1269)"/>
<path d="M114.936 27.0401C116.597 23.3393 108.465 13.3216 108.465 13.3216L98.25 11.7314L85.6954 12.8888L80.4111 16.1422C79.3144 17.6688 78.3656 19.2972 77.5776 21.0051L76.8511 23.884L79.3358 29.1409C80.1011 25.7368 80.6775 20.1346 87.8363 21.8026C87.8363 21.8026 90.1418 18.6077 94.1329 18.5931C98.124 18.5785 101.771 21.8707 99.0007 28.4746C100.532 26.6714 101.62 24.5328 102.178 22.2306L104.3 30.8769C104.3 30.8769 108.068 30.7262 109.991 27.6042L108.814 31.7036C108.814 31.7036 113.275 30.731 114.936 27.0401Z" fill="url(#paint44_linear_746_1269)"/>
<path d="M78.9815 26.7631C80.7252 18.4036 87.8355 21.8223 87.8355 21.8223C87.8355 21.8223 90.3978 17.29 95.2704 17.8833C98.2889 18.3176 101.066 19.7845 103.132 22.0363C103.132 22.0363 101.005 10.6958 92.5629 11.824C84.1205 12.9522 78.6279 22.6636 78.6279 22.6636L78.9815 26.7631Z" fill="#131163"/>
<path d="M109.432 32.8327C110.451 33.1762 111.374 33.7579 112.125 34.5299C112.266 35.0162 112.61 36.2514 112.75 37.0878C113.233 39.2951 113.22 41.5827 112.711 43.7841C112.711 43.7841 103.814 45.4278 101.029 42.0189C101.029 42.0189 99.0429 37.7881 100.385 29.4189L109.432 32.8327Z" fill="url(#paint45_linear_746_1269)"/>
<path d="M111.365 39.125C111.365 39.125 109.156 43.0154 106.037 43.2148C105.18 43.2966 104.319 43.1106 103.572 42.6823C102.825 42.254 102.227 41.6044 101.862 40.8222L111.365 39.125Z" fill="url(#paint46_linear_746_1269)"/>
<path d="M102.164 32.4654C100.711 32.7037 99.8629 30.6467 100.386 29.4212C105.23 28.8425 109.022 30.1798 111.526 33.1365C111.764 33.5936 111.904 34.075 112.141 34.5322C109.182 33.1025 106.179 31.7992 102.164 32.4654Z" fill="#131163"/>
<path d="M111.366 39.1259C111.366 39.1259 108.683 34.5158 105.045 34.4089C101.655 34.3116 100.943 36.9668 101.142 38.1047C101.34 39.2426 111.366 39.1259 111.366 39.1259Z" fill="url(#paint47_linear_746_1269)"/>
<path d="M111.365 39.1248C110.752 40.0334 109.965 40.811 109.05 41.4127C108.136 42.0145 107.112 42.4286 106.037 42.631C102.545 43.2243 101.785 40.9824 101.596 40.287C101.407 39.5916 101.596 37.2428 103.083 36.7128C104.57 36.1827 107.282 34.4126 111.365 39.1248Z" fill="#FFEBED"/>
<path d="M102.4 39.1806C102.396 39.7587 102.562 40.3252 102.878 40.8082C103.195 41.2912 103.647 41.669 104.178 41.8935C104.708 42.1181 105.293 42.1794 105.859 42.0695C106.424 41.9597 106.944 41.6838 107.353 41.2767C107.762 40.8696 108.041 40.3498 108.155 39.7831C108.269 39.2165 108.213 38.6286 107.994 38.094C107.775 37.5594 107.402 37.1023 106.924 36.7806C106.445 36.4589 105.882 36.2871 105.307 36.2871C104.54 36.2871 103.805 36.5912 103.26 37.1331C102.716 37.675 102.407 38.411 102.4 39.1806Z" fill="url(#paint48_linear_746_1269)"/>
<path d="M105.287 41.1897C106.389 41.1897 107.283 40.2927 107.283 39.1862C107.283 38.0796 106.389 37.1826 105.287 37.1826C104.185 37.1826 103.292 38.0796 103.292 39.1862C103.292 40.2927 104.185 41.1897 105.287 41.1897Z" fill="url(#paint49_linear_746_1269)"/>
<path d="M103.069 41.7653C102.779 41.4346 103.878 40.0632 104.382 40.3988C104.886 40.7343 103.5 42.2418 103.069 41.7653ZM106.571 37.6074C106.449 37.6074 106.329 37.6439 106.227 37.7123C106.125 37.7807 106.045 37.8779 105.998 37.9917C105.952 38.1054 105.939 38.2306 105.963 38.3513C105.987 38.4721 106.046 38.583 106.133 38.67C106.22 38.7571 106.33 38.8164 106.45 38.8404C106.571 38.8644 106.695 38.8521 106.809 38.805C106.922 38.7578 107.019 38.6781 107.087 38.5757C107.155 38.4733 107.191 38.353 107.191 38.2299C107.191 38.0648 107.126 37.9065 107.01 37.7897C106.893 37.673 106.736 37.6074 106.571 37.6074Z" fill="white"/>
<path d="M101.14 38.1049C102.148 35.5956 104.589 34.3506 107.519 35.3573C108.575 35.722 109.941 36.8162 111.365 39.1261C108.493 35.9603 105.553 35.756 103.247 37.0982C102.696 37.4144 102.249 37.8839 101.958 38.4501C101.668 39.0162 101.547 39.6546 101.61 40.2883C101.393 39.575 101.236 38.8446 101.14 38.1049Z" fill="url(#paint50_linear_746_1269)"/>
<path d="M84.106 32.8327C83.087 33.1762 82.164 33.7579 81.4129 34.5299C81.2725 35.0162 80.9286 36.2514 80.7881 37.0878C80.305 39.2951 80.3182 41.5827 80.8269 43.7841C80.8269 43.7841 89.7245 45.4278 92.5047 42.0189C92.5047 42.0189 94.4954 37.7881 93.1538 29.4189L84.106 32.8327Z" fill="url(#paint51_linear_746_1269)"/>
<path d="M82.1726 39.125C82.1726 39.125 84.3813 43.0154 87.5005 43.2148C88.3572 43.2966 89.2181 43.1106 89.9655 42.6823C90.7129 42.254 91.3102 41.6044 91.6757 40.8222L82.1726 39.125Z" fill="url(#paint52_linear_746_1269)"/>
<path d="M91.3759 32.4654C92.829 32.7037 93.6766 30.6467 93.1535 29.4212C88.31 28.8425 84.5174 30.1798 82.0133 33.1365C81.776 33.5936 81.6355 34.075 81.3982 34.5322C84.377 33.1025 87.3848 31.7992 91.3759 32.4654Z" fill="#131163"/>
<path d="M82.1726 39.1259C82.1726 39.1259 84.856 34.5158 88.4935 34.4089C91.884 34.3116 92.596 36.9668 92.3974 38.1047C92.1988 39.2426 82.1726 39.1259 82.1726 39.1259Z" fill="url(#paint53_linear_746_1269)"/>
<path d="M82.1726 39.1248C82.7862 40.0334 83.573 40.811 84.4874 41.4127C85.4019 42.0145 86.4259 42.4286 87.5005 42.631C90.9927 43.2243 91.7532 40.9824 91.9421 40.287C92.131 39.5916 91.9421 37.2428 90.4551 36.7128C88.9681 36.1827 86.2557 34.4126 82.1726 39.1248Z" fill="#FFEBED"/>
<path d="M88.252 42.0838C89.8463 42.0838 91.1388 40.7861 91.1388 39.1854C91.1388 37.5847 89.8463 36.2871 88.252 36.2871C86.6577 36.2871 85.3652 37.5847 85.3652 39.1854C85.3652 40.7861 86.6577 42.0838 88.252 42.0838Z" fill="url(#paint54_linear_746_1269)"/>
<path d="M88.2519 41.1897C89.354 41.1897 90.2475 40.2927 90.2475 39.1862C90.2475 38.0796 89.354 37.1826 88.2519 37.1826C87.1498 37.1826 86.2563 38.0796 86.2563 39.1862C86.2563 40.2927 87.1498 41.1897 88.2519 41.1897Z" fill="url(#paint55_linear_746_1269)"/>
<path d="M86.0342 41.7653C85.7436 41.4346 86.8431 40.0632 87.3468 40.3988C87.8506 40.7343 86.4653 42.2418 86.0342 41.7653ZM89.5361 37.6074C89.4135 37.6074 89.2936 37.6439 89.1917 37.7123C89.0897 37.7807 89.0103 37.8779 88.9633 37.9917C88.9164 38.1054 88.9041 38.2306 88.9281 38.3513C88.952 38.4721 89.011 38.583 89.0977 38.67C89.1844 38.7571 89.2949 38.8164 89.4152 38.8404C89.5354 38.8644 89.6601 38.8521 89.7734 38.805C89.8867 38.7578 89.9835 38.6781 90.0516 38.5757C90.1197 38.4733 90.1561 38.353 90.1561 38.2299C90.1561 38.0648 90.0908 37.9065 89.9745 37.7897C89.8582 37.673 89.7006 37.6074 89.5361 37.6074Z" fill="white"/>
<path d="M92.3974 38.1049C91.3899 35.5956 88.9488 34.3506 86.0184 35.3573C84.9625 35.722 83.5966 36.8162 82.1726 39.1261C85.0448 35.9603 87.9849 35.756 90.2904 37.0982C90.841 37.4144 91.2886 37.8839 91.5792 38.4501C91.8697 39.0162 91.9907 39.6546 91.9276 40.2883C92.1447 39.575 92.3019 38.8446 92.3974 38.1049Z" fill="url(#paint56_linear_746_1269)"/>
<path d="M95.9639 40.2247C96.9568 37.3847 99.8969 45.219 99.8969 45.219C99.8969 45.219 98.5891 47.31 96.7679 47.31C94.9468 47.31 93.6196 45.078 93.6196 45.078C93.6196 45.078 94.4285 44.6208 95.9639 40.2247Z" fill="#FFB398"/>
<path d="M93.6145 45.0762C94.1577 45.952 94.9324 46.6592 95.8522 47.1191C96.1377 47.2384 96.4439 47.2996 96.7531 47.299C98.5743 47.299 99.8821 45.2124 99.8821 45.2124C99.0052 45.624 98.0532 45.8494 97.0856 45.8745C96.1179 45.8996 95.1556 45.7239 94.2587 45.3583C94.0384 45.2776 93.8233 45.1834 93.6145 45.0762Z" fill="url(#paint57_linear_746_1269)"/>
<path d="M93.6145 45.0767C94.1577 45.9523 94.9324 46.6594 95.8522 47.1192C95.1646 46.7036 94.6151 46.0927 94.2732 45.3636C94.2732 45.3636 95.7699 43.0537 96.3124 37.792C95.4357 42.8008 93.6823 44.7412 93.6145 45.0767Z" fill="#CB4D7A"/>
<path d="M98.4906 46.3722C98.6926 46.2637 98.9098 46.1866 99.1348 46.1436C98.7699 46.519 98.3419 46.8269 97.8706 47.0531C98.0042 46.7686 98.2203 46.5312 98.4906 46.3722Z" fill="#9F4A8B"/>
<path d="M108.867 48.4427C110.522 48.4427 111.865 47.4978 111.865 46.3322C111.865 45.1666 110.522 44.2217 108.867 44.2217C107.211 44.2217 105.868 45.1666 105.868 46.3322C105.868 47.4978 107.211 48.4427 108.867 48.4427Z" fill="url(#paint58_linear_746_1269)"/>
<path d="M84.6681 48.4427C86.3239 48.4427 87.6663 47.4978 87.6663 46.3322C87.6663 45.1666 86.3239 44.2217 84.6681 44.2217C83.0122 44.2217 81.6699 45.1666 81.6699 46.3322C81.6699 47.4978 83.0122 48.4427 84.6681 48.4427Z" fill="url(#paint59_linear_746_1269)"/>
<path d="M78.6672 48.1786C79.1516 50.6538 79.6941 52.633 80.2172 53.6153C80.8856 54.9089 86.9013 64.7758 96.7677 64.7758C106.658 64.7758 112.645 54.9283 113.342 53.6348C113.952 52.2319 114.399 50.7634 114.674 49.2581C114.674 49.2581 100.284 42.6251 97.0728 42.6348C93.8615 42.6445 78.6672 48.1737 78.6672 48.1786Z" fill="url(#paint60_radial_746_1269)"/>
<path d="M76.5981 33.4813L80.0129 47.866L80.6522 47.6423L76.5981 32.251V33.4813Z" fill="white"/>
<path d="M116.936 33.4813L113.356 48.7364L112.712 48.5176L116.936 32.251V33.4813Z" fill="white"/>
<path d="M97.0728 43.6025C100.061 43.6025 112.751 49.3116 114.476 50.0946C114.544 49.8125 114.611 49.5207 114.679 49.2192C114.679 49.2192 100.284 42.6251 97.0728 42.6348C93.8615 42.6445 78.6672 48.1737 78.6382 48.1786C78.7012 48.4849 78.7641 48.7864 78.8271 49.0782C80.5756 48.4509 94.0795 43.6122 97.0728 43.6025Z" fill="white"/>
<path style="mix-blend-mode:multiply" opacity="0.5" d="M113.352 53.6077C113.415 53.4813 113.483 53.3305 113.55 53.1749C112.397 53.5956 111.202 53.8923 109.985 54.06C107.176 54.4539 104.318 54.2788 101.48 54.0989L88.7997 53.3013C94.5103 51.2249 100.85 50.3058 106.837 51.3172C98.6612 48.4773 89.1436 49.5958 81.5246 53.705C80.6824 53.0527 79.9583 52.2598 79.3838 51.361C79.5778 52.1352 79.8488 52.8879 80.1927 53.6077C80.8853 54.9013 86.901 64.7682 96.7674 64.7682C106.668 64.7682 112.654 54.9013 113.352 53.6077Z" fill="url(#paint61_linear_746_1269)"/>
<path d="M87.5794 1.39435C95.0337 -1.11494 104.421 0.198058 111.313 3.7383C112.729 4.4618 114.071 5.32345 115.319 6.3108C120.303 10.2693 123.427 16.9169 122.1 23.1464C121.421 26.283 119.726 29.0792 118.225 31.8997C116.723 34.7202 116.408 37.2149 115.827 40.7941C115.609 39.4062 115.286 38.0373 114.858 36.6995C113.681 33.4899 112.548 30.611 114.011 27.2264C112.429 29.3671 110.239 30.9775 107.729 31.8462C108.747 30.222 109.32 28.3566 109.39 26.4386C108.978 27.7078 108.048 28.4519 106.847 29.0257L107.375 27.5085C106.344 28.7665 105.07 29.8026 103.63 30.5546C102.19 31.3067 100.614 31.7592 98.9957 31.8851C100.047 30.1863 100.751 28.295 101.069 26.3208C101.386 24.3467 101.311 22.3288 100.846 20.3842C100.299 18.1375 99.1362 15.9297 97.1697 14.7237C96.125 14.1028 94.9268 13.7911 93.7132 13.8247C92.4996 13.8582 91.3203 14.2357 90.3112 14.9134C88.3253 16.2945 87.3712 19.4554 87.8216 21.8431C86.2232 18.439 83.0362 18.5557 81.2683 20.0633C79.7668 21.3471 79.2001 24.3135 79.7667 26.9249C80.1609 28.8263 80.2394 30.7799 79.9992 32.707C79.7716 34.2437 78.8755 35.5324 78.4687 37.0253C78.0963 38.493 77.8771 39.9956 77.8148 41.5089C77.3595 38.8781 77.0883 36.1986 75.8774 33.772C73.5379 29.1765 71.5714 24.4691 70.9805 19.2317C70.6366 16.1729 70.8788 12.4236 72.7872 9.9483C74.6955 7.47305 77.0204 6.79224 79.9217 7.30771C79.9121 7.28826 81.089 3.57296 87.5794 1.39435Z" fill="url(#paint62_linear_746_1269)"/>
<path d="M79.9544 11.9935C79.6784 11.0696 79.4701 10.3158 79.2037 9.60582C78.9708 8.93084 78.6991 8.26999 78.39 7.62659C78.0772 6.98389 77.7295 6.35887 77.3486 5.75435C76.9514 5.11244 76.501 4.47053 75.9585 3.67301C76.9205 3.59673 77.8787 3.86176 78.666 4.4219C79.4669 4.96858 80.1099 5.71779 80.53 6.59386C80.9502 7.46993 81.1326 8.44181 81.0588 9.4113C81.0027 10.3752 80.612 11.2889 79.9544 11.9935Z" fill="url(#paint63_linear_746_1269)"/>
<path d="M87.5794 1.39435C95.0337 -1.11494 104.421 0.198058 111.313 3.7383C112.729 4.4618 114.071 5.32345 115.319 6.3108C120.303 10.2693 123.427 16.9169 122.1 23.1464C121.421 26.283 119.726 29.0792 118.225 31.8997C116.723 34.7202 116.408 37.2149 115.827 40.7941C115.609 39.4062 115.286 38.0373 114.858 36.6995C113.681 33.4899 112.548 30.611 114.011 27.2264C112.429 29.3671 110.239 30.9775 107.729 31.8462C108.747 30.222 109.32 28.3566 109.39 26.4386C108.978 27.7078 108.048 28.4519 106.847 29.0257L107.375 27.5085C106.344 28.7665 105.07 29.8026 103.63 30.5546C102.19 31.3067 100.614 31.7592 98.9957 31.8851C100.047 30.1863 100.751 28.295 101.069 26.3208C101.386 24.3467 101.311 22.3288 100.846 20.3842C100.299 18.1375 99.1362 15.9297 97.1697 14.7237C96.125 14.1028 94.9268 13.7911 93.7132 13.8247C92.4996 13.8582 91.3203 14.2357 90.3112 14.9134C88.3253 16.2945 87.3712 19.4554 87.8216 21.8431C86.2232 18.439 83.0362 18.5557 81.2683 20.0633C79.7668 21.3471 79.2001 24.3135 79.7667 26.9249C80.1609 28.8263 80.2394 30.7799 79.9992 32.707C79.7716 34.2437 78.8755 35.5324 78.4687 37.0253C78.0963 38.493 77.8771 39.9956 77.8148 41.5089C77.3595 38.8781 77.0883 36.1986 75.8774 33.772C73.5379 29.1765 71.5714 24.4691 70.9805 19.2317C70.6366 16.1729 70.8788 12.4236 72.7872 9.9483C74.6955 7.47305 77.0204 6.79224 79.9217 7.30771C79.9121 7.28826 81.089 3.57296 87.5794 1.39435Z" fill="url(#paint64_linear_746_1269)"/>
<path style="mix-blend-mode:multiply" opacity="0.5" d="M99.0101 31.8623C100.061 30.1635 100.766 28.2722 101.083 26.298C101.401 24.3238 101.325 22.306 100.86 20.3614C100.313 18.1147 99.1506 15.9069 97.1841 14.7009C96.1394 14.08 94.9412 13.7683 93.7276 13.8019C92.514 13.8354 91.3347 14.2128 90.3256 14.8906C88.3398 16.2717 87.3856 19.4326 87.836 21.8203C87.7537 21.6452 87.6665 21.4848 87.5745 21.334L87.6035 21.2756C86.877 17.2686 87.0659 12.0992 91.1442 10.0908C92.3319 9.54525 93.6295 9.2841 94.9349 9.32798C96.2402 9.37187 97.5176 9.71958 98.6662 10.3437C100.963 11.6321 102.704 13.728 103.553 16.2279C104.381 18.7228 104.524 21.3956 103.965 23.9649C103.384 27.1382 101.61 29.9658 99.0101 31.8623ZM116.781 21.3C116.417 23.5048 115.446 25.5633 113.977 27.2425C113.411 28.5332 113.188 29.9487 113.328 31.3517C114.27 29.8413 115.081 28.2517 115.75 26.6006C116.389 24.9047 116.737 23.1126 116.781 21.3ZM110 23.9017C109.905 24.7659 109.71 25.6162 109.419 26.4353C109.376 27.2815 109.244 28.121 109.027 28.9397C110.499 26.9361 109.986 23.9211 109.986 23.9211L110 23.9017ZM108.828 24.4998C108.549 25.5836 108.065 26.6037 107.404 27.5051L106.876 29.0224C108.659 27.6218 108.814 24.4998 108.814 24.4998H108.828Z" fill="url(#paint65_linear_746_1269)"/>
<g style="mix-blend-mode:color-dodge" opacity="0.2">
<path d="M72.7762 9.932C70.8678 12.4218 70.6256 16.1566 70.9695 19.2154C71.1309 20.6207 71.3882 22.0131 71.7397 23.383C76.4718 18.6659 81.3977 12.2905 79.9108 7.29141C77.0095 6.77594 74.6749 7.46162 72.7762 9.932Z" fill="url(#paint66_linear_746_1269)"/>
<path d="M115.302 6.31218C114.054 5.32483 112.712 4.46318 111.296 3.73968C104.419 0.199439 95.0317 -1.12329 87.5629 1.39573C86.2308 1.82996 84.9546 2.42087 83.7607 3.15612C84.2891 4.14299 85.0325 4.9974 85.9355 5.65568C87.965 7.11457 90.503 7.65922 92.9732 8.04826C95.4434 8.4373 97.9815 8.74367 100.239 9.84756C102.038 10.7605 103.56 12.1431 104.644 13.8501C105.728 15.5572 106.335 17.5257 106.4 19.5492C107.47 17.2247 107.33 14.3263 106.463 11.9143C105.571 9.47388 103.765 7.4795 101.43 6.35595C106.196 8.09203 111.524 9.86215 115.079 13.4899C118.634 17.1177 120.751 22.5593 119.206 27.4077C121.516 23.5806 122.112 19.165 121.415 14.8467C120.206 11.4874 118.089 8.53229 115.302 6.31218Z" fill="url(#paint67_linear_746_1269)"/>
</g>
<path d="M87.8363 21.8225C87.3308 20.5535 87.2111 19.1625 87.4925 17.8252C87.7512 16.3737 88.4984 15.0553 89.6091 14.0904C90.8005 13.1309 92.2686 12.5832 93.795 12.5289C95.3214 12.4746 96.8244 12.9165 98.0805 13.7889C99.3015 14.6863 100.233 15.9242 100.759 17.3486C101.274 18.7102 101.455 20.1764 101.287 21.6232C101.112 23.0013 100.673 24.3324 99.9937 25.5427C99.3531 26.7064 98.5361 27.763 97.5719 28.6745C98.6763 26.3062 99.5094 23.8747 99.4561 21.5162C99.4028 19.1577 98.4292 16.9304 96.7388 15.7147C95.8539 15.1176 94.8174 14.787 93.7515 14.762C92.6856 14.7371 91.6348 15.0187 90.7231 15.5736C89.776 16.2064 89.0389 17.1091 88.6065 18.1656C88.0805 19.3114 87.8173 20.5611 87.8363 21.8225Z" fill="url(#paint68_linear_746_1269)"/>
<path d="M96.4241 7.39005C98.6433 6.97638 100.937 7.37309 102.89 8.50854C104.951 9.6289 106.589 11.3977 107.551 13.5431C108.514 15.6885 108.748 18.0918 108.218 20.3839C107.76 22.6034 106.527 24.5852 104.74 25.9714C105.697 24.1664 106.257 22.1765 106.382 20.1359C106.527 18.2161 106.193 16.2903 105.409 14.5333C104.625 12.7763 103.416 11.2437 101.892 10.0744C100.284 8.79371 98.4185 7.87794 96.4241 7.39005Z" fill="#1F87C5"/>
<path style="mix-blend-mode:multiply" opacity="0.5" d="M109.879 15.3633C110.44 15.9507 110.849 16.6669 111.07 17.4495C111.307 18.2368 111.395 19.0612 111.332 19.881C111.274 20.6955 111.066 21.492 110.717 22.2298C110.381 22.972 109.869 23.62 109.225 24.1166C109.385 23.3191 109.545 22.5994 109.661 21.8845C109.777 21.1697 109.869 20.4743 109.923 19.774C109.976 19.0737 109.995 18.3686 109.981 17.6489C109.966 16.9292 109.918 16.1754 109.879 15.3633Z" fill="url(#paint69_linear_746_1269)"/>
<path d="M110.803 28.6985C111.926 27.7022 112.879 26.5276 113.622 25.2215C115.068 22.6897 115.491 19.6977 114.804 16.8621C114.445 15.4041 113.854 14.0134 113.056 12.7432C114.328 13.7184 115.298 15.0375 115.85 16.546C116.447 18.0786 116.639 19.7398 116.408 21.3687C116.177 22.9977 115.531 24.5392 114.533 25.844C113.585 27.1317 112.291 28.1219 110.803 28.6985Z" fill="#1F87C5"/>
<path d="M106.106 3.6875C107.677 3.68863 109.235 3.97701 110.703 4.53852C113.689 5.65152 116.279 7.62806 118.147 10.2185C119.081 11.4861 119.776 12.9152 120.196 14.4346C119.298 13.2066 118.328 12.0341 117.29 10.9236C115.245 8.77308 112.869 6.96692 110.252 5.57433C108.91 4.85982 107.526 4.22966 106.106 3.6875Z" fill="#1F87C5"/>
<path style="mix-blend-mode:multiply" opacity="0.5" d="M77.3777 17.6004C76.0332 18.37 74.9934 19.5806 74.4328 21.0288C73.8807 22.4703 73.6205 24.0078 73.6675 25.5514C73.6675 26.7769 73.8031 28.0412 73.7498 29.2618C73.9872 29.8162 74.2342 30.3706 74.4861 30.9152C74.8735 30.3209 75.1143 29.6424 75.1884 28.936C75.3289 27.6571 75.077 26.3732 75.0528 25.0894C75.0286 23.8056 75.2853 22.4196 76.2249 21.5443C75.6873 22.8719 75.9246 24.3843 76.3751 25.7411C76.8255 27.0978 77.4842 28.3865 77.8281 29.7822C78.172 31.1778 78.0752 32.7583 77.1839 33.8719C78.5353 32.9917 79.1214 31.2751 79.1553 29.6557C79.1892 28.0364 78.7048 26.4559 78.3609 24.8754C78.017 23.295 77.7845 21.6221 78.2786 20.0806C78.523 19.2151 79.0311 18.4482 79.7317 17.8874C80.0852 17.6442 81.4608 17.3087 81.8241 17.5032C81.1309 17.1552 80.3637 16.9822 79.5889 16.9992C78.8141 17.0161 78.0551 17.2225 77.3777 17.6004Z" fill="url(#paint70_linear_746_1269)"/>
<path d="M10.106 106.414L33.9799 167.23L84.9052 162.795L61.0312 101.979L10.106 106.414Z" fill="url(#paint71_linear_746_1269)"/>
<path style="mix-blend-mode:multiply" opacity="0.5" d="M33.9804 167.237L84.9057 162.797L74.9037 137.315C70.1086 141.4 64.5142 144.206 58.3145 144.123C49.412 143.987 41.8027 137.928 35.2009 131.932C26.518 124.05 18.2323 115.751 10.3438 107.033L33.9804 167.237Z" fill="url(#paint72_linear_746_1269)"/>
<path style="mix-blend-mode:multiply" opacity="0.5" d="M27.897 111.33L45.8715 103.301L47.9251 103.121L51.243 110.372L28.207 112.001L27.897 111.33Z" fill="url(#paint73_linear_746_1269)"/>
<path style="mix-blend-mode:multiply" opacity="0.5" d="M22.8882 131.432C22.8882 131.432 36.5761 139.66 38.1212 141.216C39.6663 142.772 38.0437 144.839 38.0437 144.839C38.0437 144.839 38.7848 146.964 38.2762 148.243C37.7676 149.522 31.1271 149.118 31.1271 149.118C31.1271 149.118 31.379 150.913 30.6766 151.005C29.9743 151.097 28.7392 151.341 28.7392 151.341L22.8882 131.432Z" fill="url(#paint74_linear_746_1269)"/>
<path d="M27.896 111.333L24.7573 103.328L46.5195 101.432L49.663 109.436L27.896 111.333Z" fill="url(#paint75_linear_746_1269)"/>
<path d="M18.2235 129.87C18.6061 129.281 36.0333 137.033 36.1737 137.65C36.3142 138.268 35.6894 140.383 35.6894 140.383C35.6894 140.383 37.0601 141.025 37.3217 141.701C37.5832 142.377 37.2732 144.741 36.7453 144.94C36.2173 145.139 33.0399 144.712 33.0399 144.712C33.0399 144.712 32.7009 147.269 31.9937 147.77C31.2866 148.271 29.262 148.417 29.262 148.417C29.262 148.417 29.601 151.427 28.734 151.335C27.867 151.242 21.7593 149.074 20.8971 146.895C20.3795 145.464 20.2247 143.927 20.4467 142.421C20.4467 142.421 18.2041 140.962 18.7853 137.013C18.7805 137.028 15.5159 134.052 18.2235 129.87Z" fill="url(#paint76_linear_746_1269)"/>
<path d="M48.2922 103.087L61.0308 101.979L84.9048 162.795C75.702 146.664 60.7354 102.98 60.7354 102.98C56.7394 103.316 48.2922 103.087 48.2922 103.087Z" fill="#9860FF"/>
<path style="mix-blend-mode:multiply" opacity="0.5" d="M28.7784 151.336C26.4357 150.509 24.2434 149.303 22.288 147.766C22.288 147.766 22.7239 146.726 23.0969 145.675C23.4698 144.625 22.3025 142.49 22.3025 142.49C22.3025 142.49 23.0242 140.876 22.9661 139.811C22.908 138.746 19.9922 136.727 19.9922 136.727C22.535 137.433 25.2377 135.064 23.9929 133.717C22.7482 132.37 18.3018 130.274 17.488 131.393C17.6792 130.852 17.9345 130.336 18.2485 129.856C18.6311 129.268 36.0583 137.019 36.1987 137.637C36.3392 138.254 35.7144 140.37 35.7144 140.37C35.7144 140.37 37.0851 141.012 37.3467 141.688C37.6082 142.364 37.2982 144.727 36.7703 144.926C36.2423 145.126 33.065 144.698 33.065 144.698C33.065 144.698 32.7259 147.256 32.0187 147.757C31.3116 148.258 29.2628 148.418 29.2628 148.418C29.2628 148.418 29.5873 151.336 28.7784 151.336Z" fill="url(#paint77_linear_746_1269)"/>
<path d="M46.5195 101.432L24.7573 103.328L27.9008 111.333L49.663 109.436L46.5195 101.432ZM25.5178 103.839L45.9964 101.942L47.3138 108.566L28.1333 110.91L25.5178 103.839Z" fill="url(#paint78_linear_746_1269)"/>
<path style="mix-blend-mode:multiply" opacity="0.5" d="M123.562 86.38C124.614 87.3082 125.942 87.8605 127.34 87.9508C128.043 87.9718 128.739 87.8094 129.36 87.4795C129.981 87.1497 130.507 86.6636 130.885 86.0688C131.032 85.8695 131.13 85.6391 131.174 85.3955C131.218 85.1519 131.205 84.9014 131.137 84.6634C130.99 84.3737 130.765 84.1312 130.488 83.9632L121.804 77.6024C121.479 77.369 120.123 76.0754 119.789 76.3721C119.455 76.6687 119.673 78.1227 119.702 78.5166C119.801 79.9395 120.153 81.333 120.743 82.6307C121.384 84.0807 122.349 85.3634 123.562 86.38Z" fill="url(#paint79_linear_746_1269)"/>
<path d="M132.566 83.4644C133.21 86.1828 124.104 94.0608 118.001 76.0192C117.25 73.8017 120.123 75.669 122.549 77.269C124.976 78.8689 126.937 77.5218 128.289 79.6518C129.577 81.6845 132.261 82.1514 132.566 83.4644Z" fill="url(#paint80_linear_746_1269)"/>
<g style="mix-blend-mode:multiply" opacity="0.5">
<path d="M131.68 85.4483C130.689 85.9568 129.59 86.2184 128.478 86.2107C127.365 86.2031 126.27 85.9266 125.286 85.4045C124.133 84.7266 123.123 83.8297 122.312 82.7639C120.47 80.4871 119.131 77.8432 118.384 75.0075C117.929 74.9637 117.735 75.2312 118.001 76.0141C122.995 90.7732 129.994 88.1715 132.048 85.2537L131.68 85.4483Z" fill="url(#paint81_linear_746_1269)"/>
<path d="M122.549 77.2656C121.532 76.5606 120.472 75.9191 119.377 75.3447L126.991 83.8889C126.339 83.1378 125.929 82.2064 125.814 81.2171C125.699 80.2278 125.885 79.2267 126.347 78.3452C125.266 78.1312 123.993 78.2139 122.549 77.2656Z" fill="url(#paint82_linear_746_1269)"/>
</g>
<path style="mix-blend-mode:multiply" opacity="0.5" d="M69.9488 86.3849C68.9037 87.3119 67.5817 87.8644 66.1902 87.9557C65.489 87.9759 64.7946 87.8131 64.1749 87.4832C63.5551 87.1534 63.0312 86.6677 62.6544 86.0737C62.51 85.8734 62.4128 85.6429 62.37 85.3995C62.3272 85.1561 62.34 84.906 62.4074 84.6683C62.5528 84.3775 62.778 84.1346 63.0564 83.968L71.7022 77.6024C72.0219 77.369 73.3732 76.0754 73.7074 76.3721C74.0416 76.6687 73.8237 78.1276 73.7946 78.5166C73.6974 79.9408 73.3463 81.3359 72.7581 82.6356C72.1184 84.0839 71.1575 85.3664 69.9488 86.3849Z" fill="url(#paint83_linear_746_1269)"/>
<path d="M60.9736 83.4644C60.3294 86.1828 69.4353 94.0608 75.5382 76.0192C76.2889 73.8017 73.4167 75.669 70.9901 77.269C68.5634 78.8689 66.6018 77.5218 65.2504 79.6518C63.962 81.6845 61.2787 82.1514 60.9736 83.4644Z" fill="url(#paint84_linear_746_1269)"/>
<g style="mix-blend-mode:multiply" opacity="0.5">
<path d="M61.86 85.4483C62.851 85.9568 63.9493 86.2184 65.0621 86.2107C66.175 86.2031 67.2696 85.9266 68.2536 85.4045C69.4063 84.7266 70.4165 83.8297 71.2275 82.7639C73.0696 80.4871 74.4085 77.8432 75.1557 75.0075C75.6109 74.9637 75.8047 75.2312 75.5383 76.0141C70.5446 90.7732 63.5456 88.1715 61.4919 85.2537L61.86 85.4483Z" fill="url(#paint85_linear_746_1269)"/>
<path d="M70.9905 77.2656C72.0077 76.5606 73.0673 75.9191 74.163 75.3447L66.5586 83.8889C67.21 83.1378 67.6201 82.2064 67.7351 81.2171C67.85 80.2278 67.6645 79.2267 67.2028 78.3452C68.2732 78.1312 69.5471 78.2139 70.9905 77.2656Z" fill="url(#paint86_linear_746_1269)"/>
</g>
<defs>
<linearGradient id="paint0_linear_746_1269" x1="135.991" y1="180.378" x2="162.587" y2="127.394" gradientUnits="userSpaceOnUse">
<stop stop-color="#A242EA"/>
<stop offset="1" stop-color="#FE117E"/>
</linearGradient>
<linearGradient id="paint1_linear_746_1269" x1="147.217" y1="97.8371" x2="147.818" y2="147.133" gradientUnits="userSpaceOnUse">
<stop stop-color="#755CBB"/>
<stop offset="1" stop-color="#CCEDFF"/>
</linearGradient>
<linearGradient id="paint2_linear_746_1269" x1="154.77" y1="97.0915" x2="155.37" y2="146.728" gradientUnits="userSpaceOnUse">
<stop stop-color="#755CBB"/>
<stop offset="1" stop-color="#CCEDFF"/>
</linearGradient>
<linearGradient id="paint3_linear_746_1269" x1="83.6895" y1="74.8369" x2="110.455" y2="74.8369" gradientUnits="userSpaceOnUse">
<stop stop-color="#1F77D1"/>
<stop offset="1" stop-color="#0686C9"/>
</linearGradient>
<linearGradient id="paint4_linear_746_1269" x1="96.515" y1="76.2403" x2="98.8575" y2="66.9273" gradientUnits="userSpaceOnUse">
<stop stop-color="#D5CDF8"/>
<stop offset="1" stop-color="#F3EDFB"/>
</linearGradient>
<linearGradient id="paint5_linear_746_1269" x1="96.515" y1="76.2403" x2="98.8575" y2="66.9273" gradientUnits="userSpaceOnUse">
<stop stop-color="#B1D4F7"/>
<stop offset="1" stop-color="#637EC9"/>
</linearGradient>
<linearGradient id="paint6_linear_746_1269" x1="83.6895" y1="74.8369" x2="110.455" y2="74.8369" gradientUnits="userSpaceOnUse">
<stop stop-color="#1F77D1"/>
<stop offset="1" stop-color="#0686C9"/>
</linearGradient>
<linearGradient id="paint7_linear_746_1269" x1="83.6895" y1="74.8369" x2="110.455" y2="74.8369" gradientUnits="userSpaceOnUse">
<stop stop-color="#2E33A0"/>
<stop offset="1" stop-color="#0665A5"/>
</linearGradient>
<linearGradient id="paint8_linear_746_1269" x1="100.646" y1="57.4204" x2="100.929" y2="81.0252" gradientUnits="userSpaceOnUse">
<stop offset="0.02" stop-color="#FFC2A9"/>
<stop offset="1" stop-color="#FF9595"/>
</linearGradient>
<linearGradient id="paint9_linear_746_1269" x1="98.142" y1="71.7224" x2="96.5895" y2="57.485" gradientUnits="userSpaceOnUse">
<stop stop-color="#FF817F"/>
<stop offset="1" stop-color="#CF6074"/>
</linearGradient>
<linearGradient id="paint10_linear_746_1269" x1="110.455" y1="79.5681" x2="83.6895" y2="79.5681" gradientUnits="userSpaceOnUse">
<stop offset="0.02" stop-color="#FFA58B"/>
<stop offset="1" stop-color="#FF9595"/>
</linearGradient>
<linearGradient id="paint11_linear_746_1269" x1="148.26" y1="142.114" x2="148.226" y2="141.959" gradientUnits="userSpaceOnUse">
<stop stop-color="#9D68C2"/>
<stop offset="1" stop-color="#CCEDFF"/>
</linearGradient>
<linearGradient id="paint12_linear_746_1269" x1="95.5862" y1="199.329" x2="95.1809" y2="118.721" gradientUnits="userSpaceOnUse">
<stop stop-color="#1F77D1"/>
<stop offset="1" stop-color="#0686C9"/>
</linearGradient>
<linearGradient id="paint13_linear_746_1269" x1="70.4663" y1="182.903" x2="93.276" y2="92.2902" gradientUnits="userSpaceOnUse">
<stop stop-color="#CCEDFF"/>
<stop offset="1" stop-color="#9D68C2"/>
</linearGradient>
<linearGradient id="paint14_linear_746_1269" x1="123.073" y1="182.903" x2="100.263" y2="92.2902" gradientUnits="userSpaceOnUse">
<stop stop-color="#CCEDFF"/>
<stop offset="1" stop-color="#9D68C2"/>
</linearGradient>
<linearGradient id="paint15_linear_746_1269" x1="97.2082" y1="91.3913" x2="95.6312" y2="192.696" gradientUnits="userSpaceOnUse">
<stop stop-color="#CCEDFF"/>
<stop offset="1" stop-color="#9D68C2"/>
</linearGradient>
<linearGradient id="paint16_linear_746_1269" x1="67.0861" y1="192.57" x2="80.8921" y2="76.5818" gradientUnits="userSpaceOnUse">
<stop stop-color="#D5CDF8"/>
<stop offset="1" stop-color="#F3EDFB"/>
</linearGradient>
<linearGradient id="paint17_linear_746_1269" x1="72.6466" y1="118.519" x2="74.2382" y2="220.787" gradientUnits="userSpaceOnUse">
<stop stop-color="#CCEDFF"/>
<stop offset="1" stop-color="#9D68C2"/>
</linearGradient>
<linearGradient id="paint18_linear_746_1269" x1="69.5506" y1="107.339" x2="93.6183" y2="107.339" gradientUnits="userSpaceOnUse">
<stop stop-color="white"/>
<stop offset="1" stop-color="#F3EDFB"/>
</linearGradient>
<radialGradient id="paint19_radial_746_1269" cx="0" cy="0" r="1" gradientUnits="userSpaceOnUse" gradientTransform="translate(175.834 56.1962) scale(48.4502 48.6442)">
<stop stop-color="#7DFFCF"/>
<stop offset="1" stop-color="#47C7F4"/>
</radialGradient>
<linearGradient id="paint20_linear_746_1269" x1="166.99" y1="105.373" x2="172.552" y2="87.2906" gradientUnits="userSpaceOnUse">
<stop stop-color="#755CBB"/>
<stop offset="1" stop-color="#CCEDFF"/>
</linearGradient>
<linearGradient id="paint21_linear_746_1269" x1="164.253" y1="102.841" x2="174.443" y2="102.841" gradientUnits="userSpaceOnUse">
<stop stop-color="#755CBB"/>
<stop offset="1" stop-color="#CCEDFF"/>
</linearGradient>
<linearGradient id="paint22_linear_746_1269" x1="172.076" y1="78.6412" x2="181.095" y2="78.6412" gradientUnits="userSpaceOnUse">
<stop stop-color="#755CBB"/>
<stop offset="1" stop-color="#CCEDFF"/>
</linearGradient>
<linearGradient id="paint23_linear_746_1269" x1="172.041" y1="88.3334" x2="176.71" y2="88.3334" gradientUnits="userSpaceOnUse">
<stop stop-color="#755CBB"/>
<stop offset="1" stop-color="#CCEDFF"/>
</linearGradient>
<linearGradient id="paint24_linear_746_1269" x1="172.754" y1="82.403" x2="177.564" y2="82.403" gradientUnits="userSpaceOnUse">
<stop stop-color="#755CBB"/>
<stop offset="1" stop-color="#CCEDFF"/>
</linearGradient>
<linearGradient id="paint25_linear_746_1269" x1="122.748" y1="123.434" x2="176.497" y2="123.434" gradientUnits="userSpaceOnUse">
<stop stop-color="#D5CDF8"/>
<stop offset="1" stop-color="#F3EDFB"/>
</linearGradient>
<linearGradient id="paint26_linear_746_1269" x1="200.42" y1="119.888" x2="163.382" y2="126.195" gradientUnits="userSpaceOnUse">
<stop stop-color="#D5CDF8"/>
<stop offset="0.25" stop-color="#E2DBF9"/>
<stop offset="0.62" stop-color="#EFE8FB"/>
<stop offset="0.94" stop-color="#F3EDFB"/>
</linearGradient>
<linearGradient id="paint27_linear_746_1269" x1="135.888" y1="132.933" x2="116.668" y2="167.741" gradientUnits="userSpaceOnUse">
<stop stop-color="#B1D4F7"/>
<stop offset="1" stop-color="#637EC9"/>
</linearGradient>
<linearGradient id="paint28_linear_746_1269" x1="70.7917" y1="123.435" x2="17.0426" y2="123.435" gradientUnits="userSpaceOnUse">
<stop stop-color="#D5CDF8"/>
<stop offset="1" stop-color="#F3EDFB"/>
</linearGradient>
<linearGradient id="paint29_linear_746_1269" x1="58.7021" y1="132.86" x2="77.4743" y2="166.852" gradientUnits="userSpaceOnUse">
<stop stop-color="#B1D4F7"/>
<stop offset="1" stop-color="#637EC9"/>
</linearGradient>
<linearGradient id="paint30_linear_746_1269" x1="126.454" y1="192.57" x2="112.648" y2="76.5818" gradientUnits="userSpaceOnUse">
<stop stop-color="#D5CDF8"/>
<stop offset="1" stop-color="#F3EDFB"/>
</linearGradient>
<linearGradient id="paint31_linear_746_1269" x1="112.848" y1="118.398" x2="111.256" y2="220.671" gradientUnits="userSpaceOnUse">
<stop stop-color="#CCEDFF"/>
<stop offset="1" stop-color="#9D68C2"/>
</linearGradient>
<linearGradient id="paint32_linear_746_1269" x1="123.989" y1="107.339" x2="99.9209" y2="107.339" gradientUnits="userSpaceOnUse">
<stop stop-color="white"/>
<stop offset="1" stop-color="#F3EDFB"/>
</linearGradient>
<linearGradient id="paint33_linear_746_1269" x1="67.7975" y1="195.737" x2="73.5326" y2="167.574" gradientUnits="userSpaceOnUse">
<stop stop-color="#9D68C2"/>
<stop offset="0.84" stop-color="#CCEDFF"/>
</linearGradient>
<linearGradient id="paint34_linear_746_1269" x1="70.9272" y1="161.171" x2="74.5818" y2="173.578" gradientUnits="userSpaceOnUse">
<stop stop-color="#B1D4F7"/>
<stop offset="1" stop-color="#637EC9"/>
</linearGradient>
<linearGradient id="paint35_linear_746_1269" x1="125.742" y1="195.737" x2="120.007" y2="167.574" gradientUnits="userSpaceOnUse">
<stop stop-color="#9D68C2"/>
<stop offset="0.84" stop-color="#CCEDFF"/>
</linearGradient>
<linearGradient id="paint36_linear_746_1269" x1="122.613" y1="161.171" x2="118.958" y2="173.578" gradientUnits="userSpaceOnUse">
<stop stop-color="#B1D4F7"/>
<stop offset="1" stop-color="#637EC9"/>
</linearGradient>
<linearGradient id="paint37_linear_746_1269" x1="71.769" y1="43.4165" x2="77.9148" y2="37.5325" gradientUnits="userSpaceOnUse">
<stop offset="0.02" stop-color="#FFAC8B"/>
<stop offset="1" stop-color="#FF9595"/>
</linearGradient>
<linearGradient id="paint38_linear_746_1269" x1="72.1911" y1="41.1894" x2="77.6256" y2="41.1894" gradientUnits="userSpaceOnUse">
<stop stop-color="#FF817F"/>
<stop offset="1" stop-color="#CF6074"/>
</linearGradient>
<linearGradient id="paint39_linear_746_1269" x1="77.233" y1="37.4798" x2="74.0193" y2="34.5798" gradientUnits="userSpaceOnUse">
<stop stop-color="#FFA795"/>
<stop offset="0.98" stop-color="#FFC2A9"/>
</linearGradient>
<linearGradient id="paint40_linear_746_1269" x1="121.77" y1="43.4165" x2="115.624" y2="37.5325" gradientUnits="userSpaceOnUse">
<stop offset="0.02" stop-color="#FFAC8B"/>
<stop offset="1" stop-color="#FF9595"/>
</linearGradient>
<linearGradient id="paint41_linear_746_1269" x1="121.352" y1="41.1894" x2="115.913" y2="41.1894" gradientUnits="userSpaceOnUse">
<stop stop-color="#FF817F"/>
<stop offset="1" stop-color="#CF6074"/>
</linearGradient>
<linearGradient id="paint42_linear_746_1269" x1="116.306" y1="37.4798" x2="119.52" y2="34.5798" gradientUnits="userSpaceOnUse">
<stop stop-color="#FFA795"/>
<stop offset="0.98" stop-color="#FFC2A9"/>
</linearGradient>
<linearGradient id="paint43_linear_746_1269" x1="96.7668" y1="63.9696" x2="96.7668" y2="15.3157" gradientUnits="userSpaceOnUse">
<stop offset="0.02" stop-color="#FFC2A9"/>
<stop offset="1" stop-color="#FF9595"/>
</linearGradient>
<linearGradient id="paint44_linear_746_1269" x1="93.7987" y1="36.9119" x2="96.4882" y2="22.5846" gradientUnits="userSpaceOnUse">
<stop stop-color="#CF6074"/>
<stop offset="1" stop-color="#FF817F"/>
</linearGradient>
<linearGradient id="paint45_linear_746_1269" x1="107.009" y1="46.0816" x2="104.44" y2="31.0888" gradientUnits="userSpaceOnUse">
<stop offset="0.02" stop-color="#FFA58B"/>
<stop offset="1" stop-color="#FF9595"/>
</linearGradient>
<linearGradient id="paint46_linear_746_1269" x1="107.093" y1="45.3204" x2="106.795" y2="41.97" gradientUnits="userSpaceOnUse">
<stop offset="0.02" stop-color="#FFA58B"/>
<stop offset="1" stop-color="#FF9595"/>
</linearGradient>
<linearGradient id="paint47_linear_746_1269" x1="111.294" y1="37.5797" x2="101.87" y2="39.8629" gradientUnits="userSpaceOnUse">
<stop stop-color="#CF6074"/>
<stop offset="1" stop-color="#FF817F"/>
</linearGradient>
<linearGradient id="paint48_linear_746_1269" x1="105.529" y1="42.2345" x2="104.978" y2="35.3829" gradientUnits="userSpaceOnUse">
<stop stop-color="#1852A0"/>
<stop offset="1" stop-color="#067ED3"/>
</linearGradient>
<linearGradient id="paint49_linear_746_1269" x1="107.278" y1="39.1862" x2="103.292" y2="39.1862" gradientUnits="userSpaceOnUse">
<stop stop-color="#0E1B6D"/>
<stop offset="1" stop-color="#002538"/>
</linearGradient>
<linearGradient id="paint50_linear_746_1269" x1="109.69" y1="48.1758" x2="104.831" y2="36.3559" gradientUnits="userSpaceOnUse">
<stop stop-color="#0E1B6D"/>
<stop offset="1" stop-color="#002538"/>
</linearGradient>
<linearGradient id="paint51_linear_746_1269" x1="85.9451" y1="44.6767" x2="88.4535" y2="29.7225" gradientUnits="userSpaceOnUse">
<stop offset="0.02" stop-color="#FFA58B"/>
<stop offset="1" stop-color="#FF9595"/>
</linearGradient>
<linearGradient id="paint52_linear_746_1269" x1="86.4446" y1="45.3204" x2="86.7424" y2="41.97" gradientUnits="userSpaceOnUse">
<stop offset="0.02" stop-color="#FFA58B"/>
<stop offset="1" stop-color="#FF9595"/>
</linearGradient>
<linearGradient id="paint53_linear_746_1269" x1="83.3208" y1="34.7648" x2="92.7446" y2="37.048" gradientUnits="userSpaceOnUse">
<stop stop-color="#CF6074"/>
<stop offset="1" stop-color="#FF817F"/>
</linearGradient>
<linearGradient id="paint54_linear_746_1269" x1="88.4942" y1="42.2394" x2="87.9425" y2="35.3878" gradientUnits="userSpaceOnUse">
<stop stop-color="#1852A0"/>
<stop offset="1" stop-color="#067ED3"/>
</linearGradient>
<linearGradient id="paint55_linear_746_1269" x1="90.2475" y1="39.1862" x2="86.2612" y2="39.1862" gradientUnits="userSpaceOnUse">
<stop stop-color="#0E1B6D"/>
<stop offset="1" stop-color="#002538"/>
</linearGradient>
<linearGradient id="paint56_linear_746_1269" x1="84.9215" y1="45.3663" x2="89.7754" y2="33.5444" gradientUnits="userSpaceOnUse">
<stop stop-color="#0E1B6D"/>
<stop offset="1" stop-color="#002538"/>
</linearGradient>
<linearGradient id="paint57_linear_746_1269" x1="99.8966" y1="46.19" x2="93.6145" y2="46.19" gradientUnits="userSpaceOnUse">
<stop stop-color="#E1616A"/>
<stop offset="1" stop-color="#FF8883"/>
</linearGradient>
<linearGradient id="paint58_linear_746_1269" x1="108.838" y1="43.5603" x2="108.896" y2="48.6372" gradientUnits="userSpaceOnUse">
<stop offset="0.02" stop-color="#FFA58B"/>
<stop offset="1" stop-color="#FF9595"/>
</linearGradient>
<linearGradient id="paint59_linear_746_1269" x1="84.639" y1="43.8618" x2="84.7025" y2="48.9387" gradientUnits="userSpaceOnUse">
<stop offset="0.02" stop-color="#FFA58B"/>
<stop offset="1" stop-color="#FF9595"/>
</linearGradient>
<radialGradient id="paint60_radial_746_1269" cx="0" cy="0" r="1" gradientUnits="userSpaceOnUse" gradientTransform="translate(96.7773 48.1494) scale(32.9266 33.0584)">
<stop stop-color="#7DFFCF"/>
<stop offset="1" stop-color="#47C7F4"/>
</radialGradient>
<linearGradient id="paint61_linear_746_1269" x1="94.6217" y1="61.4128" x2="96.8766" y2="50.3336" gradientUnits="userSpaceOnUse">
<stop stop-color="#755CBB"/>
<stop offset="1" stop-color="#CCEDFF"/>
</linearGradient>
<linearGradient id="paint62_linear_746_1269" x1="70.8401" y1="20.7927" x2="122.38" y2="20.7927" gradientUnits="userSpaceOnUse">
<stop stop-color="#2E33A0"/>
<stop offset="1" stop-color="#0665A5"/>
</linearGradient>
<linearGradient id="paint63_linear_746_1269" x1="77.9201" y1="26.7089" x2="78.5841" y2="3.8385" gradientUnits="userSpaceOnUse">
<stop stop-color="#2E33A0"/>
<stop offset="1" stop-color="#0665A5"/>
</linearGradient>
<linearGradient id="paint64_linear_746_1269" x1="96.356" y1="27.2459" x2="97.02" y2="4.3755" gradientUnits="userSpaceOnUse">
<stop stop-color="#2E33A0"/>
<stop offset="1" stop-color="#0665A5"/>
</linearGradient>
<linearGradient id="paint65_linear_746_1269" x1="87.2742" y1="20.5851" x2="116.781" y2="20.5851" gradientUnits="userSpaceOnUse">
<stop stop-color="#7E9598"/>
<stop offset="1" stop-color="#755CBB"/>
</linearGradient>
<linearGradient id="paint66_linear_746_1269" x1="73.3332" y1="24.3556" x2="76.3009" y2="8.53089" gradientUnits="userSpaceOnUse">
<stop/>
<stop offset="1" stop-color="#6A9BFF"/>
</linearGradient>
<linearGradient id="paint67_linear_746_1269" x1="99.4442" y1="29.2556" x2="102.417" y2="13.431" gradientUnits="userSpaceOnUse">
<stop/>
<stop offset="1" stop-color="#6A9BFF"/>
</linearGradient>
<linearGradient id="paint68_linear_746_1269" x1="87.352" y1="20.602" x2="101.35" y2="20.602" gradientUnits="userSpaceOnUse">
<stop stop-color="#2E33A0"/>
<stop offset="1" stop-color="#0665A5"/>
</linearGradient>
<linearGradient id="paint69_linear_746_1269" x1="109.225" y1="19.7302" x2="111.351" y2="19.7302" gradientUnits="userSpaceOnUse">
<stop stop-color="#7E9598"/>
<stop offset="1" stop-color="#755CBB"/>
</linearGradient>
<linearGradient id="paint70_linear_746_1269" x1="76.5882" y1="41.1372" x2="78.0138" y2="16.541" gradientUnits="userSpaceOnUse">
<stop stop-color="#7E9598"/>
<stop offset="1" stop-color="#755CBB"/>
</linearGradient>
<linearGradient id="paint71_linear_746_1269" x1="40.3681" y1="96.5002" x2="59.8169" y2="158.499" gradientUnits="userSpaceOnUse">
<stop stop-color="#9942B7"/>
<stop offset="1" stop-color="#6456D8"/>
</linearGradient>
<linearGradient id="paint72_linear_746_1269" x1="47.2953" y1="107.233" x2="47.6713" y2="138.613" gradientUnits="userSpaceOnUse">
<stop stop-color="#755CBB"/>
<stop offset="1" stop-color="#CCEDFF"/>
</linearGradient>
<linearGradient id="paint73_linear_746_1269" x1="41.4466" y1="99.1374" x2="42.9754" y2="106.184" gradientUnits="userSpaceOnUse">
<stop stop-color="#755CBB"/>
<stop offset="1" stop-color="#CCEDFF"/>
</linearGradient>
<linearGradient id="paint74_linear_746_1269" x1="27.8429" y1="134.092" x2="40.6869" y2="144.797" gradientUnits="userSpaceOnUse">
<stop stop-color="#755CBB"/>
<stop offset="1" stop-color="#CCEDFF"/>
</linearGradient>
<linearGradient id="paint75_linear_746_1269" x1="39.0681" y1="94.4601" x2="41.2233" y2="104.384" gradientUnits="userSpaceOnUse">
<stop stop-color="white"/>
<stop offset="1" stop-color="#F3EDFB"/>
</linearGradient>
<linearGradient id="paint76_linear_746_1269" x1="40.6909" y1="138.402" x2="19.368" y2="134.501" gradientUnits="userSpaceOnUse">
<stop stop-color="#6FCAF4"/>
<stop offset="1" stop-color="#7DFFCF"/>
</linearGradient>
<linearGradient id="paint77_linear_746_1269" x1="40.6926" y1="138.398" x2="19.4456" y2="134.511" gradientUnits="userSpaceOnUse">
<stop offset="0.19" stop-color="#755CBB"/>
<stop offset="0.55" stop-color="#A0A4DD"/>
<stop offset="0.85" stop-color="#C0D9F5"/>
<stop offset="1" stop-color="#CCEDFF"/>
</linearGradient>
<linearGradient id="paint78_linear_746_1269" x1="41.3756" y1="96.3401" x2="35.7285" y2="109.848" gradientUnits="userSpaceOnUse">
<stop stop-color="#D5CDF8"/>
<stop offset="1" stop-color="#F3EDFB"/>
</linearGradient>
<linearGradient id="paint79_linear_746_1269" x1="122.496" y1="114.162" x2="126.583" y2="68.2441" gradientUnits="userSpaceOnUse">
<stop stop-color="#B1D4F7"/>
<stop offset="1" stop-color="#637EC9"/>
</linearGradient>
<linearGradient id="paint80_linear_746_1269" x1="120.607" y1="132.084" x2="126.202" y2="69.2247" gradientUnits="userSpaceOnUse">
<stop stop-color="#A242EA"/>
<stop offset="1" stop-color="#FE117E"/>
</linearGradient>
<linearGradient id="paint81_linear_746_1269" x1="121.857" y1="115.424" x2="126.212" y2="66.4517" gradientUnits="userSpaceOnUse">
<stop stop-color="#755CBB"/>
<stop offset="1" stop-color="#CCEDFF"/>
</linearGradient>
<linearGradient id="paint82_linear_746_1269" x1="121.169" y1="102.461" x2="124.098" y2="69.5453" gradientUnits="userSpaceOnUse">
<stop stop-color="#755CBB"/>
<stop offset="1" stop-color="#CCEDFF"/>
</linearGradient>
<linearGradient id="paint83_linear_746_1269" x1="71.0241" y1="114.191" x2="66.9329" y2="68.2344" gradientUnits="userSpaceOnUse">
<stop stop-color="#B1D4F7"/>
<stop offset="1" stop-color="#637EC9"/>
</linearGradient>
<linearGradient id="paint84_linear_746_1269" x1="72.9323" y1="132.084" x2="67.3374" y2="69.2247" gradientUnits="userSpaceOnUse">
<stop stop-color="#A242EA"/>
<stop offset="1" stop-color="#FE117E"/>
</linearGradient>
<linearGradient id="paint85_linear_746_1269" x1="71.6828" y1="115.424" x2="67.328" y2="66.4517" gradientUnits="userSpaceOnUse">
<stop stop-color="#755CBB"/>
<stop offset="1" stop-color="#CCEDFF"/>
</linearGradient>
<linearGradient id="paint86_linear_746_1269" x1="72.3709" y1="102.461" x2="69.4416" y2="69.5453" gradientUnits="userSpaceOnUse">
<stop stop-color="#755CBB"/>
<stop offset="1" stop-color="#CCEDFF"/>
</linearGradient>
<clipPath id="clip0_746_1269">
<rect width="45" height="34.9923" fill="white" transform="translate(0.850098 53.0928)"/>
</clipPath>
</defs>
</svg>
