<svg width="19" height="19" viewBox="0 0 19 19" fill="none" xmlns="http://www.w3.org/2000/svg">
<path d="M18.3666 8.29788C18.3662 8.29747 18.3658 8.29706 18.3653 8.29665L11.022 0.954346C10.709 0.641235 10.2929 0.46875 9.85021 0.46875C9.40755 0.46875 8.9914 0.641098 8.67826 0.954208L1.33878 8.2928C1.33631 8.29527 1.33384 8.29788 1.33137 8.30035C0.688601 8.94676 0.689699 9.99554 1.33453 10.6403C1.62913 10.935 2.01822 11.1057 2.43423 11.1236C2.45112 11.1252 2.46816 11.126 2.48532 11.126H2.778V16.5295C2.778 17.5988 3.64807 18.4688 4.7177 18.4688H7.59064C7.88181 18.4688 8.11804 18.2327 8.11804 17.9414V13.7051C8.11804 13.2171 8.51496 12.8203 9.00294 12.8203H10.6975C11.1855 12.8203 11.5824 13.2171 11.5824 13.7051V17.9414C11.5824 18.2327 11.8185 18.4688 12.1098 18.4688H14.9827C16.0523 18.4688 16.9224 17.5988 16.9224 16.5295V11.126H17.1938C17.6363 11.126 18.0525 10.9537 18.3658 10.6406C19.0113 9.99472 19.0115 8.94415 18.3666 8.29788Z" fill="#9E9E9E"/>
</svg>
