<svg width="31" height="30" viewBox="0 0 31 30" fill="none" xmlns="http://www.w3.org/2000/svg">
<path d="M24.4756 4.6875H5.72559C4.17229 4.6875 2.91309 5.9467 2.91309 7.5V24.375C2.91309 25.9283 4.17229 27.1875 5.72559 27.1875H24.4756C26.0289 27.1875 27.2881 25.9283 27.2881 24.375V7.5C27.2881 5.9467 26.0289 4.6875 24.4756 4.6875Z" stroke="black" stroke-width="1.5" stroke-linejoin="round"/>
<path d="M17.4443 15C18.221 15 18.8506 14.3704 18.8506 13.5938C18.8506 12.8171 18.221 12.1875 17.4443 12.1875C16.6677 12.1875 16.0381 12.8171 16.0381 13.5938C16.0381 14.3704 16.6677 15 17.4443 15Z" fill="black"/>
<path d="M22.1318 15C22.9085 15 23.5381 14.3704 23.5381 13.5938C23.5381 12.8171 22.9085 12.1875 22.1318 12.1875C21.3552 12.1875 20.7256 12.8171 20.7256 13.5938C20.7256 14.3704 21.3552 15 22.1318 15Z" fill="black"/>
<path d="M17.4443 19.6875C18.221 19.6875 18.8506 19.0579 18.8506 18.2812C18.8506 17.5046 18.221 16.875 17.4443 16.875C16.6677 16.875 16.0381 17.5046 16.0381 18.2812C16.0381 19.0579 16.6677 19.6875 17.4443 19.6875Z" fill="black"/>
<path d="M22.1318 19.6875C22.9085 19.6875 23.5381 19.0579 23.5381 18.2812C23.5381 17.5046 22.9085 16.875 22.1318 16.875C21.3552 16.875 20.7256 17.5046 20.7256 18.2812C20.7256 19.0579 21.3552 19.6875 22.1318 19.6875Z" fill="black"/>
<path d="M8.06934 19.6875C8.84599 19.6875 9.47559 19.0579 9.47559 18.2812C9.47559 17.5046 8.84599 16.875 8.06934 16.875C7.29269 16.875 6.66309 17.5046 6.66309 18.2812C6.66309 19.0579 7.29269 19.6875 8.06934 19.6875Z" fill="black"/>
<path d="M12.7568 19.6875C13.5335 19.6875 14.1631 19.0579 14.1631 18.2812C14.1631 17.5046 13.5335 16.875 12.7568 16.875C11.9802 16.875 11.3506 17.5046 11.3506 18.2812C11.3506 19.0579 11.9802 19.6875 12.7568 19.6875Z" fill="black"/>
<path d="M8.06934 24.375C8.84599 24.375 9.47559 23.7454 9.47559 22.9688C9.47559 22.1921 8.84599 21.5625 8.06934 21.5625C7.29269 21.5625 6.66309 22.1921 6.66309 22.9688C6.66309 23.7454 7.29269 24.375 8.06934 24.375Z" fill="black"/>
<path d="M12.7568 24.375C13.5335 24.375 14.1631 23.7454 14.1631 22.9688C14.1631 22.1921 13.5335 21.5625 12.7568 21.5625C11.9802 21.5625 11.3506 22.1921 11.3506 22.9688C11.3506 23.7454 11.9802 24.375 12.7568 24.375Z" fill="black"/>
<path d="M17.4443 24.375C18.221 24.375 18.8506 23.7454 18.8506 22.9688C18.8506 22.1921 18.221 21.5625 17.4443 21.5625C16.6677 21.5625 16.0381 22.1921 16.0381 22.9688C16.0381 23.7454 16.6677 24.375 17.4443 24.375Z" fill="black"/>
<path d="M7.60059 2.8125V4.6875M22.6006 2.8125V4.6875" stroke="black" stroke-width="1.5" stroke-linecap="round" stroke-linejoin="round"/>
<path d="M27.2881 9.375H2.91309" stroke="black" stroke-width="1.5" stroke-linejoin="round"/>
</svg>
