<svg width="31" height="30" viewBox="0 0 31 30" fill="none" xmlns="http://www.w3.org/2000/svg">
<path d="M16.9758 15.5291C16.2708 15.5291 15.6779 15.2886 15.1971 14.8078C14.7162 14.327 14.4758 13.7341 14.4758 13.0291C14.4758 12.3241 14.7162 11.7311 15.1971 11.2503C15.6779 10.7695 16.2708 10.5291 16.9758 10.5291C17.6808 10.5291 18.2737 10.7695 18.7546 11.2503C19.2354 11.7311 19.4758 12.3241 19.4758 13.0291C19.4758 13.7341 19.2354 14.327 18.7546 14.8078C18.2737 15.2886 17.6808 15.5291 16.9758 15.5291ZM7.21582 19.5191V6.53906H26.7358V19.5191H7.21582ZM10.4858 18.2691H23.4658C23.4658 17.7107 23.6637 17.2345 24.0596 16.8403C24.4546 16.447 24.9296 16.2503 25.4846 16.2503V9.80781C24.9262 9.80781 24.45 9.61031 24.0558 9.21531C23.6625 8.81948 23.4658 8.34406 23.4658 7.78906H10.4858C10.4858 8.3474 10.2879 8.82365 9.89207 9.21781C9.49707 9.61115 9.02207 9.80781 8.46707 9.80781V16.2503C9.0254 16.2503 9.50165 16.4482 9.89582 16.8441C10.2892 17.2391 10.4858 17.7141 10.4858 18.2691ZM3.46582 23.2691V10.2403H4.71582V22.0191H23.0333V23.2691H3.46582Z" fill="black"/>
</svg>
