<svg width="15" height="14" viewBox="0 0 15 14" fill="none" xmlns="http://www.w3.org/2000/svg">
<g clip-path="url(#clip0_25_349)">
<path d="M14.1401 5.54688V11.75C14.1401 12.0938 14.0177 12.388 13.7729 12.6328C13.5282 12.8776 13.2339 13 12.8901 13H1.39014C1.04639 13 0.752116 12.8776 0.507324 12.6328C0.262533 12.388 0.140137 12.0938 0.140137 11.75V5.54688C0.369303 5.80208 0.632324 6.02865 0.929199 6.22656C2.81462 7.50781 4.10889 8.40625 4.81201 8.92188C5.10889 9.14062 5.34977 9.3112 5.53467 9.43359C5.71956 9.55599 5.96566 9.68099 6.27295 9.80859C6.58024 9.9362 6.8667 10 7.13232 10H7.14014H7.14795C7.41357 10 7.70003 9.9362 8.00732 9.80859C8.31462 9.68099 8.56071 9.55599 8.74561 9.43359C8.9305 9.3112 9.17139 9.14062 9.46826 8.92188C10.3537 8.28125 11.6506 7.38281 13.3589 6.22656C13.6558 6.02344 13.9162 5.79688 14.1401 5.54688ZM14.1401 3.25C14.1401 3.66146 14.0125 4.05469 13.7573 4.42969C13.5021 4.80469 13.1844 5.125 12.8042 5.39062C10.8459 6.75 9.62712 7.59635 9.14795 7.92969C9.09587 7.96615 8.98519 8.04557 8.81592 8.16797C8.64665 8.29036 8.50602 8.38932 8.39404 8.46484C8.28206 8.54036 8.14665 8.625 7.98779 8.71875C7.82894 8.8125 7.6792 8.88281 7.53857 8.92969C7.39795 8.97656 7.26774 9 7.14795 9H7.14014H7.13232C7.01253 9 6.88232 8.97656 6.7417 8.92969C6.60107 8.88281 6.45133 8.8125 6.29248 8.71875C6.13363 8.625 5.99821 8.54036 5.88623 8.46484C5.77425 8.38932 5.63363 8.29036 5.46436 8.16797C5.29508 8.04557 5.18441 7.96615 5.13232 7.92969C4.65837 7.59635 3.97607 7.12109 3.08545 6.50391C2.19482 5.88672 1.66097 5.51562 1.48389 5.39062C1.16097 5.17188 0.856283 4.87109 0.569824 4.48828C0.283366 4.10547 0.140137 3.75 0.140137 3.42188C0.140137 3.01562 0.24821 2.67708 0.464355 2.40625C0.680501 2.13542 0.989095 2 1.39014 2H12.8901C13.2287 2 13.5216 2.1224 13.769 2.36719C14.0164 2.61198 14.1401 2.90625 14.1401 3.25Z" fill="white"/>
</g>
<defs>
<clipPath id="clip0_25_349">
<rect width="14" height="14" fill="white" transform="matrix(1 0 0 -1 0.140137 14)"/>
</clipPath>
</defs>
</svg>
