<svg xmlns:dc="http://purl.org/dc/elements/1.1/" xmlns:cc="http://creativecommons.org/ns#" xmlns:rdf="http://www.w3.org/1999/02/22-rdf-syntax-ns#" xmlns:svg="http://www.w3.org/2000/svg" xmlns="http://www.w3.org/2000/svg" xmlns:sodipodi="http://sodipodi.sourceforge.net/DTD/sodipodi-0.dtd" xmlns:inkscape="http://www.inkscape.org/namespaces/inkscape" version="1.1" x="0px" y="0px" viewBox="0 0 100 125"><g transform="translate(0,-952.36218)"><path style="font-size:medium;font-style:normal;font-variant:normal;font-weight:normal;font-stretch:normal;text-indent:0;text-align:start;text-decoration:none;line-height:normal;letter-spacing:normal;word-spacing:normal;text-transform:none;direction:ltr;block-progression:tb;writing-mode:lr-tb;text-anchor:start;baseline-shift:baseline;opacity:1;color:#000000;fill:#000000;fill-opacity:1;stroke:none;stroke-width:4;marker:none;visibility:visible;display:inline;overflow:visible;enable-background:accumulate;font-family:Sans;-inkscape-font-specification:Sans" d="M 49.78125 10.96875 A 2.0002 2.0002 0 0 0 48 13 L 48 27.71875 A 2.0002 2.0002 0 1 0 52 27.71875 L 52 13 A 2.0002 2.0002 0 0 0 49.78125 10.96875 z M 37.65625 18.3125 A 2.0002 2.0002 0 0 0 35.71875 20.90625 L 38.1875 29.5 A 2.0002 2.0002 0 1 0 42.03125 28.40625 L 39.5625 19.8125 A 2.0002 2.0002 0 0 0 37.65625 18.3125 z M 62.28125 18.3125 A 2.0002 2.0002 0 0 0 60.4375 19.8125 L 57.96875 28.40625 A 2.0002 2.0002 0 1 0 61.8125 29.5 L 64.28125 20.90625 A 2.0002 2.0002 0 0 0 62.28125 18.3125 z M 22.5 18.34375 A 2.0002 2.0002 0 0 0 21.125 21.375 L 28.53125 33.65625 A 2.0002 2.0002 0 1 0 31.9375 31.59375 L 24.53125 19.3125 A 2.0002 2.0002 0 0 0 22.5 18.34375 z M 76.84375 18.34375 A 2.0002 2.0002 0 0 0 75.46875 19.3125 L 68.0625 31.59375 A 2.0002 2.0002 0 1 0 71.46875 33.65625 L 78.875 21.375 A 2.0002 2.0002 0 0 0 76.84375 18.34375 z M 15.375 30.59375 A 2.0002 2.0002 0 0 0 14 34.03125 L 20.1875 40.1875 A 2.0002 2.0002 0 1 0 23 37.34375 L 16.8125 31.21875 A 2.0002 2.0002 0 0 0 15.375 30.59375 z M 84.5625 30.59375 A 2.0002 2.0002 0 0 0 83.1875 31.21875 L 77 37.34375 A 2.0002 2.0002 0 1 0 79.8125 40.1875 L 86 34.03125 A 2.0002 2.0002 0 0 0 84.5625 30.59375 z M 50 33.09375 C 33.82061 33.09375 20.233646 44.30536 16.75 59.375 A 2.004993 2.004993 0 0 0 20.65625 60.28125 C 23.724354 47.00922 35.668032 37.09375 50 37.09375 C 65.98559 37.09375 79.026687 49.403101 80.0625 65 L 8 65 A 2.0002 2.0002 0 0 0 7.8125 65 A 2.0021961 2.0021961 0 1 0 8 69 L 92 69 A 2.0002 2.0002 0 1 0 92 65 L 84.0625 65 C 83.026604 47.20636 68.142839 33.09375 50 33.09375 z M 23.1875 75 A 2.0021961 2.0021961 0 1 0 23.375 79 L 76.625 79 A 2.0002 2.0002 0 1 0 76.625 75 L 23.375 75 A 2.0002 2.0002 0 0 0 23.1875 75 z M 36.46875 85 A 2.0029885 2.0029885 0 1 0 36.6875 89 L 63.3125 89 A 2.0002 2.0002 0 1 0 63.3125 85 L 36.6875 85 A 2.0002 2.0002 0 0 0 36.46875 85 z " transform="translate(0,952.36218)"/></g><text x="0" y="115" fill="#000000" font-size="5px" font-weight="bold" font-family="'Helvetica Neue', Helvetica, Arial-Unicode, Arial, Sans-serif">Created by fae frey</text><text x="0" y="120" fill="#000000" font-size="5px" font-weight="bold" font-family="'Helvetica Neue', Helvetica, Arial-Unicode, Arial, Sans-serif">from the Noun Project</text></svg>