<svg width="53" height="72" viewBox="0 0 53 72" fill="none" xmlns="http://www.w3.org/2000/svg">
<path d="M37.2668 31.9482C37.197 35.0789 26.8513 42.8034 26.8513 42.8034C26.8513 42.8034 16.5024 35.0789 16.4318 31.9482C7.69381 32.7458 0.850098 40.091 0.850098 49.0393C0.850098 54.5188 3.41966 56.6559 7.41606 57.4852V68.0103C7.41606 69.945 8.98971 71.5194 10.9252 71.5194H19.6116C20.7662 71.5194 21.7875 70.9568 22.428 70.095L23.0453 70.7124C23.5659 71.2313 24.2563 71.5178 24.992 71.5178C25.7276 71.5178 26.4196 71.2313 26.9394 70.7084C27.4544 70.1957 27.7409 69.5069 27.744 68.7745C28.2369 69.1847 28.8511 69.4061 29.5002 69.4061C30.2351 69.4061 30.9262 69.1213 31.4452 68.5983C31.9642 68.0817 32.2515 67.3905 32.2515 66.6549C32.2515 66.0676 32.0698 65.5097 31.7325 65.0447L38.7722 58.005C46.7777 57.9899 52.8501 57.4638 52.8501 49.0377C52.8501 40.091 46.0056 32.7458 37.2668 31.9482ZM19.6116 69.5863H10.9252C10.0531 69.5863 9.34602 68.8784 9.34602 68.0087V54.057C9.34602 53.1849 10.0531 52.4786 10.9252 52.4786H11.3204V50.3725H10.7943C10.357 50.3725 10.0039 50.0201 10.0039 49.5837V47.2149C10.0039 46.7784 10.357 46.4253 10.7943 46.4253H19.7433C20.1798 46.4253 20.5329 46.7784 20.5329 47.2149V49.5837C20.5329 50.0201 20.1798 50.3725 19.7433 50.3725H19.2172V52.4786H19.6124C20.4845 52.4786 21.1916 53.1857 21.1916 54.057V63.1711C20.7734 63.3012 20.3853 63.5203 20.0671 63.8409C19.5481 64.3583 19.2616 65.0495 19.2616 65.7859C19.2616 66.5223 19.5489 67.2143 20.0703 67.7325L21.0297 68.6919C20.7726 69.2205 20.2369 69.5863 19.6116 69.5863ZM44.2185 47.2125L38.6215 52.8095L38.8183 53.0063C39.0103 53.1991 39.0103 53.511 38.8167 53.7046L37.8541 54.6672L38.1794 54.9942C38.4215 55.2362 38.4215 55.6251 38.1794 55.8671L29.0272 65.0209L30.0795 66.0748C30.4017 66.3946 30.4017 66.9175 30.0795 67.2373C29.92 67.3984 29.7089 67.4786 29.5002 67.4786C29.2891 67.4786 29.0788 67.3984 28.9177 67.2373L27.3195 65.6375L25.1729 67.7841L25.5721 68.1841C25.8935 68.5047 25.8935 69.026 25.5721 69.3466C25.4118 69.5069 25.2015 69.5887 24.992 69.5887C24.7809 69.5887 24.5706 69.5069 24.4103 69.3466L21.432 66.3676C21.1098 66.047 21.1098 65.5256 21.432 65.205C21.5923 65.0455 21.8026 64.9638 22.0129 64.9638C22.2232 64.9638 22.4335 65.0455 22.5938 65.205L22.993 65.605L25.1388 63.46L23.5397 61.8601C23.2191 61.5395 23.2191 61.0166 23.5405 60.6975C23.7008 60.5365 23.9111 60.4555 24.1206 60.4555C24.3317 60.4555 24.542 60.5365 24.7023 60.6975L25.7554 61.7514L26.9179 60.5872L27.8631 61.5316C27.9813 61.6514 28.1408 61.7125 28.2988 61.7125C28.4567 61.7125 28.613 61.6522 28.7344 61.5316C28.9749 61.2903 28.9749 60.8999 28.7344 60.6595L27.7909 59.7151L29.8256 57.6812L30.7691 58.6248C30.8874 58.7454 31.0469 58.8065 31.2048 58.8065C31.3627 58.8065 31.519 58.7462 31.6405 58.6248C31.8809 58.3835 31.8809 57.9939 31.6405 57.7518L30.6953 56.8083L32.73 54.7744L33.6752 55.7171C33.7934 55.837 33.9529 55.8981 34.1108 55.8981C34.2687 55.8981 34.4259 55.8385 34.5465 55.7171C34.7869 55.4767 34.7869 55.0862 34.5465 54.8458L33.6029 53.9015L34.9092 52.5952C35.0298 52.4746 35.1885 52.4135 35.3464 52.4135C35.5043 52.4135 35.6623 52.473 35.7821 52.5952L36.109 52.9206L37.0716 51.958C37.1692 51.862 37.2946 51.812 37.4216 51.812C37.547 51.812 37.6739 51.862 37.77 51.958L37.9644 52.1532L43.5622 46.5554C43.6527 46.4665 43.7717 46.4205 43.8891 46.4205C44.0058 46.4205 44.1264 46.4665 44.2153 46.5554C44.3978 46.7387 44.3978 47.0323 44.2185 47.2125Z" fill="white"/>
<path d="M26.8555 34.1899C34.7595 34.1899 41.1667 22.3047 41.1667 14.4016C41.1667 6.49923 34.7595 0.0927734 26.8555 0.0927734C18.9524 0.0927734 12.5452 6.49923 12.5452 14.4016C12.5452 22.3047 18.9516 34.1899 26.8555 34.1899Z" fill="white"/>
<path d="M11.8291 60.9241H18.6721C19.0355 60.9241 19.3307 60.6281 19.3307 60.2655C19.3307 59.9012 19.0355 59.6084 18.6721 59.6084H11.8291C11.4649 59.6084 11.1697 59.9012 11.1697 60.2655C11.1697 60.6281 11.4649 60.9241 11.8291 60.9241Z" fill="white"/>
<path d="M18.6721 62.2314H11.8291C11.4649 62.2314 11.1697 62.5259 11.1697 62.8901C11.1697 63.2528 11.4649 63.5472 11.8291 63.5472H18.6721C19.0355 63.5472 19.3307 63.2528 19.3307 62.8901C19.3307 62.5259 19.0355 62.2314 18.6721 62.2314Z" fill="white"/>
<path d="M15.27 64.8545H11.8291C11.4649 64.8545 11.1697 65.1489 11.1697 65.5124C11.1697 65.875 11.4649 66.1694 11.8291 66.1694H15.27C15.6335 66.1694 15.9279 65.875 15.9279 65.5124C15.9279 65.1489 15.6327 64.8545 15.27 64.8545Z" fill="white"/>
<path d="M12.0672 57.4749H12.9465V56.7281H13.6916V55.8504H12.9465V55.1045H12.0672V55.8504H11.322V56.7281H12.0672V57.4749Z" fill="white"/>
</svg>
