<svg width="30" height="24" viewBox="0 0 30 24" fill="none" xmlns="http://www.w3.org/2000/svg">
<path d="M3.31473 17.3576C4.49759 17.3576 5.45759 15.9176 5.45759 14.1433C5.45759 12.369 4.49759 10.929 3.31473 10.929C2.13188 10.929 1.17188 12.369 1.17188 14.1433C1.17188 15.9176 2.13188 17.3576 3.31473 17.3576ZM9.7433 7.7147C10.9262 7.7147 11.8862 6.2747 11.8862 4.50042C11.8862 2.72613 10.9262 1.28613 9.7433 1.28613C8.56045 1.28613 7.60045 2.72613 7.60045 4.50042C7.60045 6.2747 8.56045 7.7147 9.7433 7.7147ZM20.4576 7.7147C21.6404 7.7147 22.6004 6.2747 22.6004 4.50042C22.6004 2.72613 21.6404 1.28613 20.4576 1.28613C19.2747 1.28613 18.3147 2.72613 18.3147 4.50042C18.3147 6.2747 19.2747 7.7147 20.4576 7.7147ZM26.8862 17.3576C28.069 17.3576 29.029 15.9176 29.029 14.1433C29.029 12.369 28.069 10.929 26.8862 10.929C25.7033 10.929 24.7433 12.369 24.7433 14.1433C24.7433 15.9176 25.7033 17.3576 26.8862 17.3576ZM21.529 18.429C21.529 21.3861 18.0576 22.7147 15.1004 22.7147C12.1433 22.7147 8.67188 21.3861 8.67188 18.429C8.67188 15.4718 10.8147 10.929 15.1004 10.929C19.3862 10.929 21.529 15.4718 21.529 18.429Z" stroke="black" stroke-width="1.5" stroke-linecap="round" stroke-linejoin="round"/>
</svg>
