<svg width="12" height="14" viewBox="0 0 12 14" fill="none" xmlns="http://www.w3.org/2000/svg">
<g clip-path="url(#clip0_25_353)">
<path d="M11.1599 9.6875C11.1599 9.82812 11.1339 10.0117 11.0818 10.2383C11.0297 10.4648 10.975 10.6432 10.9177 10.7734C10.8083 11.0339 10.4906 11.3099 9.9646 11.6016C9.47502 11.8672 8.99064 12 8.51147 12C8.37085 12 8.23283 11.9909 8.09741 11.9727C7.962 11.9544 7.81226 11.9219 7.64819 11.875C7.48413 11.8281 7.36173 11.7904 7.28101 11.7617C7.20028 11.7331 7.05575 11.6797 6.84741 11.6016C6.63908 11.5234 6.51147 11.4766 6.4646 11.4609C5.95418 11.2786 5.49845 11.0625 5.09741 10.8125C4.43595 10.401 3.74845 9.83854 3.03491 9.125C2.32137 8.41146 1.75887 7.72396 1.34741 7.0625C1.09741 6.66146 0.881266 6.20573 0.698975 5.69531C0.68335 5.64844 0.636475 5.52083 0.55835 5.3125C0.480225 5.10417 0.426839 4.95964 0.398193 4.87891C0.369548 4.79818 0.331787 4.67578 0.284912 4.51172C0.238037 4.34766 0.205485 4.19792 0.187256 4.0625C0.169027 3.92708 0.159912 3.78906 0.159912 3.64844C0.159912 3.16927 0.292725 2.6849 0.55835 2.19531C0.850016 1.66927 1.12606 1.35156 1.38647 1.24219C1.51668 1.1849 1.69507 1.13021 1.92163 1.07812C2.14819 1.02604 2.33179 1 2.47241 1C2.54533 1 2.60002 1.00781 2.63647 1.02344C2.73022 1.05469 2.86825 1.2526 3.05054 1.61719C3.10783 1.71615 3.18595 1.85677 3.28491 2.03906C3.38387 2.22135 3.47502 2.38672 3.55835 2.53516C3.64168 2.68359 3.72241 2.82292 3.80054 2.95312C3.81616 2.97396 3.86174 3.03906 3.93726 3.14844C4.01278 3.25781 4.06877 3.35026 4.10522 3.42578C4.14168 3.5013 4.15991 3.57552 4.15991 3.64844C4.15991 3.7526 4.08569 3.88281 3.93726 4.03906C3.78882 4.19531 3.62736 4.33854 3.45288 4.46875C3.2784 4.59896 3.11694 4.73698 2.96851 4.88281C2.82007 5.02865 2.74585 5.14844 2.74585 5.24219C2.74585 5.28906 2.75887 5.34766 2.78491 5.41797C2.81095 5.48828 2.83309 5.54167 2.85132 5.57812C2.86955 5.61458 2.90601 5.67708 2.96069 5.76562C3.01538 5.85417 3.04533 5.90365 3.05054 5.91406C3.44637 6.6276 3.8995 7.23958 4.40991 7.75C4.92033 8.26042 5.53231 8.71354 6.24585 9.10938C6.25627 9.11458 6.30575 9.14453 6.39429 9.19922C6.48283 9.25391 6.54533 9.29036 6.58179 9.30859C6.61825 9.32682 6.67163 9.34896 6.74194 9.375C6.81226 9.40104 6.87085 9.41406 6.91772 9.41406C7.01147 9.41406 7.13127 9.33984 7.2771 9.19141C7.42293 9.04297 7.56095 8.88151 7.69116 8.70703C7.82137 8.53255 7.9646 8.37109 8.12085 8.22266C8.2771 8.07422 8.40731 8 8.51147 8C8.58439 8 8.65861 8.01823 8.73413 8.05469C8.80965 8.09115 8.9021 8.14714 9.01147 8.22266C9.12085 8.29818 9.18595 8.34375 9.20679 8.35938C9.337 8.4375 9.47632 8.51823 9.62476 8.60156C9.77319 8.6849 9.93856 8.77604 10.1208 8.875C10.3031 8.97396 10.4438 9.05208 10.5427 9.10938C10.9073 9.29167 11.1052 9.42969 11.1365 9.52344C11.1521 9.5599 11.1599 9.61458 11.1599 9.6875Z" fill="white"/>
</g>
<defs>
<clipPath id="clip0_25_353">
<rect width="11" height="14" fill="white" transform="matrix(1 0 0 -1 0.159912 14)"/>
</clipPath>
</defs>
</svg>
