<svg width="23" height="19" viewBox="0 0 23 19" fill="none" xmlns="http://www.w3.org/2000/svg">
<path d="M21.3198 0.773438H2.37838C1.54477 0.773438 0.850098 1.46811 0.850098 2.30172V16.6352C0.850098 17.4688 1.54477 18.1634 2.37838 18.1634H21.3198C22.1534 18.1634 22.8481 17.4688 22.8481 16.6352V2.30172C22.8481 1.44496 22.1534 0.773438 21.3198 0.773438ZM7.38003 2.34803C7.75052 2.34803 8.02839 2.64906 8.02839 2.99639C8.02839 3.36689 7.72737 3.64476 7.38003 3.64476C7.00954 3.64476 6.73167 3.34373 6.73167 2.99639C6.70851 2.6259 7.00954 2.34803 7.38003 2.34803ZM5.38863 2.34803C5.75913 2.34803 6.03699 2.64906 6.03699 2.99639C6.03699 3.36689 5.73597 3.64476 5.38863 3.64476C5.01814 3.64476 4.74027 3.34373 4.74027 2.99639C4.71711 2.6259 5.01814 2.34803 5.38863 2.34803ZM3.37408 2.34803C3.74457 2.34803 4.02244 2.64906 4.02244 2.99639C4.02244 3.36689 3.72142 3.64476 3.37408 3.64476C3.02674 3.64476 2.72572 3.34373 2.72572 2.99639C2.72572 2.6259 3.02674 2.34803 3.37408 2.34803ZM20.8799 16.0563C20.8799 16.1257 20.8335 16.172 20.7641 16.172H2.93412C2.86465 16.172 2.81834 16.1257 2.81834 16.0563V5.24251H20.8799V16.0563Z" fill="#9E9E9E"/>
</svg>
