<svg width="20" height="20" viewBox="0 0 20 20" fill="none" xmlns="http://www.w3.org/2000/svg">
<path d="M11.8293 19.9684C11.5656 19.9684 11.3178 19.8369 11.1706 19.6161L9.82239 17.5934H8.26676C7.82976 17.5934 7.4751 17.2387 7.4751 16.8017C7.4751 16.3647 7.82976 16.01 8.26676 16.01H10.2459C10.5103 16.01 10.7573 16.1422 10.9046 16.3623L11.7311 17.6021L13.4957 14.072C13.6256 13.8139 13.8844 13.6461 14.1734 13.635C14.4806 13.6279 14.7339 13.7712 14.8827 14.0182L17.0273 17.5934H18.5584C18.9954 17.5934 19.3501 17.948 19.3501 18.385C19.3501 18.822 18.9954 19.1767 18.5584 19.1767H16.5793C16.3014 19.1767 16.0433 19.031 15.9008 18.7927L14.2676 16.071L12.5378 19.5314C12.4111 19.7839 12.1602 19.9501 11.8783 19.9676C11.8625 19.9684 11.8459 19.9684 11.8293 19.9684Z" fill="#9E9E9E"/>
<path d="M7.47518 8.88542C9.66131 8.88542 11.4335 7.11321 11.4335 4.92708C11.4335 2.74096 9.66131 0.96875 7.47518 0.96875C5.28905 0.96875 3.51685 2.74096 3.51685 4.92708C3.51685 7.11321 5.28905 8.88542 7.47518 8.88542Z" fill="#9E9E9E"/>
<path d="M5.89176 16.8021C5.89176 15.4927 6.95735 14.4271 8.26676 14.4271H10.2459C10.6568 14.4271 11.0526 14.5324 11.4002 14.7255L12.0802 13.3647C12.4262 12.6751 13.0848 12.2231 13.833 12.1028C13.1126 11.1171 11.9567 10.4688 10.6418 10.4688H4.30843C2.12264 10.4688 0.350098 12.2413 0.350098 14.4271V17C0.350098 17.3278 0.616098 17.5938 0.943848 17.5938H6.03743C5.94876 17.3452 5.89176 17.0807 5.89176 16.8021Z" fill="#9E9E9E"/>
</svg>
