<svg width="19" height="19" viewBox="0 0 19 19" fill="none" xmlns="http://www.w3.org/2000/svg">
<path d="M9.85015 6.65625C9.29389 6.65625 8.75012 6.8212 8.28761 7.13024C7.82509 7.43928 7.46461 7.87854 7.25174 8.39245C7.03887 8.90637 6.98317 9.47187 7.09169 10.0174C7.20021 10.563 7.46808 11.0642 7.86141 11.4575C8.25475 11.8508 8.75589 12.1187 9.30146 12.2272C9.84703 12.3357 10.4125 12.28 10.9264 12.0672C11.4404 11.8543 11.8796 11.4938 12.1887 11.0313C12.4977 10.5688 12.6626 10.025 12.6626 9.46875C12.6604 8.72351 12.3634 8.00944 11.8364 7.48247C11.3095 6.95551 10.5954 6.65848 9.85015 6.65625ZM15.9223 9.46875C15.9209 9.73155 15.9016 9.99395 15.8647 10.2541L17.5764 11.5943C17.651 11.6559 17.7012 11.7419 17.7182 11.8371C17.7351 11.9323 17.7176 12.0304 17.6689 12.1139L16.0496 14.9095C16.0004 14.9923 15.9235 15.055 15.8326 15.0867C15.7417 15.1184 15.6425 15.1171 15.5525 15.0829L13.5398 14.2743C13.1207 14.597 12.6621 14.8648 12.175 15.0712L11.8741 17.208C11.8573 17.3038 11.8077 17.3907 11.7339 17.4539C11.6601 17.5171 11.5666 17.5527 11.4694 17.5547H8.23085C8.13546 17.5528 8.0435 17.5187 7.97001 17.4578C7.89652 17.397 7.84582 17.313 7.8262 17.2196L7.52527 15.0829C7.0369 14.8788 6.57793 14.6106 6.1605 14.2852L4.1478 15.0938C4.05783 15.128 3.95867 15.1294 3.86775 15.0978C3.77683 15.0662 3.69997 15.0035 3.65069 14.9208L2.0314 12.1255C1.98266 12.042 1.96519 11.9439 1.98213 11.8487C1.99907 11.7535 2.04931 11.6675 2.12386 11.6059L3.83562 10.2657C3.79911 10.0016 3.77985 9.73538 3.77796 9.46875C3.77942 9.20595 3.79869 8.94355 3.83562 8.68336L2.12386 7.3432C2.04931 7.28164 1.99907 7.19558 1.98213 7.10039C1.96519 7.0052 1.98266 6.90709 2.0314 6.82359L3.65069 4.02797C3.69992 3.94521 3.77675 3.88246 3.86768 3.85076C3.9586 3.81906 4.0578 3.82043 4.1478 3.85465L6.1605 4.66324C6.5796 4.34051 7.03824 4.07268 7.52527 3.86625L7.8262 1.72945C7.84305 1.63374 7.8926 1.54685 7.96641 1.48362C8.04022 1.4204 8.13369 1.38476 8.23085 1.38281H11.4694C11.5648 1.38467 11.6568 1.41881 11.7303 1.47966C11.8038 1.54051 11.8545 1.62448 11.8741 1.71785L12.175 3.85465C12.664 4.05854 13.1236 4.32681 13.5416 4.65234L15.5525 3.84375C15.6425 3.8095 15.7416 3.80807 15.8325 3.83971C15.9235 3.87134 16.0003 3.93402 16.0496 4.01672L17.6689 6.81234C17.7176 6.89584 17.7351 6.99395 17.7182 7.08914C17.7012 7.18433 17.651 7.27039 17.5764 7.33195L15.8647 8.67211C15.9012 8.93612 15.9204 9.20223 15.9223 9.46875Z" fill="#9E9E9E"/>
</svg>
