<svg width="29" height="30" viewBox="0 0 29 30" fill="none" xmlns="http://www.w3.org/2000/svg">
<path d="M10.6006 17.7939V21.2502C10.6006 22.9078 11.2152 24.4975 12.3091 25.6696C13.4031 26.8417 14.8868 27.5002 16.4339 27.5002H17.4629C18.5097 27.5 19.5279 27.1336 20.3626 26.4567C21.1973 25.7799 21.803 24.8296 22.0876 23.7502" stroke="black" stroke-width="1.5"/>
<path d="M6.43409 3.75H6.32676C5.96159 3.75 5.77843 3.75 5.62559 3.765C4.80708 3.84257 4.04014 4.22623 3.45911 4.84876C2.87807 5.4713 2.51999 6.29302 2.44759 7.17C2.43359 7.335 2.43359 7.53 2.43359 7.92V9.045C2.43359 11.3656 3.29401 13.5912 4.82555 15.2322C6.3571 16.8731 8.43433 17.795 10.6003 17.795C11.629 17.795 12.6477 17.5779 13.5981 17.156C14.5485 16.7342 15.4121 16.1159 16.1394 15.3365C16.8668 14.557 17.4438 13.6317 17.8373 12.6133C18.2309 11.5949 18.4334 10.5035 18.4333 9.40125V7.92125C18.4333 7.53 18.4333 7.33375 18.4204 7.17C18.348 6.29302 17.9899 5.4713 17.4089 4.84876C16.8279 4.22623 16.0609 3.84257 15.2424 3.765C15.0884 3.75 14.9053 3.75 14.5401 3.75H14.4339" stroke="black" stroke-width="1.5" stroke-linecap="round"/>
<path d="M22.2666 23.75C24.1996 23.75 25.7666 22.0711 25.7666 20C25.7666 17.9289 24.1996 16.25 22.2666 16.25C20.3336 16.25 18.7666 17.9289 18.7666 20C18.7666 22.0711 20.3336 23.75 22.2666 23.75Z" stroke="black" stroke-width="1.5"/>
<path d="M14.1006 2.5V5M7.10059 2.5V5" stroke="black" stroke-width="1.5" stroke-linecap="round"/>
</svg>
