<svg width="20" height="19" viewBox="0 0 20 19" fill="none" xmlns="http://www.w3.org/2000/svg">
<path d="M19.236 6.80706L13.5402 5.98584L10.994 0.864902C10.9244 0.724694 10.81 0.611192 10.6687 0.542201C10.3142 0.368609 9.88353 0.513269 9.70631 0.864902L7.16012 5.98584L1.46429 6.80706C1.30725 6.82932 1.16368 6.90276 1.05376 7.01404C0.920866 7.14954 0.847637 7.33184 0.850161 7.52088C0.852685 7.70992 0.930755 7.89024 1.06722 8.0222L5.18823 12.0081L4.21462 17.6365C4.19179 17.7674 4.20639 17.9021 4.25678 18.0252C4.30716 18.1483 4.39131 18.2549 4.49968 18.333C4.60804 18.4111 4.7363 18.4575 4.8699 18.4669C5.00349 18.4764 5.13709 18.4485 5.25553 18.3865L10.3501 15.7292L15.4448 18.3865C15.5838 18.4599 15.7454 18.4844 15.9002 18.4577C16.2905 18.3909 16.553 18.0237 16.4857 17.6365L15.5121 12.0081L19.6331 8.0222C19.7452 7.91315 19.8193 7.77072 19.8417 7.61493C19.9023 7.22546 19.6286 6.86493 19.236 6.80706Z" fill="#9E9E9E"/>
</svg>
