<svg width="73" height="73" viewBox="0 0 73 73" fill="none" xmlns="http://www.w3.org/2000/svg">
<path d="M44.3495 72.0866C43.3505 72.0866 42.4115 71.5886 41.8535 70.7516L36.7443 63.0864H30.8492C29.1932 63.0864 27.8491 61.7423 27.8491 60.0863C27.8491 58.4302 29.1932 57.0862 30.8492 57.0862H38.3494C39.3514 57.0862 40.2874 57.5872 40.8454 58.4212L43.9775 63.1194L50.6647 49.742C51.1567 48.7639 52.1377 48.1279 53.2327 48.0859C54.3968 48.0589 55.3568 48.6019 55.9208 49.538L64.048 63.0864H69.8501C71.5062 63.0864 72.8502 64.4304 72.8502 66.0864C72.8502 67.7425 71.5062 69.0865 69.8501 69.0865H62.3499C61.2969 69.0865 60.3189 68.5345 59.7789 67.6315L53.5897 57.3172L47.0346 70.4306C46.5546 71.3876 45.6035 72.0176 44.5355 72.0836C44.4755 72.0866 44.4125 72.0866 44.3495 72.0866Z" fill="white"/>
<path d="M27.8456 30.0936C36.13 30.0936 42.8459 23.3777 42.8459 15.0932C42.8459 6.80869 36.13 0.0927734 27.8456 0.0927734C19.5611 0.0927734 12.8452 6.80869 12.8452 15.0932C12.8452 23.3777 19.5611 30.0936 27.8456 30.0936Z" fill="white"/>
<path d="M21.8506 60.1003C21.8506 55.1382 25.8887 51.1 30.8508 51.1H38.351C39.908 51.1 41.4081 51.4991 42.7251 52.2311L45.3022 47.0739C46.6132 44.4608 49.1093 42.7478 51.9443 42.2918C49.2143 38.5567 44.8341 36.0996 39.851 36.0996H15.8505C7.56726 36.0996 0.850098 42.8168 0.850098 51.1V60.8503C0.850098 62.0924 1.85812 63.1004 3.10015 63.1004H22.4026C22.0666 62.1584 21.8506 61.1563 21.8506 60.1003Z" fill="white"/>
</svg>
