<svg width="35" height="35" viewBox="0 0 35 35" fill="none" xmlns="http://www.w3.org/2000/svg">
<path d="M17.6092 26.8561C22.6948 26.8561 26.8175 22.7334 26.8175 17.6478C26.8175 12.5622 22.6948 8.43945 17.6092 8.43945C12.5236 8.43945 8.40088 12.5622 8.40088 17.6478C8.40088 22.7334 12.5236 26.8561 17.6092 26.8561Z" stroke="black" stroke-width="1.5" stroke-linecap="round" stroke-linejoin="round"/>
<path d="M27.5404 7.7163L27.7245 7.53214L27.5404 7.7163ZM7.49454 27.7621L7.6787 27.578L7.49454 27.7621ZM17.6095 3.5938V3.48047V3.5938ZM17.6095 31.8138V31.7005V31.8138ZM3.5562 17.6471H3.44287H3.5562ZM31.7762 17.6471H31.6629H31.7762ZM7.6787 7.7163L7.49454 7.53214L7.6787 7.7163ZM27.7245 27.7621L27.5404 27.578L27.7245 27.7621Z" fill="black"/>
<path d="M27.7245 27.7621L27.5404 27.578M27.5404 7.7163L27.7245 7.53214L27.5404 7.7163ZM7.49454 27.7621L7.6787 27.578L7.49454 27.7621ZM17.6095 3.5938V3.48047V3.5938ZM17.6095 31.8138V31.7005V31.8138ZM3.5562 17.6471H3.44287H3.5562ZM31.7762 17.6471H31.6629H31.7762ZM7.6787 7.7163L7.49454 7.53214L7.6787 7.7163Z" stroke="#1B1D28" stroke-width="2" stroke-linecap="round" stroke-linejoin="round"/>
</svg>
