<svg width="113" height="42" viewBox="0 0 113 42" fill="none" xmlns="http://www.w3.org/2000/svg">
<path d="M22.0385 22.375L22.5307 19.1406H19.4018V17.0312C19.4018 16.1172 19.8236 15.2734 21.2299 15.2734H22.6713V12.4961C22.6713 12.4961 21.3705 12.25 20.14 12.25C17.5736 12.25 15.8861 13.832 15.8861 16.6445V19.1406H13.0033V22.375H15.8861V30.25H19.4018V22.375H22.0385Z" fill="white"/>
<path d="M96.1049 17.207C93.8549 17.207 92.0619 19.0352 92.0619 21.25C92.0619 23.5 93.8549 25.293 96.1049 25.293C98.3197 25.293 100.148 23.5 100.148 21.25C100.148 19.0352 98.3197 17.207 96.1049 17.207ZM96.1049 23.8867C94.6635 23.8867 93.4682 22.7266 93.4682 21.25C93.4682 19.8086 94.6283 18.6484 96.1049 18.6484C97.5463 18.6484 98.7064 19.8086 98.7064 21.25C98.7064 22.7266 97.5463 23.8867 96.1049 23.8867ZM101.238 17.0664C101.238 16.5391 100.816 16.1172 100.288 16.1172C99.7611 16.1172 99.3393 16.5391 99.3393 17.0664C99.3393 17.5938 99.7611 18.0156 100.288 18.0156C100.816 18.0156 101.238 17.5938 101.238 17.0664ZM103.91 18.0156C103.839 16.75 103.558 15.625 102.644 14.7109C101.73 13.7969 100.605 13.5156 99.3393 13.4453C98.0385 13.375 94.1361 13.375 92.8354 13.4453C91.5697 13.5156 90.4799 13.7969 89.5307 14.7109C88.6166 15.625 88.3354 16.75 88.265 18.0156C88.1947 19.3164 88.1947 23.2188 88.265 24.5195C88.3354 25.7852 88.6166 26.875 89.5307 27.8242C90.4799 28.7383 91.5697 29.0195 92.8354 29.0898C94.1361 29.1602 98.0385 29.1602 99.3393 29.0898C100.605 29.0195 101.73 28.7383 102.644 27.8242C103.558 26.875 103.839 25.7852 103.91 24.5195C103.98 23.2188 103.98 19.3164 103.91 18.0156ZM102.222 25.8906C101.976 26.5938 101.413 27.1211 100.746 27.4023C99.6908 27.8242 97.2299 27.7188 96.1049 27.7188C94.9447 27.7188 92.4838 27.8242 91.4643 27.4023C90.7611 27.1211 90.2338 26.5938 89.9525 25.8906C89.5307 24.8711 89.6361 22.4102 89.6361 21.25C89.6361 20.125 89.5307 17.6641 89.9525 16.6094C90.2338 15.9414 90.7611 15.4141 91.4643 15.1328C92.4838 14.7109 94.9447 14.8164 96.1049 14.8164C97.2299 14.8164 99.6908 14.7109 100.746 15.1328C101.413 15.3789 101.941 15.9414 102.222 16.6094C102.644 17.6641 102.538 20.125 102.538 21.25C102.538 22.4102 102.644 24.8711 102.222 25.8906Z" fill="white"/>
<g clip-path="url(#clip0_25_357)">
<path d="M61.1757 12.8647H63.9357L57.9058 19.7572L65 29.1345H59.4455L55.0955 23.4465L50.117 29.1345H47.3555L53.8055 21.762L47 12.8655H52.6955L56.6278 18.0645L61.1757 12.8647ZM60.2075 27.483H61.7367L51.8645 14.43H50.2235L60.2075 27.483Z" fill="white"/>
</g>
<defs>
<clipPath id="clip0_25_357">
<rect width="18" height="18" fill="white" transform="translate(47 12)"/>
</clipPath>
</defs>
</svg>
